<?xml version="1.0" encoding="UTF-8" standalone="no"?>
<!-- Created with Inkscape (http://www.inkscape.org/) -->
<svg
   xmlns:svg="http://www.w3.org/2000/svg"
   xmlns="http://www.w3.org/2000/svg"
   version="1.0"
   width="256"
   height="256"
   id="svg2">
  <defs
     id="defs4" />
  <g
     transform="translate(-81.008667,-161.38896)"
     id="layer1">
    <g
       transform="matrix(8.2589606,0,0,8.2589606,-1246.0616,-3046.3988)"
       id="g8035">
      <path
         d="M 3.8497858,13 L -1.9427356,13.92859 L -6.695279,10.489271 L -7.6238688,4.6967495 L -4.1845498,-0.05579391 L 1.6079717,-0.98438373 L 6.3605151,2.4549353 L 7.2891049,8.2474568 L 3.8497858,13 z "
         transform="matrix(1.267754,1.7356882,-1.7356882,1.267754,187.62655,395.98471)"
         style="opacity:1;fill:#ffffff;fill-opacity:1;fill-rule:nonzero;stroke:#000000;stroke-width:0.23262574;stroke-linecap:square;stroke-linejoin:miter;stroke-miterlimit:4;stroke-dasharray:none;stroke-dashoffset:0;stroke-opacity:1"
         id="path4143" />
      <path
         d="M 3.8497858,13 L -1.9427356,13.92859 L -6.695279,10.489271 L -7.6238688,4.6967495 L -4.1845498,-0.05579391 L 1.6079717,-0.98438373 L 6.3605151,2.4549353 L 7.2891049,8.2474568 L 3.8497858,13 z "
         transform="matrix(1.1487931,1.5728184,-1.5728184,1.1487931,186.63621,396.58789)"
         style="opacity:1;fill:#ff0000;fill-opacity:1;fill-rule:nonzero;stroke:none;stroke-width:1;stroke-linecap:round;stroke-linejoin:round;stroke-miterlimit:4;stroke-dasharray:none;stroke-dashoffset:0;stroke-opacity:1"
         id="path3170" />
      <path
         d="M 19.535156,18.612805 L 16.007813,18.612805 L 15.451172,20.206555 L 13.183594,20.206555 L 16.423828,11.458508 L 19.113281,11.458508 L 22.353516,20.206555 L 20.085938,20.206555 L 19.535156,18.612805 z M 16.570313,16.989758 L 18.966797,16.989758 L 17.771484,13.509289 L 16.570313,16.989758 z M 27.011719,14.845227 C 27.367183,14.845232 27.636714,14.767107 27.820313,14.610852 C 28.003901,14.454608 28.095697,14.224139 28.095703,13.919446 C 28.095697,13.618671 28.003901,13.389179 27.820313,13.230969 C 27.636714,13.072773 27.367183,12.993671 27.011719,12.993664 L 25.763672,12.993664 L 25.763672,14.845227 L 27.011719,14.845227 z M 27.087891,18.671399 C 27.54101,18.6714 27.88183,18.575697 28.110352,18.384289 C 28.338861,18.192885 28.453119,17.903823 28.453125,17.517102 C 28.453119,17.138199 28.339838,16.854019 28.113281,16.664563 C 27.886713,16.475113 27.544917,16.380387 27.087891,16.380383 L 25.763672,16.380383 L 25.763672,18.671399 L 27.087891,18.671399 z M 29.185547,15.524914 C 29.669915,15.665544 30.044914,15.925309 30.310547,16.304211 C 30.576164,16.683121 30.708976,17.147964 30.708984,17.698742 C 30.708976,18.542494 30.42382,19.1714 29.853516,19.585461 C 29.283196,19.999524 28.41601,20.206555 27.251953,20.206555 L 23.507813,20.206555 L 23.507813,11.458508 L 26.894531,11.458508 C 28.109369,11.458517 28.989251,11.64211 29.53418,12.009289 C 30.079094,12.376485 30.351555,12.964375 30.351563,13.772961 C 30.351555,14.198748 30.251945,14.561053 30.052734,14.859875 C 29.853508,15.158708 29.564446,15.380388 29.185547,15.524914 L 29.185547,15.524914 z M 32.648438,11.458508 L 36.392578,11.458508 C 37.505853,11.458517 38.360345,11.705587 38.956055,12.199719 C 39.55175,12.693867 39.849601,13.397968 39.849609,14.312024 C 39.849601,15.229997 39.55175,15.936051 38.956055,16.430188 C 38.360345,16.924332 37.505853,17.171402 36.392578,17.171399 L 34.904297,17.171399 L 34.904297,20.206555 L 32.648438,20.206555 L 32.648438,11.458508 z M 34.904297,13.093274 L 34.904297,15.536633 L 36.152344,15.536633 C 36.589839,15.536638 36.927729,15.430192 37.166016,15.217297 C 37.404291,15.004412 37.523432,14.702654 37.523438,14.312024 C 37.523432,13.921405 37.404291,13.620624 37.166016,13.40968 C 36.927729,13.198749 36.589839,13.093281 36.152344,13.093274 L 34.904297,13.093274 z "
         transform="matrix(0.9644305,0,0,1.2232258,150.78983,384.56035)"
         style="fill:#ffffff;fill-opacity:1"
         id="flowRoot6084" />
    </g>
  </g>
</svg>
