<?xml version="1.0" encoding="UTF-8" standalone="no"?>
<svg
   xmlns:dc="http://purl.org/dc/elements/1.1/"
   xmlns:cc="http://creativecommons.org/ns#"
   xmlns:rdf="http://www.w3.org/1999/02/22-rdf-syntax-ns#"
   xmlns:svg="http://www.w3.org/2000/svg"
   xmlns="http://www.w3.org/2000/svg"
   version="1.1"
   width="96"
   height="96">
  <path
     d="M 96,48 A 48,48 0 1 1 0,48 48,48 0 1 1 96,48 z"
     id="bg" />
  <path
     d="m 84,48 a 36,36 0 1 1 -72,0 36,36 0 1 1 72,0 z"
     style="fill:#d9d9d9" />
  <path
     d="m 48.875,27.7188 c -0.910603,3e-5 -1.92559,0.02875 -3.03125,0.09375 -1.04068,3.8e-5 -1.967,0.232252 -2.8125,0.6875 -0.325231,3e-5 -0.964458,0.02875 -1.875,0.09375 -0.845554,3e-5 -1.39611,0.02875 -1.65625,0.09375 -0.58539,0.06508 -1.19337,0.151215 -1.84375,0.28125 -0.5853,0.065 -1.1359,0.326 -1.6562,0.7812 l -2.0625,2.0625 c -0.195142,0.325237 -0.367398,0.672289 -0.5625,1.0625 -0.130102,0.390277 -0.218769,0.825998 -0.21875,1.28125 -1.9e-5,1.04068 0.406993,1.93829 1.1875,2.71875 0.845509,0.715475 1.77183,1.06253 2.8125,1.0625 0.390221,3e-5 0.825942,-0.02868 1.28125,-0.09375 0.455262,-0.06501 0.890982,-0.151146 1.28125,-0.28125 h 6.71875 c 0.585335,2.7e-5 1.13589,0.174825 1.65625,0.5 0.520291,0.32523 0.781215,0.75841 0.78125,1.34375 -3.5e-5,0.520352 -0.203539,0.927362 -0.59375,1.1875 -0.325237,0.195146 -0.729707,0.338697 -1.25,0.46875 -0.520357,0.06507 -1.04221,0.15373 -1.5625,0.21875 -0.520356,2.4e-5 -0.927368,0.05745 -1.1875,0.1875 -0.13011,0.06506 -0.419744,0.179902 -0.875,0.375 -0.390272,0.130104 -0.651197,0.24748 -0.78125,0.3125 -0.910595,0.325227 -1.83692,0.49748 -2.8125,0.5625 -0.975634,2.3e-5 -1.9332,0.260947 -2.84375,0.78125 -1.30084,0.780509 -2.51679,1.76679 -3.6875,2.9375 -1.10571,1.10571 -2.03457,2.3242 -2.75,3.625 -0.130097,0.130098 -0.273643,0.331062 -0.46875,0.65625 -0.130101,0.325218 -0.218766,0.52871 -0.21875,0.59375 v 4.875 c -1.6e-5,1e-5 0.146073,0.43573 0.40625,1.28125 0.260147,0.780494 0.463646,1.38847 0.59375,1.84375 0.390229,1.30082 1.11304,2.43064 2.21875,3.40625 1.17071,0.910572 2.27183,1.72205 3.3125,2.4375 -2.1e-5,0.06503 0.08864,0.15371 0.21875,0.21875 0.195099,0.06503 0.30993,0.09375 0.375,0.09375 0.325181,0.130082 0.964408,0.362297 1.875,0.6875 0.975586,0.325203 1.61227,0.49746 1.9375,0.5625 h 0.78125 0.6875 c 0.130054,0.06504 0.33356,0.03634 0.59375,-0.09375 0.130054,-0.06504 0.419686,-0.208588 0.875,-0.46875 0.520296,-0.260162 0.838645,-0.43497 0.96875,-0.5 1.10566,-0.455284 2.20678,-0.891004 3.3125,-1.28125 1.1707,-0.455282 2.38919,-0.656248 3.625,-0.65625 h 0.65625 c 0.390206,0 0.651128,0.02871 0.78125,0.09375 0.910529,0.390246 1.8681,0.823426 2.84375,1.34375 0.975568,0.455284 1.99056,0.6875 3.03125,0.6875 0.780443,0 1.50326,-0.143547 2.21875,-0.46875 0.78044,-0.325202 1.5058,-0.789632 2.15625,-1.375 0.650357,-0.585364 1.17221,-1.22205 1.5625,-1.9375 0.390193,-0.715442 0.593699,-1.46951 0.59375,-2.25 v -0.59375 c -0.0649,-0.2606 -0.211,-0.7537 -0.4061,-1.4692 -0.1952,-0.7154 -0.31,-1.2086 -0.375,-1.4688 V 55.9995 c -5e-5,-0.715437 0.02866,-1.44079 0.09375,-2.15625 0.130031,-0.715434 0.244878,-1.40954 0.375,-2.125 -5.1e-5,-0.06503 -5.1e-5,-0.211114 0,-0.40625 -5.1e-5,-0.260148 -5.1e-5,-0.521072 0,-0.78125 0.06498,-0.325188 0.124949,-0.614823 0.125,-0.875 -5.1e-5,-0.260147 -5.1e-5,-0.43495 0,-0.5 0.130031,-0.455269 0.273577,-0.859739 0.46875,-1.25 0.195072,-0.455267 0.31245,-0.948406 0.3125,-1.46875 -5e-5,-0.715426 -0.08872,-1.44078 -0.21875,-2.15625 -0.06509,-0.715425 -0.151216,-1.40953 -0.28125,-2.125 -0.260213,-2.01624 -0.607265,-3.75658 -1.0625,-5.1875 -0.455335,-1.4959 -1.12327,-2.77182 -1.96875,-3.8125 -0.845575,-1.04062 -1.94669,-1.90952 -3.3125,-2.625 -1.301,-0.7806 -2.924,-1.446 -4.8751,-2.0314 -1.8863,-0.5203 -3.7127,-0.7812 -5.4688,-0.7812 z m -2.71875,22.7188 3.59375,0 c 0.260127,1.6e-5 0.492344,0.174812 0.6875,0.5 0.260128,0.260178 0.43492,0.492392 0.5,0.6875 v 0.96875 c -3.6e-5,0.195134 -3.6e-5,0.45606 0,0.78125 -3.6e-5,0.325216 -0.0887,0.586141 -0.21875,0.78125 -0.130116,0.130093 -0.391041,0.362309 -0.78125,0.6875 -0.325239,0.325215 -0.526198,0.52618 -0.65625,0.65625 -3.5e-5,0.130082 -0.117413,0.218761 -0.3125,0.21875 h -1.0625 c -0.910601,1.1e-5 -1.69338,-0.203495 -2.34375,-0.59375 -0.650438,-0.455273 -0.96878,-1.20934 -0.96875,-2.25 -3e-5,-0.39023 0.114808,-0.88337 0.375,-1.46875 0.260132,-0.650392 0.667145,-0.968734 1.1875,-0.96875 z" />
</svg>