<?xml version="1.0" encoding="UTF-8" standalone="no"?>
<!-- Created with Inkscape (http://www.inkscape.org/) -->

<svg
   xmlns:dc="http://purl.org/dc/elements/1.1/"
   xmlns:cc="http://creativecommons.org/ns#"
   xmlns:rdf="http://www.w3.org/1999/02/22-rdf-syntax-ns#"
   xmlns:svg="http://www.w3.org/2000/svg"
   xmlns="http://www.w3.org/2000/svg"
   xmlns:xlink="http://www.w3.org/1999/xlink"
   version="1.0"
   width="128"
   height="128"
   id="svg2">
  <defs
     id="defs4">
    <linearGradient
       id="linearGradient4977">
      <stop
         id="stop4979"
         style="stop-color:#afb5ba;stop-opacity:0.96078432"
         offset="0" />
      <stop
         id="stop4981"
         style="stop-color:#000000;stop-opacity:0.96078432"
         offset="1" />
    </linearGradient>
    <linearGradient
       id="linearGradient4928">
      <stop
         id="stop4930"
         style="stop-color:#ffffff;stop-opacity:1"
         offset="0" />
      <stop
         id="stop4934"
         style="stop-color:#7fccff;stop-opacity:0.41525424"
         offset="0.5" />
      <stop
         id="stop4932"
         style="stop-color:#009aff;stop-opacity:0"
         offset="1" />
    </linearGradient>
    <linearGradient
       id="linearGradient9018">
      <stop
         id="stop9020"
         style="stop-color:#ffffff;stop-opacity:0"
         offset="0" />
      <stop
         id="stop9022"
         style="stop-color:#c8c8c8;stop-opacity:1"
         offset="1" />
    </linearGradient>
    <linearGradient
       id="linearGradient8981">
      <stop
         id="stop8983"
         style="stop-color:#1a1a1a;stop-opacity:1"
         offset="0" />
      <stop
         id="stop8985"
         style="stop-color:#cccccc;stop-opacity:0"
         offset="1" />
    </linearGradient>
    <linearGradient
       id="linearGradient8821">
      <stop
         id="stop8823"
         style="stop-color:#1a1a1a;stop-opacity:1"
         offset="0" />
      <stop
         id="stop8825"
         style="stop-color:#5c5c5c;stop-opacity:1"
         offset="1" />
    </linearGradient>
    <filter
       color-interpolation-filters="sRGB"
       id="filter17486">
      <feGaussianBlur
         stdDeviation="1.4771469"
         id="feGaussianBlur17488" />
    </filter>
    <filter
       color-interpolation-filters="sRGB"
       id="filter17476">
      <feGaussianBlur
         stdDeviation="1.474452"
         id="feGaussianBlur17478" />
    </filter>
    <linearGradient
       id="linearGradient13429">
      <stop
         id="stop13431"
         style="stop-color:#000000;stop-opacity:1"
         offset="0" />
      <stop
         id="stop13437"
         style="stop-color:#666666;stop-opacity:1"
         offset="0.5" />
      <stop
         id="stop13433"
         style="stop-color:#7f7f7f;stop-opacity:0"
         offset="1" />
    </linearGradient>
    <linearGradient
       id="linearGradient16420">
      <stop
         id="stop16422"
         style="stop-color:#000000;stop-opacity:1"
         offset="0" />
      <stop
         id="stop16424"
         style="stop-color:#000000;stop-opacity:0"
         offset="1" />
    </linearGradient>
    <filter
       color-interpolation-filters="sRGB"
       id="filter7285">
      <feGaussianBlur
         id="feGaussianBlur7287"
         stdDeviation="21.031171" />
    </filter>
    <linearGradient
       id="linearGradient4526">
      <stop
         id="stop4528"
         style="stop-color:#000000;stop-opacity:1"
         offset="0" />
      <stop
         id="stop4530"
         style="stop-color:#000000;stop-opacity:0"
         offset="1" />
    </linearGradient>
    <linearGradient
       id="linearGradient4534">
      <stop
         id="stop4536"
         style="stop-color:#000000;stop-opacity:1"
         offset="0" />
      <stop
         id="stop4538"
         style="stop-color:#000000;stop-opacity:0"
         offset="1" />
    </linearGradient>
    <linearGradient
       id="linearGradient4743">
      <stop
         id="stop4745"
         style="stop-color:#ffffff;stop-opacity:1"
         offset="0" />
      <stop
         id="stop4747"
         style="stop-color:#000000;stop-opacity:0"
         offset="1" />
    </linearGradient>
    <linearGradient
       x1="610.13214"
       y1="-109.11688"
       x2="610.13214"
       y2="153.52692"
       id="linearGradient11391"
       xlink:href="#linearGradient4534"
       gradientUnits="userSpaceOnUse"
       gradientTransform="matrix(1.3988216,0,0,1.9392105,-268.4227,164.3812)" />
    <linearGradient
       x1="569.72601"
       y1="786.05847"
       x2="569.72601"
       y2="653.24158"
       id="linearGradient11393"
       xlink:href="#linearGradient4526"
       gradientUnits="userSpaceOnUse"
       gradientTransform="matrix(1.631772,0,0,1.9931881,-480.92371,-922.4867)" />
    <filter
       color-interpolation-filters="sRGB"
       id="filter8376">
      <feGaussianBlur
         id="feGaussianBlur8378"
         stdDeviation="1.4823768" />
    </filter>
    <filter
       color-interpolation-filters="sRGB"
       id="filter8854">
      <feGaussianBlur
         id="feGaussianBlur8856"
         stdDeviation="1.4839468" />
    </filter>
    <filter
       color-interpolation-filters="sRGB"
       id="filter5016">
      <feGaussianBlur
         id="feGaussianBlur5018"
         stdDeviation="10.554463" />
    </filter>
    <radialGradient
       cx="442.44681"
       cy="490.71738"
       r="146.97212"
       fx="442.44681"
       fy="490.71738"
       id="radialGradient9817"
       xlink:href="#linearGradient13429"
       gradientUnits="userSpaceOnUse"
       gradientTransform="matrix(0.4081281,1.2032645,-0.9470078,0.3212102,726.58504,-199.28658)" />
    <linearGradient
       x1="447.42792"
       y1="619.26385"
       x2="450.98187"
       y2="328.42789"
       id="linearGradient9819"
       xlink:href="#linearGradient16420"
       gradientUnits="userSpaceOnUse" />
    <radialGradient
       cx="441.43668"
       cy="485.6666"
       r="152.63437"
       fx="441.43668"
       fy="485.6666"
       id="radialGradient9821"
       xlink:href="#linearGradient4977"
       gradientUnits="userSpaceOnUse"
       gradientTransform="matrix(0.4293318,-2.2873523,1.1399055,0.213958,-301.70012,1391.4755)" />
    <linearGradient
       x1="-385.33765"
       y1="374.22821"
       x2="-385.33765"
       y2="469.18298"
       id="linearGradient9823"
       xlink:href="#linearGradient9018"
       gradientUnits="userSpaceOnUse" />
    <linearGradient
       x1="-2028.0729"
       y1="564.46478"
       x2="-2026.3086"
       y2="252.18214"
       id="linearGradient9825"
       xlink:href="#linearGradient8821"
       gradientUnits="userSpaceOnUse"
       gradientTransform="matrix(0.2276886,0,0,0.2276886,-1.86015,578.71251)" />
    <linearGradient
       x1="-767.44012"
       y1="822.91168"
       x2="-755.18646"
       y2="518.71448"
       id="linearGradient9827"
       xlink:href="#linearGradient8981"
       gradientUnits="userSpaceOnUse"
       gradientTransform="matrix(0.2483818,0,0,0.2483818,-267.68528,502.9118)" />
    <radialGradient
       cx="-462.15759"
       cy="669.52954"
       r="37.778519"
       fx="-462.15759"
       fy="669.52954"
       id="radialGradient9829"
       xlink:href="#linearGradient4743"
       gradientUnits="userSpaceOnUse" />
    <radialGradient
       cx="521.16754"
       cy="545.92981"
       r="146.47212"
       fx="521.16754"
       fy="545.92981"
       id="radialGradient9831"
       xlink:href="#linearGradient4928"
       gradientUnits="userSpaceOnUse"
       gradientTransform="matrix(0.6368706,-0.7709707,1.7406734,1.4379065,-761.03424,162.7387)" />
    <radialGradient
       cx="521.16754"
       cy="545.92981"
       r="146.47212"
       fx="521.16754"
       fy="545.92981"
       id="radialGradient9833"
       xlink:href="#linearGradient4928"
       gradientUnits="userSpaceOnUse"
       gradientTransform="matrix(0.6368706,-0.7709707,1.7406734,1.4379065,-761.03424,162.7387)" />
  </defs>
  <metadata
     id="metadata7">
    <rdf:RDF>
      <cc:Work
         rdf:about="">
        <dc:format>image/svg+xml</dc:format>
        <dc:type
           rdf:resource="http://purl.org/dc/dcmitype/StillImage" />
        <dc:title></dc:title>
      </cc:Work>
    </rdf:RDF>
  </metadata>
  <g
     transform="translate(1871.0903,656.4282)"
     id="layer5"
     style="display:inline" />
  <g
     transform="translate(2184.0263,77.704638)"
     id="layer1"
     style="display:inline">
    <g
       transform="translate(-3550.7577,-319.9478)"
       id="g4127"
       style="display:none" />
    <g
       transform="translate(-3550.7577,-319.9478)"
       id="g4131"
       style="display:none">
      <rect
         width="1933.0156"
         height="1026.4628"
         x="-418.20316"
         y="-51.137177"
         id="rect4133"
         style="fill:url(#linearGradient11391);fill-opacity:1;fill-rule:evenodd;stroke:none" />
      <rect
         width="2254.9272"
         height="1055.0342"
         x="-655.64758"
         y="-107.54571"
         id="rect4135"
         style="fill:url(#linearGradient11393);fill-opacity:1;fill-rule:evenodd;stroke:none" />
    </g>
    <g
       id="g6000">
      <path
         d="m 4056.7725,1480.6669 c 0,579.9083 -470.6503,1050.5586 -1050.5586,1050.5586 -579.9084,0 -1050.5586,-470.6503 -1050.5586,-1050.5586 0,-579.90837 470.6502,-1050.55862 1050.5586,-1050.55862 579.9083,0 1050.5586,470.65025 1050.5586,1050.55862 z"
         transform="matrix(0.05729662,0,0,0.05729662,-2292.6127,-98.308685)"
         id="path8391"
         style="fill:#000000;fill-opacity:1;stroke:#000000;stroke-width:2;stroke-linecap:round;stroke-linejoin:round;stroke-miterlimit:4;stroke-opacity:1;filter:url(#filter7285)" />
      <path
         d="m -2184.0261,-77.704659 128,0 0,127.999993 -128,0 0,-127.999993 z"
         id="rect8393"
         style="opacity:0;fill:#333333;fill-opacity:1;stroke:none" />
      <path
         d="m 587.9088,485.6666 c 0,80.85261 -65.61951,146.47212 -146.47212,146.47212 -80.85262,0 -146.47213,-65.61951 -146.47213,-146.47212 0,-80.85262 65.61951,-146.47213 146.47213,-146.47213 80.85261,0 146.47212,65.61951 146.47212,146.47213 z"
         transform="matrix(0.3699421,0,0,0.3699421,-2283.5172,-193.18822)"
         id="path8395"
         style="fill:#000000;fill-opacity:1;fill-rule:evenodd;stroke:#000000;stroke-width:1;stroke-linecap:butt;stroke-linejoin:miter;stroke-miterlimit:4;stroke-opacity:1;stroke-dashoffset:0" />
      <path
         d="m 587.9088,485.6666 c 0,80.85261 -65.61951,146.47212 -146.47212,146.47212 -80.85262,0 -146.47213,-65.61951 -146.47213,-146.47212 0,-80.85262 65.61951,-146.47213 146.47213,-146.47213 80.85261,0 146.47212,65.61951 146.47212,146.47213 z"
         transform="matrix(0.3699421,0,0,0.3699421,-2283.5172,-193.18822)"
         id="path8397"
         style="fill:url(#radialGradient9817);fill-opacity:1;fill-rule:evenodd;stroke:#000000;stroke-width:1;stroke-linecap:butt;stroke-linejoin:miter;stroke-miterlimit:4;stroke-opacity:1;stroke-dashoffset:0" />
      <path
         d="m 587.9088,485.6666 c 0,80.85261 -65.61951,146.47212 -146.47212,146.47212 -80.85262,0 -146.47213,-65.61951 -146.47213,-146.47212 0,-80.85262 65.61951,-146.47213 146.47213,-146.47213 80.85261,0 146.47212,65.61951 146.47212,146.47213 z"
         transform="matrix(0.3701369,0,0,0.3701369,-2283.6032,-193.28284)"
         id="path8399"
         style="fill:none;stroke:#1a1a1a;stroke-width:4.80197334;stroke-linecap:butt;stroke-linejoin:miter;stroke-miterlimit:4;stroke-opacity:1;stroke-dashoffset:0" />
      <path
         d="m 587.9088,485.6666 c 0,80.85261 -65.61951,146.47212 -146.47212,146.47212 -80.85262,0 -146.47213,-65.61951 -146.47213,-146.47212 0,-80.85262 65.61951,-146.47213 146.47213,-146.47213 80.85261,0 146.47212,65.61951 146.47212,146.47213 z"
         transform="matrix(0.3902185,0,0,0.3902185,-2292.4679,-203.03571)"
         id="path8401"
         style="fill:none;stroke:#404040;stroke-width:12.3245039;stroke-linecap:butt;stroke-linejoin:miter;stroke-miterlimit:4;stroke-opacity:1;stroke-dashoffset:0" />
      <path
         d="m 587.9088,485.6666 c 0,80.85261 -65.61951,146.47212 -146.47212,146.47212 -80.85262,0 -146.47213,-65.61951 -146.47213,-146.47212 0,-80.85262 65.61951,-146.47213 146.47213,-146.47213 80.85261,0 146.47212,65.61951 146.47212,146.47213 z"
         transform="matrix(0.3751596,0,0,0.3751596,-2285.8204,-195.7222)"
         id="path8403"
         style="fill:none;stroke:#000000;stroke-width:1.946154;stroke-linecap:butt;stroke-linejoin:miter;stroke-miterlimit:4;stroke-opacity:1;stroke-dashoffset:0;filter:url(#filter17476)" />
      <path
         d="m 587.9088,485.6666 c 0,80.85261 -65.61951,146.47212 -146.47212,146.47212 -80.85262,0 -146.47213,-65.61951 -146.47213,-146.47212 0,-80.85262 65.61951,-146.47213 146.47213,-146.47213 80.85261,0 146.47212,65.61951 146.47212,146.47213 z"
         transform="matrix(0.3012907,0,0,0.3012907,-2253.2119,-159.84652)"
         id="path8405"
         style="fill:url(#linearGradient9819);fill-opacity:1;fill-rule:evenodd;stroke:none" />
      <path
         d="m 587.9088,485.6666 c 0,80.85261 -65.61951,146.47212 -146.47212,146.47212 -80.85262,0 -146.47213,-65.61951 -146.47213,-146.47212 0,-80.85262 65.61951,-146.47213 146.47213,-146.47213 80.85261,0 146.47212,65.61951 146.47212,146.47213 z"
         transform="matrix(0.03921839,-0.2987273,0.2987273,0.03921839,-2282.6055,99.302466)"
         id="path8451"
         style="opacity:0.52320676;fill:none;stroke:#000000;stroke-width:2.45571566;stroke-linecap:butt;stroke-linejoin:miter;stroke-miterlimit:4;stroke-opacity:1;stroke-dashoffset:0" />
      <path
         d="m 587.9088,485.6666 c 0,80.85261 -65.61951,146.47212 -146.47212,146.47212 -80.85262,0 -146.47213,-65.61951 -146.47213,-146.47212 0,-80.85262 65.61951,-146.47213 146.47213,-146.47213 80.85261,0 146.47212,65.61951 146.47212,146.47213 z"
         transform="matrix(0.3688687,0,0,0.3688687,-2283.0433,-192.66687)"
         id="path8453"
         style="fill:none;stroke:#000000;stroke-width:3.93194366;stroke-linecap:butt;stroke-linejoin:miter;stroke-miterlimit:4;stroke-opacity:1;stroke-dashoffset:0" />
      <path
         d="m 587.9088,485.6666 c 0,80.85261 -65.61951,146.47212 -146.47212,146.47212 -80.85262,0 -146.47213,-65.61951 -146.47213,-146.47212 0,-80.85262 65.61951,-146.47213 146.47213,-146.47213 80.85261,0 146.47212,65.61951 146.47212,146.47213 z"
         transform="matrix(0.04713063,-0.3589952,0.3589952,0.04713063,-2315.3683,122.06417)"
         id="path8455"
         style="opacity:0.52320676;fill:none;stroke:#000000;stroke-width:2.45571566;stroke-linecap:butt;stroke-linejoin:miter;stroke-miterlimit:4;stroke-opacity:1;stroke-dashoffset:0" />
      <path
         d="m 587.9088,485.6666 c 0,80.85261 -65.61951,146.47212 -146.47212,146.47212 -80.85262,0 -146.47213,-65.61951 -146.47213,-146.47212 0,-80.85262 65.61951,-146.47213 146.47213,-146.47213 80.85261,0 146.47212,65.61951 146.47212,146.47213 z"
         transform="matrix(0.3902185,0,0,0.3902185,-2292.4679,-203.03571)"
         id="path4913"
         style="fill:none;stroke:url(#radialGradient9821);stroke-width:12.3245039;stroke-linecap:butt;stroke-linejoin:miter;stroke-miterlimit:4;stroke-opacity:1;stroke-dashoffset:0" />
      <path
         d="m 587.9088,485.6666 c 0,80.85261 -65.61951,146.47212 -146.47212,146.47212 -80.85262,0 -146.47213,-65.61951 -146.47213,-146.47212 0,-80.85262 65.61951,-146.47213 146.47213,-146.47213 80.85261,0 146.47212,65.61951 146.47212,146.47213 z"
         transform="matrix(0.03963983,-0.3019377,0.3019377,0.03963983,-2284.3507,100.5149)"
         id="path8457"
         style="opacity:0.52320676;fill:none;stroke:#000000;stroke-width:2.45571566;stroke-linecap:butt;stroke-linejoin:miter;stroke-miterlimit:4;stroke-opacity:1;stroke-dashoffset:0;filter:url(#filter17486)" />
      <path
         d="m 4056.7725,1480.6669 c 0,579.9083 -470.6503,1050.5586 -1050.5586,1050.5586 -579.9084,0 -1050.5586,-470.6503 -1050.5586,-1050.5586 0,-579.90837 470.6502,-1050.55862 1050.5586,-1050.55862 579.9083,0 1050.5586,470.65025 1050.5586,1050.55862 z"
         transform="matrix(0.05708222,0,0,0.05708222,-2291.9682,-97.991218)"
         id="path8467"
         style="opacity:0.59235666;fill:none;stroke:#000000;stroke-width:9.77464581;stroke-linecap:round;stroke-linejoin:round;stroke-miterlimit:4;stroke-opacity:1" />
      <path
         d="m 587.9088,485.6666 c 0,80.85261 -65.61951,146.47212 -146.47212,146.47212 -80.85262,0 -146.47213,-65.61951 -146.47213,-146.47212 0,-80.85262 65.61951,-146.47213 146.47213,-146.47213 80.85261,0 146.47212,65.61951 146.47212,146.47213 z"
         transform="matrix(0.02978209,-0.2268508,0.2268508,0.02978209,-2243.2615,71.807214)"
         id="path8852"
         style="fill:none;stroke:#000000;stroke-width:3.81569743;stroke-linecap:round;stroke-linejoin:round;stroke-miterlimit:4;stroke-opacity:1;stroke-dashoffset:0;filter:url(#filter8854)" />
      <path
         d="m 587.9088,485.6666 c 0,80.85261 -65.61951,146.47212 -146.47212,146.47212 -80.85262,0 -146.47213,-65.61951 -146.47213,-146.47212 0,-80.85262 65.61951,-146.47213 146.47213,-146.47213 80.85261,0 146.47212,65.61951 146.47212,146.47213 z"
         transform="matrix(0.03856882,-0.2937795,0.2937795,0.03856882,-2279.6453,97.084569)"
         id="path8858"
         style="fill:none;stroke:#4d4d4d;stroke-width:5.89281416;stroke-linecap:round;stroke-linejoin:round;stroke-miterlimit:4;stroke-opacity:1;stroke-dashoffset:0" />
      <path
         d="m 587.9088,485.6666 c 0,80.85261 -65.61951,146.47212 -146.47212,146.47212 -80.85262,0 -146.47213,-65.61951 -146.47213,-146.47212 0,-80.85262 65.61951,-146.47213 146.47213,-146.47213 80.85261,0 146.47212,65.61951 146.47212,146.47213 z"
         transform="matrix(0.03188944,-0.2429025,0.2429025,0.03188944,-2251.9875,77.869536)"
         id="path8942"
         style="fill:none;stroke:#1a1a1a;stroke-width:3.56354523;stroke-linecap:round;stroke-linejoin:round;stroke-miterlimit:4;stroke-opacity:1;stroke-dashoffset:0" />
      <path
         d="m 587.9088,485.6666 c 0,80.85261 -65.61951,146.47212 -146.47212,146.47212 -80.85262,0 -146.47213,-65.61951 -146.47213,-146.47212 0,-80.85262 65.61951,-146.47213 146.47213,-146.47213 80.85261,0 146.47212,65.61951 146.47212,146.47213 z"
         transform="matrix(0.03760925,-0.2864704,0.2864704,0.03760925,-2275.672,94.324128)"
         id="path8944"
         style="fill:none;stroke:#1a1a1a;stroke-width:3.02158237;stroke-linecap:round;stroke-linejoin:round;stroke-miterlimit:4;stroke-opacity:1;stroke-dashoffset:0" />
      <path
         d="m 587.9088,485.6666 c 0,80.85261 -65.61951,146.47212 -146.47212,146.47212 -80.85262,0 -146.47213,-65.61951 -146.47213,-146.47212 0,-80.85262 65.61951,-146.47213 146.47213,-146.47213 80.85261,0 146.47212,65.61951 146.47212,146.47213 z"
         transform="matrix(0.03616445,-0.2754653,0.2754653,0.03616445,-2269.6894,90.167755)"
         id="path8946"
         style="fill:none;stroke:#1a1a1a;stroke-width:3.14229703;stroke-linecap:round;stroke-linejoin:round;stroke-miterlimit:4;stroke-opacity:1;stroke-dashoffset:0" />
      <path
         d="m 587.9088,485.6666 c 0,80.85261 -65.61951,146.47212 -146.47212,146.47212 -80.85262,0 -146.47213,-65.61951 -146.47213,-146.47212 0,-80.85262 65.61951,-146.47213 146.47213,-146.47213 80.85261,0 146.47212,65.61951 146.47212,146.47213 z"
         transform="matrix(0.03471965,-0.2644603,0.2644603,0.03471965,-2263.7068,86.011411)"
         id="path8948"
         style="fill:none;stroke:#1a1a1a;stroke-width:3.27305818;stroke-linecap:round;stroke-linejoin:round;stroke-miterlimit:4;stroke-opacity:1;stroke-dashoffset:0" />
      <path
         d="m -328.63631,403.09064 c 0,30.02162 -25.4022,54.38699 -56.70134,54.38699 -31.29913,0 -56.70133,-24.36537 -56.70133,-54.38699 0,-30.02163 25.4022,-54.387 56.70133,-54.387 31.29914,0 56.70134,24.36537 56.70134,54.387 z"
         transform="matrix(0.1746043,0,0,0.1746043,-2053.2321,-83.546326)"
         id="path9014"
         style="fill:url(#linearGradient9823);fill-opacity:1;stroke:none" />
      <g
         transform="matrix(0.7029675,0,0,0.7029675,-1795.3302,-484.52852)"
         id="g5064">
        <path
           d="m -461.88422,631.48481 c -21.27485,0 -38.54514,17.27028 -38.54512,38.54514 0,21.27487 17.27027,38.53788 38.54512,38.53789 21.27487,0 38.53789,-17.26302 38.53789,-38.53789 0,-21.27486 -17.26302,-38.54514 -38.53789,-38.54514 z m 0.66783,27.29374 8.27522,4.26827 2.77295,8.8995 -4.27554,8.28249 -8.89226,2.76567 -8.28247,-4.26828 -2.76566,-8.8995 4.26828,-8.28248 8.89948,-2.76567 z"
           id="path8681"
           style="fill:#000000;fill-opacity:1;fill-rule:evenodd;stroke:#000000;stroke-width:1.25010562;stroke-linecap:butt;stroke-linejoin:miter;stroke-miterlimit:4;stroke-opacity:1;stroke-dasharray:none;stroke-dashoffset:0" />
        <path
           d="m -462.15405,632.2478 c -20.85368,0 -37.7821,16.92838 -37.78206,37.78208 0,12.50466 6.09133,23.59137 15.46147,30.46758 l 20.18601,-17.97317 -7.00853,-3.41533 -27.93455,-2.34092 -0.23481,-1.13133 27.54322,2.29112 -2.5544,-7.42123 -18.60641,-21.93637 0.56922,-0.87518 18.44278,21.52369 3.40109,-7.037 2.21997,-29.34337 1.05306,-0.0996 -2.09189,28.78837 7.99043,-2.75361 0.0712,0.0356 21.21539,-19.99223 c -6.29336,-4.56927 -13.43001,-6.56907 -21.94117,-6.56907 z m 22.95472,7.35091 -20.98307,19.68 6.43065,3.49235 28.86024,0.99627 c -1.52344,-9.53386 -7.08817,-18.64305 -14.30782,-24.16862 z m -13.9112,24.39031 2.26978,7.85526 19.29661,20.24294 c 4.72534,-6.30708 7.16507,-13.57478 7.16507,-22.05734 0,-1.66863 -0.11014,-3.31206 -0.3202,-4.92376 l -28.41126,-1.1171 z m 1.76486,9.02872 -3.05271,6.83121 -2.02074,27.52186 c 9.84218,-1.5018 18.29613,-6.4516 24.09968,-14.01066 l -19.02623,-20.34241 z m -4.22674,7.20121 -7.39276,2.68957 -20.59161,18.27201 c 6.23425,4.53649 13.10842,6.62431 21.40273,6.62432 1.56816,0 3.11401,-0.0987 4.63205,-0.28461 l 1.94959,-27.30129 z"
           id="path8722"
           style="fill:url(#linearGradient9825);fill-opacity:1;fill-rule:evenodd;stroke:none" />
        <path
           d="m 587.9088,485.6666 a 146.47212,146.47212 0 1 1 -292.94425,0 146.47212,146.47212 0 1 1 292.94425,0 z"
           transform="matrix(0.2567208,0,0,0.2567208,-575.48237,545.34865)"
           id="path8667"
           style="opacity:0.82165605;fill:none;stroke:#000000;stroke-width:9.67517281;stroke-linecap:butt;stroke-linejoin:miter;stroke-miterlimit:4;stroke-opacity:1;stroke-dasharray:none;stroke-dashoffset:0;filter:url(#filter8376)" />
        <path
           d="m -462.15405,631.75104 c -20.85368,0 -37.7821,16.92838 -37.78206,37.78208 0,12.50466 6.09133,23.59136 15.46147,30.46758 l 20.18601,-17.97317 -7.00853,-3.41533 -27.93455,-2.34092 -0.23481,-1.13133 27.54322,2.29112 -2.5544,-7.42123 -18.60641,-21.93638 0.56922,-0.87517 18.44278,21.52369 3.40109,-7.037 2.21997,-29.34337 1.05306,-0.0996 -2.09189,28.78838 7.99043,-2.75361 0.0712,0.0356 21.21539,-19.99224 c -6.29336,-4.56926 -13.43001,-6.56906 -21.94117,-6.56906 z m 22.95472,7.35091 -20.98307,19.68 6.43065,3.49234 28.86024,0.99628 c -1.52344,-9.53386 -7.08817,-18.64306 -14.30782,-24.16862 z m -13.9112,24.3903 2.26978,7.85526 19.29661,20.24294 c 4.72534,-6.30707 7.16507,-13.57478 7.16507,-22.05733 0,-1.66863 -0.11014,-3.31206 -0.3202,-4.92377 l -28.41126,-1.1171 z m 1.76486,9.02872 -3.05271,6.83122 -2.02074,27.52186 c 9.84218,-1.5018 18.29613,-6.4516 24.09968,-14.01066 l -19.02623,-20.34242 z m -4.22674,7.20121 -7.39276,2.68957 -20.59161,18.27202 c 6.23425,4.53649 13.10842,6.62431 21.40273,6.62431 1.56816,0 3.11401,-0.0987 4.63205,-0.28461 l 1.94959,-27.30129 z"
           id="path8979"
           style="fill:url(#linearGradient9827);fill-opacity:1;fill-rule:evenodd;stroke:none" />
        <path
           d="m -462.15405,631.75104 c -20.85368,0 -37.7821,16.92838 -37.78206,37.78208 0,12.50466 6.09133,23.59136 15.46147,30.46758 l 20.18601,-17.97317 -7.00853,-3.41533 -27.93455,-2.34092 -0.23481,-1.13133 27.54322,2.29112 -2.5544,-7.42123 -18.60641,-21.93638 0.56922,-0.87517 18.44278,21.52369 3.40109,-7.037 2.21997,-29.34337 1.05306,-0.0996 -2.09189,28.78838 7.99043,-2.75361 0.0712,0.0356 21.21539,-19.99224 c -6.29336,-4.56926 -13.43001,-6.56906 -21.94117,-6.56906 z m 22.95472,7.35091 -20.98307,19.68 6.43065,3.49234 28.86024,0.99628 c -1.52344,-9.53386 -7.08817,-18.64306 -14.30782,-24.16862 z m -13.9112,24.3903 2.26978,7.85526 19.29661,20.24294 c 4.72534,-6.30707 7.16507,-13.57478 7.16507,-22.05733 0,-1.66863 -0.11014,-3.31206 -0.3202,-4.92377 l -28.41126,-1.1171 z m 1.76486,9.02872 -3.05271,6.83122 -2.02074,27.52186 c 9.84218,-1.5018 18.29613,-6.4516 24.09968,-14.01066 l -19.02623,-20.34242 z m -4.22674,7.20121 -7.39276,2.68957 -20.59161,18.27202 c 6.23425,4.53649 13.10842,6.62431 21.40273,6.62431 1.56816,0 3.11401,-0.0987 4.63205,-0.28461 l 1.94959,-27.30129 z"
           id="path5054"
           style="fill:url(#radialGradient9829);fill-opacity:1;fill-rule:evenodd;stroke:none" />
      </g>
      <path
         d="m 587.9088,485.6666 c 0,80.85261 -65.61951,146.47212 -146.47212,146.47212 -80.85262,0 -146.47213,-65.61951 -146.47213,-146.47212 0,-80.85262 65.61951,-146.47213 146.47213,-146.47213 80.85261,0 146.47212,65.61951 146.47212,146.47213 z"
         transform="matrix(0.03327485,-0.2534553,0.2534553,0.03327485,-2257.7242,81.855066)"
         id="path8950"
         style="fill:none;stroke:#1a1a1a;stroke-width:3.41517472;stroke-linecap:round;stroke-linejoin:round;stroke-miterlimit:4;stroke-opacity:1;stroke-dashoffset:0" />
      <path
         d="m 587.9088,485.6666 c 0,80.85261 -65.61951,146.47212 -146.47212,146.47212 -80.85262,0 -146.47213,-65.61951 -146.47213,-146.47212 0,-80.85262 65.61951,-146.47213 146.47213,-146.47213 80.85261,0 146.47212,65.61951 146.47212,146.47213 z"
         transform="matrix(-0.01682102,-0.2879784,-0.2879784,0.01682102,-1972.6538,104.93929)"
         id="path8495"
         style="fill:url(#radialGradient9831);fill-opacity:1;fill-rule:evenodd;stroke:none" />
      <path
         d="m -2161.4863,9.0770959 -0.4967,0.2521772 -0.5917,-1.1654952 -3.5192,1.7866389 1.261,0.6582462 -0.5519,0.280193 -1.2923,-0.703647 -0.2736,-0.5389156 4.0776,-2.0701311 -0.5653,-1.1135424 0.4967,-0.2521722 1.4554,2.8666482 m -4.7885,-2.5839957 -0.693,0.2961931 -0.2791,-0.652851 0.6931,-0.2961932 0.279,0.6528511 m 2.9294,-1.2520242 -0.693,0.2961932 -0.279,-0.652851 0.693,-0.2961932 0.279,0.652851 m -0.7659,-1.7998997 -0.5257,0.1844188 -0.4327,-1.2333799 -3.7242,1.3066186 1.1632,0.8189005 -0.5841,0.2049104 -1.1881,-0.8680243 -0.2001,-0.5703094 4.3151,-1.5139368 -0.4134,-1.17841018 0.5256,-0.18442254 1.0644,3.03363482 m -2.2966,-4.5296637 0.5894,-0.163561 c 0.124,-0.034401 0.2379,-0.059708 0.3417,-0.075921 0.1055,-0.019205 0.2048,-0.029121 0.2978,-0.029748 0.095,-0.00128 0.1865,0.00492 0.2734,0.018584 0.086,0.011329 0.1733,0.029995 0.2612,0.056005 l 0.1197,0.43152091 c -0.1812,-0.0630588 -0.3568,-0.10123765 -0.5268,-0.11453518 -0.1706,-0.0156311 -0.3319,-0.002357 -0.4839,0.0398337 l 0.086,0.30873037 -0.7683,0.21321867 -0.1899,-0.6841278 m -1.6191,-4.3023674 c 0.214,-0.044219 0.4184,-0.05053 0.6133,-0.018944 0.192,0.029709 0.3679,0.1011753 0.5276,0.2143896 0.1593,0.1108459 0.2981,0.2668097 0.4165,0.4678867 0.1184,0.2010819 0.208,0.4489908 0.269,0.7437402 0.061,0.2947582 0.077,0.5578988 0.048,0.789443 -0.03,0.2291583 -0.094,0.428321 -0.1925,0.5974708 -0.1018,0.1672684 -0.2347,0.3037976 -0.3987,0.4095791 -0.1669,0.1039 -0.3561,0.1777117 -0.5677,0.221444 -0.183,0.037831 -0.3515,0.04415 -0.5054,0.018958 -0.1544,-0.027569 -0.2923,-0.077139 -0.4137,-0.1487173 -0.1242,-0.07346 -0.2295,-0.1632283 -0.3159,-0.2693094 -0.089,-0.1079576 -0.1578,-0.2239095 -0.2058,-0.3478482 l -0.014,0.00295 c -0,0.1471217 -0.032,0.2841616 -0.082,0.4111135 -0.051,0.1245747 -0.1199,0.2354585 -0.2064,0.3326503 -0.089,0.095302 -0.1928,0.1761812 -0.3105,0.2426338 -0.1181,0.064075 -0.2473,0.1106033 -0.3875,0.1395908 -0.1759,0.036361 -0.348,0.037232 -0.5163,0.00261 -0.1711,-0.036501 -0.3287,-0.1092726 -0.4727,-0.2183123 -0.1463,-0.1085464 -0.2732,-0.2545874 -0.3805,-0.4381216 -0.1097,-0.1830459 -0.1914,-0.4041148 -0.2449,-0.6632115 -0.057,-0.2733573 -0.071,-0.5169972 -0.043,-0.7309196 0.027,-0.2162896 0.087,-0.4020892 0.1785,-0.5573939 0.089,-0.1571848 0.2053,-0.2840862 0.3489,-0.3806978 0.1436,-0.096607 0.3034,-0.1630837 0.4793,-0.1994498 0.1378,-0.028496 0.2739,-0.035559 0.4083,-0.02119 0.1338,0.011988 0.2609,0.045212 0.3812,0.099653 0.1174,0.052566 0.2245,0.1270885 0.3213,0.2235781 0.094,0.0946 0.1701,0.2114551 0.2286,0.3505581 l 0.014,-0.00295 c -0.01,-0.1499069 0.01,-0.2932983 0.049,-0.4301743 0.036,-0.1363742 0.097,-0.2605371 0.1833,-0.3724877 0.083,-0.1114499 0.1912,-0.208066 0.323,-0.2898448 0.1318,-0.081769 0.2881,-0.141327 0.4687,-0.1786709 m -2.2039,1.2809195 c -0.1259,0.026044 -0.2378,0.066511 -0.3355,0.1214063 -0.098,0.052524 -0.1765,0.1232406 -0.235,0.2121613 -0.061,0.089409 -0.099,0.1977173 -0.115,0.3249179 -0.018,0.1276975 -0.01,0.2783066 0.026,0.4518272 0.035,0.1687713 0.086,0.3069668 0.1526,0.4146005 0.064,0.1081181 0.1426,0.1923527 0.2344,0.2526926 0.089,0.058458 0.1891,0.093518 0.3006,0.105177 0.1114,0.011661 0.2302,0.00447 0.3561,-0.021575 0.1,-0.020632 0.1994,-0.054834 0.2986,-0.1026023 0.099,-0.047763 0.1844,-0.11496 0.2557,-0.2015838 0.071,-0.086618 0.1218,-0.1961905 0.1514,-0.3287226 0.03,-0.1325272 0.025,-0.2938743 -0.015,-0.4840365 -0.042,-0.2020456 -0.1025,-0.358033 -0.1822,-0.467966 -0.08,-0.1123015 -0.1698,-0.1916965 -0.2686,-0.2381913 -0.099,-0.048867 -0.2033,-0.071999 -0.3118,-0.069401 -0.109,2.292e-4 -0.2134,0.010658 -0.3133,0.031295 m 2.2811,-0.6016338 c -0.1212,0.025057 -0.2342,0.065771 -0.3391,0.1221412 -0.1072,0.056862 -0.1952,0.1345497 -0.2641,0.2330519 -0.071,0.099004 -0.1188,0.2228389 -0.1426,0.3715144 -0.027,0.1467952 -0.019,0.3223993 0.023,0.5268233 0.039,0.1877887 0.099,0.3425832 0.1815,0.4643996 0.079,0.1199225 0.1716,0.2123964 0.2767,0.2774116 0.1047,0.062643 0.2192,0.100937 0.3435,0.1148944 0.122,0.014451 0.2448,0.0089 0.3684,-0.01665 0.1545,-0.031937 0.292,-0.080186 0.4125,-0.1447535 0.1181,-0.06407 0.2149,-0.1472859 0.2904,-0.249645 0.073,-0.1018683 0.1207,-0.2257032 0.1426,-0.3715107 0.022,-0.1458112 0.013,-0.3149797 -0.027,-0.507524 -0.04,-0.1949128 -0.099,-0.3537694 -0.1765,-0.4765698 -0.077,-0.1227905 -0.1697,-0.2152644 -0.2767,-0.2774117 -0.1095,-0.061655 -0.2318,-0.095857 -0.367,-0.1026025 -0.1381,-0.00863 -0.2868,0.00351 -0.4461,0.036431 m -2.2999,-15.4131919 3.4342,0.442083 -0.084,0.650001 -3.4341,-0.442083 -0.071,0.54889 -0.473,-0.06089 0.071,-0.54889 -0.4405,-0.05672 c -0.1421,-0.01828 -0.2716,-0.04841 -0.3885,-0.09039 -0.1194,-0.04229 -0.2191,-0.10407 -0.2992,-0.185357 -0.082,-0.08399 -0.1407,-0.190637 -0.1754,-0.319921 -0.037,-0.129598 -0.043,-0.291894 -0.018,-0.486897 0.01,-0.07703 0.024,-0.156014 0.041,-0.236936 0.018,-0.08333 0.038,-0.155359 0.061,-0.216096 l 0.4947,0.06369 c -0.013,0.04 -0.025,0.08737 -0.037,0.142115 -0.014,0.05204 -0.024,0.09973 -0.029,0.143054 -0.012,0.0963 -0.01,0.177447 0.01,0.243446 0.019,0.0636 0.051,0.116702 0.097,0.15932 0.044,0.03991 0.1009,0.07173 0.1713,0.09547 0.071,0.02134 0.1529,0.03805 0.2468,0.05013 l 0.3503,0.04509 0.098,-0.761947 0.473,0.0609 -0.098,0.761943 m 0.5064,-1.27745 -0.5286,-0.105017 0.7061,-3.553242 0.5285,0.105016 -0.706,3.553243 m 1.8284,0.363301 -0.5285,-0.105016 0.706,-3.553243 0.5285,0.105016 -0.706,3.553243 m 1.4906,-7.821265 c 0.2468,0.07265 0.4617,0.176382 0.6447,0.311197 0.183,0.134824 0.3274,0.297519 0.4332,0.48807 0.1036,0.189874 0.1639,0.406245 0.1809,0.64911 0.018,0.240542 -0.015,0.504013 -0.1,0.790418 -0.076,0.258467 -0.1728,0.475426 -0.2902,0.650869 -0.1167,0.173122 -0.247,0.310625 -0.3909,0.412507 -0.1462,0.101205 -0.3019,0.170489 -0.4673,0.207847 -0.1646,0.03504 -0.3332,0.04487 -0.5058,0.02949 l 0.1137,-0.657273 c 0.1007,0.0018 0.2021,-0.0076 0.3043,-0.02809 0.1,-0.02121 0.1964,-0.06112 0.2896,-0.119734 0.091,-0.06162 0.1753,-0.144475 0.2515,-0.248572 0.074,-0.107096 0.1365,-0.244474 0.1858,-0.412133 0.048,-0.162991 0.067,-0.318048 0.057,-0.465171 -0.012,-0.1478 -0.053,-0.282663 -0.1238,-0.404588 -0.07,-0.124247 -0.168,-0.232891 -0.295,-0.325929 -0.127,-0.09303 -0.2824,-0.166612 -0.4664,-0.22076 -0.1513,-0.04454 -0.2971,-0.06087 -0.4372,-0.04898 -0.1425,0.01121 -0.2725,0.04885 -0.39,0.112932 -0.1199,0.0634 -0.2249,0.153929 -0.3152,0.271573 -0.09,0.115317 -0.1591,0.256806 -0.2085,0.424456 -0.031,0.104788 -0.05,0.20416 -0.057,0.298125 -0.01,0.09397 -0.01,0.184172 0,0.270602 0.011,0.08411 0.029,0.164111 0.055,0.239997 0.024,0.07288 0.052,0.142948 0.082,0.210209 l -0.181,0.61473 -2.5992,-0.943377 0.8235,-2.797716 0.5344,0.157286 -0.6549,2.224897 1.5335,0.553818 c -0.053,-0.137128 -0.085,-0.298424 -0.097,-0.483895 -0.014,-0.186158 0.014,-0.394496 0.081,-0.62502 0.072,-0.244495 0.174,-0.453572 0.3061,-0.627239 0.1321,-0.173663 0.287,-0.308968 0.4648,-0.405921 0.1755,-0.09763 0.3685,-0.155946 0.5791,-0.174952 0.2105,-0.019 0.4287,0.0047 0.6546,0.07122 m 0.7136,-4.361743 c 0.4586,0.18011 0.8277,0.375884 1.1071,0.587318 0.2781,0.208298 0.4845,0.426285 0.6194,0.653956 0.1335,0.224528 0.2021,0.454878 0.2058,0.691038 0,0.236172 -0.04,0.469478 -0.1301,0.699927 -0.091,0.232707 -0.2184,0.433188 -0.3809,0.601438 -0.1626,0.16825 -0.3692,0.289226 -0.6197,0.362923 -0.2498,0.07144 -0.5474,0.08887 -0.8929,0.05228 -0.3468,-0.03973 -0.7507,-0.150094 -1.2116,-0.331094 -0.4813,-0.188977 -0.8625,-0.38693 -1.1437,-0.593846 -0.2826,-0.210067 -0.4884,-0.426479 -0.6173,-0.649233 -0.129,-0.222757 -0.1908,-0.450443 -0.1855,-0.683061 0,-0.233498 0.051,-0.469992 0.1456,-0.709483 0.09,-0.228183 0.2119,-0.426608 0.3667,-0.595266 0.1536,-0.171794 0.3534,-0.295427 0.5994,-0.370908 0.2461,-0.07547 0.5442,-0.09403 0.8942,-0.05567 0.3478,0.03748 0.7622,0.150701 1.2435,0.339683 m -0.2436,0.620176 c -0.3795,-0.149053 -0.7036,-0.250226 -0.9721,-0.303528 -0.2708,-0.05418 -0.498,-0.06649 -0.6818,-0.03694 -0.1859,0.02867 -0.3347,0.09542 -0.4463,0.20024 -0.1129,0.101681 -0.2013,0.233856 -0.2652,0.396525 -0.067,0.171706 -0.095,0.3355 -0.084,0.491383 0.012,0.155884 0.076,0.308731 0.1916,0.458549 0.1145,0.146672 0.2894,0.292284 0.5247,0.436838 0.233,0.143674 0.5382,0.289591 0.9155,0.437757 0.366,0.143732 0.6833,0.242249 0.9518,0.295547 0.2694,0.05104 0.4982,0.06266 0.6865,0.03489 0.1868,-0.03093 0.3394,-0.09748 0.4578,-0.199641 0.1161,-0.103048 0.2065,-0.237038 0.2713,-0.401969 0.063,-0.160408 0.087,-0.317871 0.072,-0.472384 -0.017,-0.155393 -0.084,-0.306868 -0.201,-0.454433 -0.1182,-0.150699 -0.2933,-0.299018 -0.5255,-0.444945 -0.2312,-0.148187 -0.5299,-0.294149 -0.8959,-0.437885 m 3.9928,-2.459593 -2.2103,-1.163071 c -0.1697,-0.08929 -0.3171,-0.153152 -0.4423,-0.191582 -0.1251,-0.03842 -0.2356,-0.04994 -0.3315,-0.03456 -0.097,0.01211 -0.1807,0.05163 -0.2516,0.118557 -0.073,0.06581 -0.1406,0.157779 -0.2028,0.275916 -0.064,0.12244 -0.098,0.246061 -0.1005,0.370865 -0,0.123679 0.02,0.245268 0.075,0.36475 0.054,0.116209 0.1385,0.229255 0.2535,0.339125 0.114,0.106598 0.258,0.20567 0.4319,0.297225 l 2.0203,1.063041 -0.3035,0.576749 -2.742,-1.442824 c -0.073,-0.03842 -0.1498,-0.07748 -0.2304,-0.117152 -0.082,-0.04295 -0.1585,-0.082 -0.2305,-0.117153 -0.074,-0.03628 -0.1376,-0.06692 -0.1903,-0.09189 -0.053,-0.02498 -0.087,-0.04035 -0.1032,-0.04611 l 0.2882,-0.547753 c 0.012,0.0035 0.042,0.01662 0.09,0.03934 0.048,0.02272 0.1043,0.0494 0.1677,0.08002 0.062,0.02736 0.1264,0.05691 0.1919,0.08867 0.063,0.03064 0.1167,0.05725 0.1596,0.07986 l 0.01,-0.0097 c -0.074,-0.104677 -0.1357,-0.208561 -0.1857,-0.311661 -0.05,-0.103095 -0.082,-0.209069 -0.096,-0.317942 -0.015,-0.112141 -0.01,-0.227677 0.014,-0.346612 0.023,-0.122203 0.071,-0.252042 0.1432,-0.389524 0.1391,-0.264206 0.3013,-0.444874 0.4868,-0.542006 0.1867,-0.09926 0.4107,-0.118507 0.6722,-0.05771 l 0.01,-0.0097 c -0.074,-0.104673 -0.1346,-0.210703 -0.1823,-0.318102 -0.048,-0.107389 -0.077,-0.218738 -0.087,-0.334056 -0.013,-0.116431 -0.01,-0.236265 0.02,-0.359494 0.024,-0.124355 0.073,-0.255271 0.145,-0.392753 0.093,-0.17613 0.196,-0.315135 0.3099,-0.41701 0.1151,-0.104009 0.2435,-0.170834 0.3853,-0.200471 0.1418,-0.02963 0.3012,-0.02252 0.4784,0.02132 0.175,0.04272 0.3699,0.120597 0.5847,0.23362 l 2.3231,1.22241 -0.3018,0.573528 -2.2103,-1.163071 c -0.1697,-0.08929 -0.3172,-0.153146 -0.4423,-0.191577 -0.1252,-0.03842 -0.2357,-0.04994 -0.3315,-0.03456 -0.097,0.01211 -0.1808,0.05163 -0.2517,0.118551 -0.073,0.06581 -0.1406,0.15778 -0.2027,0.275917 -0.064,0.122444 -0.099,0.245503 -0.1038,0.369172 -0.01,0.122551 0.016,0.243001 0.069,0.361356 0.054,0.116213 0.1385,0.22926 0.2535,0.339125 0.1161,0.107728 0.2633,0.208503 0.4416,0.302312 l 2.0202,1.06304 -0.3018,0.573529 m 3.2164,-5.317179 -2.0368,-1.445578 c -0.1564,-0.110984 -0.294,-0.193803 -0.413,-0.24847 -0.119,-0.05466 -0.227,-0.08072 -0.324,-0.07817 -0.098,-8.26e-4 -0.186,0.02723 -0.2652,0.08418 -0.081,0.05555 -0.1602,0.137765 -0.2375,0.246625 -0.08,0.112831 -0.1297,0.230926 -0.1488,0.354286 -0.021,0.121965 -0.012,0.245809 0.027,0.371535 0.038,0.122351 0.1069,0.24559 0.2064,0.369719 0.099,0.120753 0.2284,0.238021 0.3887,0.351814 l 1.8617,1.321247 -0.3772,0.531476 -2.5268,-1.793278 c -0.067,-0.04776 -0.1382,-0.09664 -0.2129,-0.146645 -0.075,-0.05338 -0.1462,-0.10226 -0.2129,-0.146649 -0.069,-0.04578 -0.1275,-0.08454 -0.1764,-0.11628 -0.049,-0.03173 -0.081,-0.05153 -0.096,-0.05938 l 0.3583,-0.504751 c 0.011,0.005 0.039,0.02203 0.084,0.05096 0.045,0.02893 0.097,0.06278 0.1557,0.101533 0.058,0.03538 0.1177,0.07315 0.1785,0.113308 0.059,0.03877 0.108,0.0722 0.1476,0.100291 l 0.01,-0.0089 c -0.059,-0.113528 -0.1069,-0.2247 -0.1428,-0.333511 -0.036,-0.108806 -0.053,-0.218093 -0.053,-0.327855 -1e-4,-0.11315 0.02,-0.227064 0.059,-0.341744 0.039,-0.11806 0.1037,-0.240436 0.1936,-0.367122 0.1728,-0.243465 0.3575,-0.401047 0.5543,-0.472756 0.1981,-0.07367 0.4227,-0.06307 0.6739,0.03182 l 0.01,-0.0089 c -0.059,-0.113528 -0.1055,-0.226679 -0.1386,-0.339452 -0.033,-0.112761 -0.047,-0.226993 -0.043,-0.342702 0,-0.117104 0.025,-0.23498 0.068,-0.353619 0.041,-0.120038 0.1058,-0.243398 0.1957,-0.370087 0.1152,-0.162309 0.236,-0.286403 0.3624,-0.372289 0.1279,-0.08786 0.264,-0.137082 0.4084,-0.147681 0.1445,-0.01059 0.3016,0.01757 0.4714,0.08449 0.1678,0.06553 0.3507,0.168527 0.5486,0.309001 l 2.1407,1.519336 -0.3751,0.528501 -2.0368,-1.445578 c -0.1563,-0.110976 -0.294,-0.193795 -0.413,-0.248466 -0.1189,-0.05465 -0.2269,-0.08071 -0.324,-0.07817 -0.098,-8.27e-4 -0.186,0.02723 -0.2651,0.08418 -0.081,0.05555 -0.1603,0.137765 -0.2376,0.246629 -0.08,0.11283 -0.1306,0.230222 -0.1517,0.352178 -0.023,0.120558 -0.016,0.242999 0.021,0.367315 0.038,0.122352 0.107,0.245591 0.2064,0.369723 0.1008,0.122159 0.2334,0.24154 0.3977,0.358133 l 1.8616,1.321252 -0.3751,0.528505 m 10.4285,-10.725817 c -0.017,-0.01345 -0.045,-0.03861 -0.083,-0.07547 -0.038,-0.04054 -0.081,-0.08548 -0.1287,-0.134845 -0.046,-0.05096 -0.093,-0.102955 -0.1401,-0.155997 -0.045,-0.05465 -0.085,-0.103846 -0.1186,-0.1476 l -0.013,0.0096 c 0.066,0.297375 0.045,0.564568 -0.065,0.801583 -0.1091,0.233341 -0.2907,0.447873 -0.5449,0.643608 -0.2125,0.163644 -0.4306,0.261882 -0.6542,0.294707 -0.2216,0.03122 -0.4435,0.008 -0.666,-0.06962 -0.2203,-0.07924 -0.4373,-0.205865 -0.6509,-0.379864 -0.2132,-0.177685 -0.4168,-0.392575 -0.611,-0.644667 -0.1973,-0.256251 -0.3536,-0.510927 -0.4689,-0.76402 -0.1131,-0.254694 -0.1759,-0.500042 -0.1884,-0.736037 -0.014,-0.238074 0.026,-0.463434 0.1215,-0.676085 0.097,-0.214241 0.2584,-0.408004 0.4834,-0.581279 0.1104,-0.08503 0.2255,-0.155391 0.3452,-0.211098 0.1197,-0.05569 0.2418,-0.09327 0.3662,-0.112743 0.1244,-0.01946 0.2509,-0.01897 0.3795,0.0015 0.1286,0.02046 0.2588,0.06456 0.3906,0.132302 l 0.01,-0.0048 c -0.016,-0.02083 -0.04,-0.05023 -0.073,-0.08822 -0.032,-0.04166 -0.068,-0.08854 -0.1082,-0.140625 -0.04,-0.05208 -0.083,-0.105447 -0.1283,-0.160102 -0.043,-0.05624 -0.085,-0.110413 -0.1252,-0.162502 l -0.9506,-1.234404 0.8782,-0.676245 3.0034,3.900088 c 0.1267,0.164589 0.243,0.30906 0.3487,0.433412 0.1041,0.122281 0.1855,0.217227 0.2442,0.284855 l -0.85,0.654584 m -1.357,-1.678126 c -0.1717,-0.222917 -0.3345,-0.391255 -0.4885,-0.505004 -0.1555,-0.115829 -0.3006,-0.189985 -0.4351,-0.222463 -0.1341,-0.03616 -0.2577,-0.03721 -0.3709,-0.0032 -0.1127,0.03037 -0.2138,0.08004 -0.3034,0.149027 -0.1125,0.08664 -0.1956,0.185523 -0.2494,0.296657 -0.052,0.109531 -0.072,0.234439 -0.06,0.374711 0.014,0.138683 0.061,0.292969 0.1424,0.462868 0.083,0.1683 0.2041,0.355575 0.363,0.561828 0.5904,0.766687 1.1158,0.972745 1.5762,0.618174 0.088,-0.06738 0.1606,-0.153514 0.2192,-0.258402 0.059,-0.104884 0.088,-0.22859 0.088,-0.371124 -2e-4,-0.14253 -0.037,-0.304835 -0.1111,-0.486933 -0.073,-0.185772 -0.1967,-0.391167 -0.37,-0.616173 m 0.3758,-3.785219 -0.4473,-0.683032 0.9272,-0.607233 0.4473,0.683038 -0.9272,0.607227 m 2.7596,4.213691 -2.3382,-3.570251 0.9272,-0.607236 2.3382,3.570255 -0.9272,0.607232 m 4.2633,-0.599932 c -0.2464,0.135939 -0.4779,0.230679 -0.6947,0.284207 -0.2131,0.05456 -0.4112,0.07379 -0.5943,0.0577 -0.1795,-0.01507 -0.3439,-0.06253 -0.4931,-0.142389 -0.1456,-0.07882 -0.274,-0.183646 -0.3852,-0.314473 l 0.9075,-0.64947 c 0.1171,0.130586 0.2556,0.207345 0.4154,0.230275 0.1621,0.02166 0.3352,-0.01833 0.5194,-0.119971 0.1151,-0.06352 0.211,-0.137448 0.2876,-0.221765 0.079,-0.08559 0.1301,-0.185953 0.1537,-0.301074 0.027,-0.114088 0.024,-0.244608 -0.01,-0.39156 -0.031,-0.148221 -0.098,-0.315575 -0.2005,-0.502055 -0.036,-0.06447 -0.072,-0.130078 -0.1086,-0.196845 -0.037,-0.06676 -0.069,-0.128406 -0.098,-0.184937 -0.033,-0.06573 -0.066,-0.128524 -0.099,-0.188389 l -0.01,0.0038 c 0.021,0.303995 -0.042,0.566628 -0.1869,0.787906 -0.1429,0.220012 -0.3548,0.407512 -0.6357,0.562514 -0.2371,0.13086 -0.4674,0.197889 -0.6909,0.201081 -0.2225,-3.69e-4 -0.4358,-0.05232 -0.6401,-0.155821 -0.2056,-0.105814 -0.3995,-0.258587 -0.5818,-0.458316 -0.1813,-0.20331 -0.3488,-0.444248 -0.5025,-0.722821 -0.1588,-0.28778 -0.2736,-0.563814 -0.3444,-0.828107 -0.072,-0.266591 -0.096,-0.516316 -0.071,-0.749179 0.027,-0.234125 0.1055,-0.445636 0.2355,-0.634522 0.131,-0.192457 0.3209,-0.357291 0.5695,-0.494513 0.2487,-0.137206 0.5001,-0.206853 0.7542,-0.208951 0.2564,-0.0034 0.5053,0.08304 0.7467,0.259185 l 0.017,-0.0095 c -0.027,-0.04834 -0.056,-0.104231 -0.088,-0.167668 -0.031,-0.067 -0.06,-0.130549 -0.087,-0.190651 -0.028,-0.06239 -0.053,-0.11789 -0.074,-0.166482 -0.019,-0.04985 -0.03,-0.0841 -0.034,-0.102768 l 0.9186,-0.506922 c 0.041,0.08542 0.1007,0.204232 0.1787,0.356414 0.078,0.152192 0.1703,0.324982 0.277,0.518365 l 1.5227,2.75925 c 0.1499,0.271666 0.241,0.52925 0.2733,0.77274 0.034,0.245795 0.011,0.477385 -0.067,0.694767 -0.076,0.216111 -0.2061,0.418536 -0.3902,0.607265 -0.1819,0.187465 -0.4133,0.358693 -0.6941,0.513695 m -1.0752,-3.866696 c -0.1296,-0.234825 -0.2606,-0.417811 -0.393,-0.548963 -0.1325,-0.131139 -0.2616,-0.223579 -0.3873,-0.277316 -0.1258,-0.05374 -0.2478,-0.07349 -0.3661,-0.05927 -0.116,0.01296 -0.2223,0.04611 -0.319,0.09947 -0.1243,0.06861 -0.2215,0.153765 -0.2915,0.255467 -0.068,0.100443 -0.107,0.219735 -0.1179,0.357874 -0.011,0.138145 0.01,0.295022 0.062,0.47063 0.052,0.175613 0.1375,0.371622 0.2569,0.588033 0.2224,0.4029 0.4545,0.67122 0.6965,0.804972 0.242,0.133752 0.4908,0.130123 0.7464,-0.01091 0.097,-0.05336 0.182,-0.124502 0.2561,-0.213429 0.075,-0.09249 0.1246,-0.206902 0.1485,-0.343223 0.023,-0.138624 0.013,-0.30006 -0.028,-0.484333 -0.042,-0.184261 -0.1292,-0.397259 -0.2626,-0.639 m 0.9578,-3.653556 -0.3393,-0.74264 1.0081,-0.460573 0.3393,0.74264 -1.0081,0.460573 m 2.093,4.581421 -1.7734,-3.88183 1.0081,-0.460573 1.7735,3.881829 -1.0082,0.460574 m 5.6294,-2.242042 -2.7366,-1.733946 -0.4704,0.724535 0.6805,1.909744 -1.096,0.390588 -1.8656,-5.235079 1.0961,-0.390587 0.846,2.374178 1.5133,-3.214934 1.2781,-0.455465 -1.4476,3.011477 3.4952,2.158728 -1.293,0.460761 m 2.9097,-0.732064 c -0.1996,0.04704 -0.3851,0.06237 -0.5565,0.04601 -0.1694,-0.01952 -0.3215,-0.06879 -0.4563,-0.147795 -0.1353,-0.08157 -0.2509,-0.193484 -0.3465,-0.335739 -0.096,-0.142255 -0.167,-0.313207 -0.214,-0.512845 -0.058,-0.24571 -0.064,-0.461699 -0.019,-0.647963 0.047,-0.189425 0.133,-0.352812 0.2574,-0.490174 0.1237,-0.139906 0.2799,-0.256417 0.4687,-0.349526 0.1882,-0.09567 0.3946,-0.171312 0.6192,-0.226941 l 0.8909,-0.226111 -0.05,-0.211154 c -0.036,-0.151006 -0.079,-0.273102 -0.1309,-0.366293 -0.05,-0.09635 -0.1077,-0.170481 -0.1739,-0.222416 -0.066,-0.05192 -0.1409,-0.08163 -0.2237,-0.08914 -0.081,-0.01066 -0.1699,-0.0045 -0.2671,0.01837 -0.09,0.02111 -0.1681,0.04906 -0.2356,0.08386 -0.065,0.0342 -0.1175,0.08037 -0.1578,0.138491 -0.041,0.05558 -0.069,0.125672 -0.084,0.21029 -0.013,0.08146 -0.013,0.181291 0,0.299479 l -1.1376,0.211281 c -0.012,-0.188959 0.01,-0.367312 0.052,-0.535059 0.046,-0.1703 0.1282,-0.327365 0.2456,-0.471198 0.1199,-0.144428 0.2779,-0.270798 0.4739,-0.379119 0.198,-0.111472 0.439,-0.200675 0.7231,-0.267617 0.2585,-0.0609 0.4964,-0.08318 0.7137,-0.06683 0.2172,0.01635 0.4113,0.07193 0.5823,0.166726 0.1703,0.09226 0.3143,0.221775 0.4319,0.388563 0.1176,0.1668 0.2051,0.371772 0.2624,0.614916 l 0.3564,1.512646 c 0.023,0.09727 0.047,0.183384 0.073,0.258357 0.028,0.07437 0.06,0.135718 0.096,0.184038 0.038,0.04516 0.082,0.07669 0.1317,0.09459 0.052,0.01475 0.1139,0.01367 0.1856,-0.0032 0.082,-0.01929 0.1594,-0.04566 0.2326,-0.07911 l 0.1375,0.583559 c -0.06,0.03043 -0.1147,0.05808 -0.1628,0.08293 -0.048,0.02485 -0.097,0.04716 -0.1464,0.06689 -0.049,0.01974 -0.1029,0.0391 -0.1605,0.05809 -0.055,0.01838 -0.1211,0.03662 -0.1978,0.05471 -0.2714,0.06392 -0.4879,0.04471 -0.6498,-0.05763 -0.1594,-0.102938 -0.2823,-0.280648 -0.3688,-0.533126 l -0.023,0.0054 c -0.082,0.292272 -0.2194,0.536608 -0.4108,0.733008 -0.189,0.195795 -0.4434,0.331378 -0.7633,0.406755 m 0.7841,-2.296009 -0.551,0.137932 c -0.114,0.03226 -0.2216,0.06843 -0.3229,0.108505 -0.099,0.03692 -0.1833,0.08776 -0.2518,0.152523 -0.066,0.0616 -0.1129,0.140065 -0.1391,0.235376 -0.026,0.09532 -0.022,0.215921 0.012,0.361811 0.046,0.197083 0.1259,0.333696 0.2384,0.409851 0.1145,0.07299 0.2472,0.0917 0.3982,0.05612 0.1382,-0.03257 0.2567,-0.09154 0.3555,-0.176949 0.099,-0.0854 0.1753,-0.184494 0.2298,-0.297287 0.056,-0.11595 0.092,-0.241762 0.1056,-0.377428 0.014,-0.135665 0.01,-0.268762 -0.025,-0.399296 l -0.05,-0.211159 m 5.1185,1.134267 -0.2532,-2.380777 c -0.018,-0.164731 -0.045,-0.313829 -0.083,-0.447297 -0.036,-0.136358 -0.085,-0.250126 -0.1474,-0.341316 -0.06,-0.09407 -0.1351,-0.16412 -0.2246,-0.210133 -0.087,-0.04629 -0.1892,-0.06318 -0.3069,-0.05066 -0.1124,0.01196 -0.2112,0.05288 -0.2963,0.12275 -0.085,0.06726 -0.1563,0.159418 -0.2126,0.276469 -0.054,0.11416 -0.091,0.249017 -0.1116,0.404566 -0.021,0.152939 -0.022,0.319618 -0,0.500036 l 0.242,2.274877 -1.1022,0.117223 -0.3504,-3.294642 c -0.01,-0.09152 -0.021,-0.185508 -0.034,-0.281981 -0.01,-0.09675 -0.023,-0.187983 -0.037,-0.273725 -0.012,-0.08862 -0.023,-0.166785 -0.033,-0.234497 -0.01,-0.07032 -0.02,-0.122192 -0.028,-0.155637 l 1.0511,-0.111799 c 0.01,0.03083 0.019,0.08126 0.032,0.151293 0.013,0.06744 0.026,0.14271 0.04,0.225821 0.014,0.08312 0.027,0.16638 0.038,0.24977 0.014,0.08312 0.024,0.153441 0.03,0.210965 l 0.016,-0.0017 c 0.1015,-0.338694 0.2451,-0.591967 0.4309,-0.75981 0.1884,-0.168119 0.4237,-0.267197 0.7061,-0.297238 0.3243,-0.03448 0.5929,0.01759 0.806,0.156238 0.2154,0.135753 0.3731,0.350364 0.4731,0.643834 l 0.024,-0.0025 c 0.057,-0.183252 0.1227,-0.3383 0.1965,-0.465147 0.076,-0.127119 0.1631,-0.231541 0.2602,-0.313271 0.099,-0.08462 0.2089,-0.149143 0.3284,-0.193601 0.1222,-0.04472 0.2565,-0.07487 0.4029,-0.09045 0.2328,-0.02475 0.4333,-0.0038 0.6017,0.06293 0.171,0.06644 0.314,0.167582 0.429,0.303437 0.1175,0.135586 0.2091,0.300378 0.2747,0.494367 0.068,0.193725 0.1145,0.405636 0.139,0.635734 l 0.2866,2.694548 -1.0943,0.116388 -0.2532,-2.380772 c -0.018,-0.164728 -0.045,-0.31383 -0.083,-0.447298 -0.036,-0.136354 -0.085,-0.25013 -0.1474,-0.341315 -0.06,-0.09408 -0.1351,-0.164121 -0.2246,-0.210134 -0.087,-0.04629 -0.1892,-0.06318 -0.3069,-0.05066 -0.1098,0.01168 -0.2074,0.05116 -0.2928,0.118411 -0.083,0.06437 -0.153,0.152466 -0.2099,0.264285 -0.055,0.108933 -0.092,0.237252 -0.1137,0.384959 -0.021,0.147708 -0.025,0.309434 -0.012,0.485181 l 0.2474,2.325862 -1.0943,0.116392 m 17.1039,1.151157 0.6346,-2.415717 c 0.049,-0.185458 0.078,-0.343487 0.087,-0.474082 0.01,-0.130586 -0,-0.240842 -0.041,-0.330774 -0.034,-0.09165 -0.091,-0.164454 -0.1722,-0.218408 -0.081,-0.0563 -0.1854,-0.101408 -0.3146,-0.135325 -0.1338,-0.03515 -0.2618,-0.03991 -0.3839,-0.01428 -0.1216,0.02329 -0.2344,0.07522 -0.3384,0.155819 -0.101,0.07887 -0.1921,0.186701 -0.2732,0.323502 -0.078,0.135074 -0.1422,0.297685 -0.1921,0.48784 l -0.58,2.207954 -0.6303,-0.165577 0.7872,-2.996755 c 0.021,-0.07982 0.042,-0.163469 0.062,-0.25095 0.023,-0.08921 0.044,-0.172855 0.062,-0.250947 0.019,-0.08044 0.034,-0.149127 0.047,-0.206093 0.012,-0.05695 0.02,-0.09396 0.022,-0.111016 l 0.5987,0.157253 c -8e-4,0.01236 -0.01,0.04467 -0.018,0.09693 -0.011,0.05227 -0.025,0.112746 -0.04,0.181442 -0.013,0.06697 -0.027,0.135976 -0.043,0.207021 -0.015,0.0687 -0.03,0.126525 -0.042,0.173474 l 0.011,0.0028 c 0.085,-0.09553 0.1725,-0.179273 0.2617,-0.25122 0.089,-0.07194 0.1852,-0.127023 0.2881,-0.165248 0.1059,-0.03995 0.2194,-0.06156 0.3408,-0.06483 0.1242,-0.005 0.2615,0.01224 0.4118,0.0517 0.2887,0.07585 0.5013,0.193189 0.6378,0.352 0.1388,0.159443 0.2081,0.373391 0.2078,0.641847 l 0.011,0.0028 c 0.085,-0.09554 0.1749,-0.178664 0.2688,-0.249374 0.094,-0.07071 0.1958,-0.124249 0.3057,-0.160623 0.1105,-0.03872 0.2288,-0.0591 0.3548,-0.06113 0.1267,-0.0044 0.2651,0.01317 0.4154,0.05263 0.1925,0.05057 0.3512,0.119867 0.4761,0.207896 0.1273,0.08865 0.2214,0.19869 0.2823,0.330109 0.061,0.131425 0.09,0.288379 0.087,0.470853 -0,0.180131 -0.034,0.387577 -0.096,0.622341 l -0.667,2.538967 -0.6268,-0.164655 0.6346,-2.415714 c 0.049,-0.185457 0.078,-0.343486 0.087,-0.474081 0.01,-0.130587 -0,-0.240846 -0.041,-0.330774 -0.034,-0.09166 -0.091,-0.164459 -0.1722,-0.218412 -0.081,-0.05629 -0.1854,-0.101408 -0.3146,-0.135325 -0.1338,-0.03515 -0.2615,-0.04108 -0.383,-0.0178 -0.121,0.02094 -0.2331,0.07053 -0.3365,0.148781 -0.101,0.07887 -0.1921,0.186701 -0.2732,0.323502 -0.079,0.137419 -0.1437,0.303551 -0.1949,0.498404 l -0.58,2.207949 -0.6268,-0.164651 m 4.6787,1.53353 c -0.3693,-0.141858 -0.6094,-0.345908 -0.7204,-0.612138 -0.1109,-0.266239 -0.1011,-0.569288 0.029,-0.909173 0.093,-0.242444 0.2146,-0.423308 0.3644,-0.542572 0.153,-0.120659 0.3201,-0.19689 0.5013,-0.228689 0.1835,-0.03093 0.3769,-0.02683 0.5803,0.01229 0.2034,0.03912 0.4045,0.09428 0.6034,0.165464 l 0.8311,0.30364 0.077,-0.200528 c 0.058,-0.151814 0.092,-0.287063 0.1012,-0.405745 0.01,-0.118678 -0.01,-0.223493 -0.047,-0.314441 -0.041,-0.09095 -0.1049,-0.170299 -0.1933,-0.238054 -0.085,-0.06915 -0.1947,-0.129395 -0.3284,-0.180748 -0.1178,-0.04526 -0.2278,-0.07709 -0.33,-0.09553 -0.1012,-0.02069 -0.1957,-0.02187 -0.2833,-0.0035 -0.087,0.01607 -0.1665,0.05436 -0.2391,0.11486 -0.072,0.05824 -0.1367,0.142526 -0.1947,0.252863 l -0.6168,-0.303215 c 0.078,-0.136309 0.1724,-0.252328 0.2819,-0.348053 0.1105,-0.09799 0.2405,-0.168969 0.39,-0.212954 0.1517,-0.04311 0.324,-0.05495 0.5167,-0.03552 0.1959,0.01803 0.4185,0.07492 0.6677,0.170653 0.4623,0.177556 0.7692,0.417647 0.9208,0.720281 0.1524,0.300372 0.1516,0.651085 -0,1.052147 l -0.6083,1.583844 c -0.07,0.181269 -0.099,0.327492 -0.087,0.438672 0.013,0.108906 0.086,0.189038 0.2197,0.240388 0.034,0.01306 0.069,0.02385 0.1045,0.03237 0.036,0.0085 0.071,0.01548 0.1051,0.02086 l -0.1462,0.380669 c -0.084,-0.01146 -0.1662,-0.02746 -0.2468,-0.04799 -0.078,-0.01966 -0.1604,-0.04603 -0.2465,-0.0791 -0.1156,-0.04439 -0.2096,-0.09741 -0.2821,-0.159064 -0.069,-0.06306 -0.1184,-0.135183 -0.147,-0.216379 -0.028,-0.08346 -0.038,-0.175733 -0.03,-0.276809 0.01,-0.10335 0.033,-0.217503 0.073,-0.342469 l -0.02,-0.0078 c -0.1109,0.09258 -0.2243,0.17123 -0.3402,0.235938 -0.1136,0.06557 -0.2356,0.112328 -0.3659,0.140273 -0.1295,0.02567 -0.268,0.03096 -0.4156,0.01587 -0.1454,-0.01423 -0.3042,-0.05442 -0.4764,-0.120561 m 0.3156,-0.40531 c 0.1949,0.07485 0.3783,0.105001 0.5503,0.09046 0.1752,-0.01593 0.3316,-0.06114 0.4694,-0.135612 0.1401,-0.07361 0.2592,-0.166981 0.3573,-0.280126 0.098,-0.113142 0.1701,-0.229759 0.2162,-0.349851 l 0.1162,-0.302493 -0.6748,-0.243588 c -0.1504,-0.05517 -0.2975,-0.09868 -0.4413,-0.130504 -0.1406,-0.03322 -0.2728,-0.04109 -0.3965,-0.02361 -0.1237,0.01748 -0.2358,0.06545 -0.3361,0.143917 -0.098,0.07933 -0.1789,0.201709 -0.2424,0.367118 -0.077,0.199397 -0.083,0.37393 -0.018,0.523595 0.067,0.150537 0.2001,0.264102 0.3995,0.340691 m 5.1442,2.030252 c -0.2199,0.173447 -0.4444,0.264976 -0.6733,0.274586 -0.2268,0.01068 -0.4732,-0.04904 -0.7393,-0.179135 -0.447,-0.218614 -0.7026,-0.53009 -0.767,-0.934437 -0.062,-0.40328 0.056,-0.910184 0.3547,-1.520716 0.6036,-1.234142 1.3393,-1.638999 2.2071,-1.214573 0.2682,0.131167 0.4677,0.289531 0.5985,0.475099 0.1308,0.185566 0.1985,0.411848 0.203,0.678857 l 0.01,0.0032 c 0.011,-0.0218 0.026,-0.05613 0.046,-0.102989 0.023,-0.04797 0.046,-0.09756 0.069,-0.148782 0.026,-0.05233 0.05,-0.101386 0.072,-0.147181 0.022,-0.04579 0.038,-0.07849 0.048,-0.09812 l 0.6703,-1.370423 0.5887,0.287924 -2.0171,4.12436 c -0.042,0.08504 -0.082,0.166807 -0.12,0.245301 -0.036,0.07956 -0.069,0.152585 -0.099,0.219067 -0.03,0.06648 -0.055,0.124241 -0.077,0.173275 -0.02,0.04686 -0.034,0.08063 -0.041,0.101325 l -0.5625,-0.275136 c 0.01,-0.02394 0.017,-0.0566 0.032,-0.09798 0.018,-0.0425 0.038,-0.09098 0.059,-0.145443 0.023,-0.0534 0.048,-0.108973 0.073,-0.166732 0.027,-0.05994 0.054,-0.118258 0.081,-0.174948 l -0.013,-0.0064 m -1.1972,-2.077 c -0.1194,0.24421 -0.2065,0.461002 -0.2613,0.650366 -0.055,0.189368 -0.076,0.357276 -0.064,0.503716 0.013,0.144265 0.059,0.268152 0.1385,0.371672 0.079,0.103518 0.1938,0.192072 0.3442,0.265647 0.1549,0.07572 0.3034,0.117293 0.4457,0.124725 0.1444,0.0085 0.2831,-0.02365 0.416,-0.09647 0.1361,-0.07393 0.2691,-0.191252 0.3991,-0.351966 0.1299,-0.160716 0.2589,-0.371905 0.3868,-0.633562 0.1227,-0.25075 0.2054,-0.472387 0.2482,-0.664906 0.044,-0.194698 0.052,-0.365199 0.023,-0.511501 -0.028,-0.146295 -0.09,-0.271134 -0.1856,-0.374511 -0.092,-0.104488 -0.2145,-0.194059 -0.3672,-0.268707 -0.1439,-0.07038 -0.2804,-0.10609 -0.4096,-0.107131 -0.1292,-0.001 -0.2559,0.03699 -0.38,0.114064 -0.1242,0.07708 -0.2474,0.196489 -0.3698,0.358225 -0.1191,0.160623 -0.2405,0.367403 -0.3642,0.620335 m 3.7717,2.109358 c -0.1067,0.176607 -0.1876,0.350376 -0.2426,0.52131 -0.052,0.170103 -0.073,0.331767 -0.063,0.484982 0.013,0.152394 0.06,0.294484 0.1424,0.426262 0.083,0.129706 0.208,0.24475 0.3743,0.345136 0.2431,0.146819 0.4668,0.21532 0.6712,0.205505 0.2065,-0.0086 0.3809,-0.07196 0.5232,-0.190179 l 0.4077,0.43764 c -0.092,0.07216 -0.1987,0.136591 -0.3208,0.193265 -0.1188,0.05585 -0.2544,0.09022 -0.4068,0.1031 -0.1512,0.0108 -0.3218,-0.0072 -0.5119,-0.05393 -0.1868,-0.04758 -0.3924,-0.139134 -0.6167,-0.274653 -0.4987,-0.301166 -0.7892,-0.679359 -0.8716,-1.134586 -0.08,-0.453976 0.057,-0.97392 0.4104,-1.559845 0.1908,-0.315819 0.3915,-0.558964 0.6022,-0.72945 0.212,-0.172554 0.4279,-0.285986 0.6479,-0.340302 0.2199,-0.05431 0.4395,-0.05637 0.6587,-0.0062 0.2205,0.0481 0.4347,0.134887 0.6424,0.260371 0.2826,0.170658 0.4908,0.358793 0.6247,0.564402 0.1359,0.206868 0.2121,0.42584 0.2285,0.656922 0.02,0.230256 -0.012,0.468897 -0.096,0.715926 -0.082,0.248277 -0.1994,0.49916 -0.3524,0.752642 l -0.045,0.0748 -2.406,-1.453106 m 2.086,0.672912 c 0.1835,-0.374118 0.2493,-0.687382 0.1976,-0.939798 -0.051,-0.254489 -0.216,-0.466433 -0.4965,-0.635837 -0.093,-0.05647 -0.2016,-0.100489 -0.3243,-0.13207 -0.1193,-0.0324 -0.2459,-0.03651 -0.3796,-0.01234 -0.1337,0.02417 -0.2708,0.08456 -0.4114,0.181138 -0.1393,0.09451 -0.2746,0.241062 -0.4059,0.439661 l 1.8201,1.099243 m 2.4889,4.708315 c -0.3085,-0.247701 -0.475,-0.515243 -0.4995,-0.802628 -0.024,-0.287386 0.077,-0.573029 0.3051,-0.856936 0.1627,-0.202519 0.3335,-0.337735 0.5125,-0.405655 0.1825,-0.06829 0.3648,-0.08995 0.5471,-0.06499 0.1842,0.02648 0.3672,0.08935 0.549,0.188611 0.1818,0.09926 0.3565,0.213103 0.5242,0.341528 l 0.699,0.542551 0.1345,-0.167503 c 0.1018,-0.126809 0.1752,-0.24533 0.2201,-0.355563 0.045,-0.110234 0.062,-0.214832 0.051,-0.313784 -0.011,-0.09896 -0.048,-0.194178 -0.1115,-0.285643 -0.06,-0.09184 -0.146,-0.182596 -0.2577,-0.272257 -0.098,-0.07901 -0.1935,-0.142867 -0.2851,-0.191555 -0.09,-0.05058 -0.1797,-0.08049 -0.2688,-0.08975 -0.088,-0.01115 -0.1751,0.001 -0.2628,0.03649 -0.086,0.03359 -0.1736,0.09409 -0.2624,0.181497 l -0.495,-0.476807 c 0.1162,-0.105932 0.241,-0.187781 0.3746,-0.245551 0.135,-0.05965 0.2805,-0.08763 0.4363,-0.08395 0.1576,0.0052 0.3253,0.04644 0.503,0.123711 0.181,0.0769 0.3756,0.198923 0.5839,0.366076 0.3861,0.310014 0.6052,0.632236 0.6573,0.966671 0.054,0.332547 -0.054,0.66632 -0.3231,1.001328 l -1.0622,1.323004 c -0.1216,0.151415 -0.1936,0.281879 -0.2162,0.391397 -0.021,0.107616 0.024,0.206262 0.136,0.29592 0.028,0.02279 0.058,0.04369 0.09,0.06271 0.031,0.019 0.063,0.03631 0.094,0.0519 l -0.2553,0.317978 c -0.077,-0.03653 -0.15,-0.07684 -0.2204,-0.120937 -0.068,-0.04257 -0.1388,-0.09274 -0.2107,-0.150482 -0.096,-0.07751 -0.1699,-0.15667 -0.2202,-0.237502 -0.047,-0.08121 -0.072,-0.164839 -0.074,-0.250891 -0,-0.08795 0.017,-0.178896 0.056,-0.272836 0.04,-0.09584 0.098,-0.19714 0.174,-0.303906 l -0.017,-0.01368 c -0.1339,0.05435 -0.2659,0.09467 -0.3959,0.120985 -0.1282,0.02783 -0.2586,0.03518 -0.3913,0.02205 -0.1311,-0.01501 -0.2647,-0.05221 -0.4007,-0.111587 -0.1341,-0.05786 -0.273,-0.144531 -0.4169,-0.260024 m 0.4242,-0.289811 c 0.1627,0.130686 0.3282,0.215326 0.4965,0.253909 0.1716,0.03821 0.3344,0.04286 0.4884,0.01394 0.1558,-0.0274 0.2977,-0.08003 0.4256,-0.157894 0.1279,-0.07786 0.2321,-0.166954 0.3126,-0.267264 l 0.2029,-0.25268 -0.5684,-0.437695 c -0.1264,-0.0984 -0.2533,-0.18468 -0.3805,-0.258823 -0.1238,-0.07452 -0.2473,-0.122311 -0.3705,-0.14338 -0.1232,-0.02107 -0.2445,-0.0095 -0.364,0.03461 -0.1176,0.04566 -0.2318,0.137576 -0.3428,0.275744 -0.1337,0.166558 -0.1926,0.330977 -0.1765,0.493249 0.018,0.163792 0.1101,0.312554 0.2767,0.446283 m 4.9337,3.493798 c -0.1272,0.133564 -0.2674,0.227953 -0.4206,0.283168 -0.1498,0.05513 -0.3082,0.07184 -0.4752,0.05014 -0.1654,-0.02347 -0.3386,-0.08451 -0.5195,-0.183138 -0.1775,-0.09872 -0.3585,-0.23597 -0.5431,-0.41177 -0.1652,-0.15738 -0.302,-0.312878 -0.4104,-0.46648 -0.1084,-0.150176 -0.1859,-0.301099 -0.2325,-0.452767 -0.047,-0.151674 -0.061,-0.305848 -0.042,-0.462527 0.022,-0.156767 0.081,-0.316998 0.1764,-0.480701 l 0.497,0.317598 c -0.1053,0.191402 -0.129,0.383402 -0.071,0.576005 0.06,0.190845 0.2018,0.393424 0.4268,0.607728 0.1019,0.09711 0.2018,0.178814 0.2995,0.245125 0.1,0.06798 0.1959,0.114574 0.2893,0.139782 0.095,0.02345 0.1859,0.02296 0.2729,-0.0015 0.09,-0.02451 0.1758,-0.07894 0.2561,-0.163299 0.082,-0.08611 0.1288,-0.175657 0.1403,-0.268647 0.013,-0.09475 0,-0.194896 -0.036,-0.300447 -0.037,-0.105547 -0.095,-0.220895 -0.1732,-0.346041 -0.075,-0.125226 -0.1583,-0.26313 -0.2495,-0.413726 -0.086,-0.1387 -0.1673,-0.280081 -0.2446,-0.424141 -0.077,-0.14406 -0.1332,-0.289494 -0.1677,-0.43631 -0.031,-0.146896 -0.032,-0.291948 -0,-0.435153 0.029,-0.143201 0.1082,-0.282467 0.2371,-0.417782 0.2478,-0.260094 0.5284,-0.369903 0.8419,-0.329426 0.3168,0.0404 0.6528,0.229695 1.0078,0.567902 0.3145,0.299695 0.5114,0.5928 0.5904,0.879315 0.081,0.288193 0.03,0.577864 -0.1541,0.869026 l -0.4772,-0.354129 c 0.055,-0.08888 0.084,-0.178014 0.089,-0.267407 0.01,-0.09114 -0.01,-0.180119 -0.037,-0.266924 -0.03,-0.08856 -0.076,-0.174981 -0.1402,-0.25928 -0.06,-0.08438 -0.131,-0.165075 -0.2119,-0.242091 -0.2144,-0.204261 -0.4035,-0.322436 -0.5674,-0.354521 -0.1639,-0.03208 -0.3086,0.01778 -0.4342,0.149582 -0.074,0.07732 -0.1163,0.159049 -0.1279,0.245173 -0.01,0.08604 0,0.178448 0.038,0.27722 0.037,0.09868 0.09,0.206418 0.1597,0.323186 0.072,0.115017 0.151,0.240998 0.2384,0.377944 0.057,0.09132 0.1144,0.186081 0.1717,0.28427 0.059,0.09643 0.1103,0.195622 0.154,0.297577 0.047,0.101869 0.083,0.204867 0.1079,0.30899 0.028,0.104044 0.039,0.208507 0.033,0.313377 -0.01,0.104873 -0.032,0.209367 -0.077,0.31348 -0.044,0.105792 -0.1143,0.209649 -0.2114,0.311578 m 8.632,8.840836 c -0.3361,0.217816 -0.6733,0.366939 -1.0116,0.447385 -0.3371,0.08247 -0.6628,0.09541 -0.9771,0.03882 -0.3144,-0.0566 -0.6103,-0.182967 -0.8878,-0.379118 -0.2776,-0.196162 -0.5252,-0.462283 -0.743,-0.79837 -0.2297,-0.354428 -0.3761,-0.700698 -0.439,-1.038815 -0.061,-0.339447 -0.05,-0.661794 0.033,-0.967053 0.085,-0.30658 0.2345,-0.593128 0.4494,-0.859646 0.2149,-0.266514 0.4842,-0.50472 0.8081,-0.714619 0.3361,-0.217809 0.6699,-0.367654 1.0016,-0.44953 0.3316,-0.08187 0.6509,-0.09355 0.9578,-0.03503 0.309,0.0572 0.6002,0.185193 0.8736,0.383984 0.2769,0.199516 0.5268,0.471389 0.7499,0.815629 0.2218,0.342198 0.3665,0.679365 0.4343,1.01149 0.069,0.334157 0.066,0.652904 -0.01,0.956244 -0.074,0.305373 -0.2161,0.592693 -0.4263,0.861965 -0.2102,0.269269 -0.4813,0.511487 -0.8133,0.726664 m -0.3861,-0.595795 c 0.2587,-0.167655 0.4722,-0.353734 0.6404,-0.55824 0.1696,-0.202473 0.2876,-0.417727 0.3538,-0.645779 0.068,-0.226016 0.08,-0.461156 0.037,-0.705432 -0.043,-0.244268 -0.1451,-0.491674 -0.3074,-0.742221 -0.1664,-0.256647 -0.353,-0.455325 -0.5599,-0.596029 -0.2068,-0.140705 -0.4279,-0.22739 -0.6631,-0.260073 -0.2339,-0.03063 -0.4779,-0.0099 -0.732,0.0622 -0.2527,0.07415 -0.5085,0.195045 -0.7672,0.362695 -0.2586,0.167654 -0.4748,0.354032 -0.6485,0.559147 -0.1703,0.205823 -0.2923,0.423724 -0.366,0.653697 -0.07,0.23069 -0.087,0.470153 -0.051,0.718388 0.04,0.248949 0.141,0.498691 0.3033,0.749236 0.1743,0.268869 0.3679,0.471679 0.5809,0.608425 0.2143,0.138775 0.4391,0.220131 0.6745,0.244058 0.2387,0.02464 0.4851,-0.0035 0.7393,-0.08433 0.2555,-0.07882 0.5106,-0.200735 0.7652,-0.365746 m 3.6393,4.820865 c -0.2,0.09944 -0.4036,0.15871 -0.611,0.177807 -0.2041,0.02019 -0.4033,-0.0041 -0.5974,-0.07292 -0.1909,-0.06771 -0.3725,-0.182072 -0.5448,-0.343094 -0.1722,-0.161027 -0.3238,-0.37302 -0.4545,-0.635994 l -0.6713,-1.349636 -1.7897,0.890103 -0.3097,-0.622655 4.5934,-2.284446 0.9614,1.933173 c 0.1351,0.27167 0.2192,0.525311 0.2524,0.76094 0.035,0.234543 0.026,0.449458 -0.029,0.644735 -0.053,0.194195 -0.1478,0.367673 -0.286,0.520438 -0.136,0.151675 -0.3073,0.27886 -0.5137,0.381546 m -0.3179,-0.622673 c 0.2913,-0.144843 0.4675,-0.343657 0.5289,-0.596452 0.064,-0.253871 0.01,-0.559024 -0.1707,-0.915452 l -0.6144,-1.235533 -1.8126,0.901458 0.6274,1.261613 c 0.1784,0.358601 0.3885,0.58212 0.6304,0.670564 0.2429,0.09061 0.5133,0.06188 0.811,-0.0862 m -2.4993,3.155744 4.8092,-1.785889 1.3549,3.648672 -0.5324,0.19773 -1.1129,-2.99676 -1.5427,0.572902 1.0368,2.791972 -0.5257,0.195192 -1.0368,-2.791972 -1.6758,0.622337 1.1648,3.136697 -0.5325,0.19773 -1.4069,-3.788611 m 2.4866,7.919936 3.5754,-3.720501 c -0.1143,0.03348 -0.227,0.06784 -0.3383,0.10309 -0.095,0.02878 -0.197,0.05785 -0.3047,0.08721 -0.1048,0.03113 -0.1985,0.05697 -0.2809,0.07752 l -3.3067,0.824276 -0.1497,-0.600576 4.9777,-1.240816 0.1955,0.784279 -3.5966,3.755813 c 0,-9e-6 0.1137,-0.03584 0.341,-0.107501 0.098,-0.02937 0.2037,-0.0608 0.3179,-0.09427 0.1166,-0.03407 0.2279,-0.06431 0.3339,-0.09072 l 3.2643,-0.813713 0.1515,0.607643 -4.9778,1.240821 -0.2025,-0.812547 m 2.4984,7.944417 c -0.2152,0.01909 -0.4172,-0.0056 -0.6061,-0.07417 -0.1886,-0.06613 -0.3571,-0.180327 -0.5055,-0.342608 -0.146,-0.162502 -0.2683,-0.373408 -0.3669,-0.632708 -0.096,-0.257112 -0.1599,-0.566995 -0.1921,-0.929659 -0.056,-0.635879 0.011,-1.141386 0.2018,-1.516531 0.1909,-0.375144 0.4924,-0.629733 0.9045,-0.763762 l 0.1937,0.659032 c -0.13,0.04565 -0.2462,0.108351 -0.3488,0.188117 -0.1026,0.07977 -0.1885,0.182427 -0.2578,0.307976 -0.067,0.127751 -0.1139,0.281803 -0.1418,0.462166 -0.028,0.180353 -0.031,0.393841 -0.01,0.640455 0.018,0.205508 0.052,0.392597 0.1009,0.561259 0.052,0.16844 0.119,0.311101 0.2025,0.427979 0.083,0.11687 0.185,0.204111 0.3046,0.261734 0.1223,0.05982 0.2632,0.08265 0.4228,0.0685 0.1668,-0.01481 0.2988,-0.0655 0.3959,-0.152086 0.097,-0.08417 0.1737,-0.198168 0.2292,-0.341983 0.055,-0.143824 0.098,-0.313272 0.1267,-0.50835 0.029,-0.195079 0.06,-0.411035 0.092,-0.647859 0.019,-0.145437 0.04,-0.292296 0.063,-0.440576 0.026,-0.146082 0.059,-0.287864 0.097,-0.425347 0.042,-0.135279 0.092,-0.264056 0.1522,-0.386326 0.06,-0.122275 0.1343,-0.230013 0.2235,-0.32321 0.092,-0.09342 0.1994,-0.169986 0.3233,-0.229707 0.1262,-0.05994 0.274,-0.09741 0.4432,-0.112422 0.2418,-0.02145 0.4528,0.0086 0.633,0.09005 0.1829,0.08369 0.3377,0.207636 0.4644,0.371855 0.1266,0.164214 0.2258,0.362538 0.2976,0.594979 0.072,0.23244 0.1199,0.48647 0.1444,0.7621 0.028,0.31673 0.027,0.589769 -0,0.81913 -0.028,0.229139 -0.085,0.425479 -0.1707,0.589013 -0.085,0.163528 -0.1978,0.297768 -0.3371,0.402731 -0.1367,0.107159 -0.2993,0.197118 -0.4878,0.269891 l -0.1802,-0.6712 c 0.1203,-0.04479 0.2259,-0.104111 0.3168,-0.177966 0.091,-0.07144 0.1648,-0.162042 0.2208,-0.271795 0.056,-0.109758 0.094,-0.241088 0.115,-0.393988 0.021,-0.150494 0.022,-0.326074 0,-0.526744 -0.021,-0.236946 -0.06,-0.434483 -0.1184,-0.59261 -0.055,-0.155934 -0.1235,-0.280243 -0.2048,-0.372938 -0.081,-0.09028 -0.1732,-0.152781 -0.2762,-0.187502 -0.1003,-0.03253 -0.2073,-0.04375 -0.321,-0.03367 -0.1523,0.01351 -0.2747,0.06213 -0.3672,0.145878 -0.09,0.08595 -0.1616,0.197101 -0.2153,0.333448 -0.054,0.136353 -0.095,0.292287 -0.123,0.467813 -0.028,0.175521 -0.056,0.361925 -0.082,0.559206 -0.022,0.160376 -0.046,0.319645 -0.071,0.477814 -0.022,0.160375 -0.054,0.314244 -0.094,0.461611 -0.038,0.147151 -0.087,0.285489 -0.1459,0.415019 -0.059,0.131943 -0.1352,0.248355 -0.2286,0.349246 -0.093,0.100878 -0.2067,0.182816 -0.34,0.245817 -0.1331,0.06541 -0.2928,0.10638 -0.4789,0.122895 m 1.0855,5.9890801 c -0.4004,-0.010716 -0.7628,-0.078689 -1.0872,-0.2039212 -0.3245,-0.1228083 -0.6003,-0.2965149 -0.8274,-0.5211199 -0.2271,-0.224613 -0.3995,-0.496328 -0.5173,-0.81513 -0.1177,-0.318815 -0.1712,-0.678393 -0.1605,-1.078751 0.011,-0.422195 0.087,-0.790471 0.2262,-1.104819 0.142,-0.31429 0.3335,-0.573832 0.5745,-0.778634 0.2434,-0.204733 0.5292,-0.356129 0.8572,-0.45419 0.3279,-0.09806 0.6848,-0.141932 1.0706,-0.131608 0.4004,0.01071 0.7604,0.0762 1.0802,0.196446 0.3197,0.120249 0.5895,0.291366 0.8094,0.51336 0.2223,0.222049 0.3899,0.492416 0.5027,0.811096 0.1153,0.321171 0.1674,0.686789 0.1564,1.096853 -0.011,0.40763 -0.082,0.767509 -0.2146,1.079632 -0.1323,0.314549 -0.3153,0.575531 -0.5491,0.782954 -0.2338,0.209841 -0.5136,0.3662546 -0.8393,0.4692373 -0.3257,0.1029765 -0.6863,0.1491735 -1.0818,0.1385948 m 0.019,-0.7097221 c 0.3081,0.0082 0.5894,-0.02429 0.8439,-0.09761 0.2545,-0.0709 0.4735,-0.181589 0.6572,-0.332064 0.1837,-0.148063 0.3271,-0.33484 0.4302,-0.560318 0.1032,-0.225491 0.1588,-0.487453 0.1668,-0.785895 0.01,-0.305734 -0.033,-0.575151 -0.1241,-0.808251 -0.091,-0.233109 -0.224,-0.429713 -0.3994,-0.589802 -0.1755,-0.157672 -0.3884,-0.278701 -0.6386,-0.363098 -0.2504,-0.08197 -0.5296,-0.127083 -0.8378,-0.13533 -0.3081,-0.0082 -0.5918,0.02301 -0.8511,0.09378 -0.2569,0.07325 -0.4808,0.183809 -0.6718,0.331673 -0.1885,0.150353 -0.338,0.338179 -0.4485,0.563469 -0.108,0.227781 -0.1661,0.490894 -0.1741,0.789345 -0.01,0.320284 0.036,0.597075 0.1344,0.830377 0.098,0.235726 0.2374,0.43006 0.4179,0.583008 0.1828,0.155433 0.4018,0.271779 0.6571,0.349031 0.2553,0.07967 0.5346,0.123562 0.8379,0.131686 m -3.0878,3.6217514 c 0.041,-0.2785796 0.1169,-0.5372874 0.228,-0.776116 0.1111,-0.2388372 0.2586,-0.4416611 0.4425,-0.6084715 0.186,-0.1640598 0.4072,-0.2837033 0.6636,-0.3589267 0.2588,-0.074872 0.5538,-0.08799 0.8853,-0.039349 l 3.2312,0.4742407 -0.1009,0.6880435 -3.1737,-0.4657767 c -0.2569,-0.03772 -0.4804,-0.036174 -0.6704,0.00464 -0.1879,0.043562 -0.3473,0.1182973 -0.4782,0.2242101 -0.1308,0.1059166 -0.2348,0.2378467 -0.312,0.3958041 -0.075,0.160703 -0.1273,0.3407191 -0.1565,0.5400472 -0.029,0.1969244 -0.03,0.3869225 -0,0.5699941 0.027,0.1830629 0.089,0.3490989 0.1845,0.498107 0.096,0.1489993 0.2308,0.2742935 0.4048,0.3758876 0.176,0.1043359 0.3973,0.1760657 0.6639,0.215198 l 3.1268,0.4589047 -0.1004,0.6844393 -3.1665,-0.4647236 c -0.3386,-0.049697 -0.6245,-0.1493099 -0.8577,-0.2988375 -0.2311,-0.146782 -0.4143,-0.3282146 -0.5494,-0.5442977 -0.1351,-0.2161004 -0.2232,-0.4596392 -0.2644,-0.7306349 -0.042,-0.2685995 -0.041,-0.549395 0,-0.8423817 m -1.4146,6.81006442 2.4009,-0.74033558 0.4108,-1.54465634 -2.0584,-0.5474707 0.1788,-0.672049 4.9577,1.3186043 -0.6205,2.33281744 c -0.075,0.28148096 -0.1738,0.5213926 -0.2969,0.71973617 -0.1214,0.20130309 -0.2627,0.35962559 -0.424,0.47496759 -0.1613,0.1153371 -0.3401,0.1883114 -0.5367,0.2189318 -0.1965,0.03061 -0.405,0.016597 -0.6255,-0.042044 -0.1572,-0.041805 -0.3057,-0.106441 -0.4457,-0.1939044 -0.1406,-0.085125 -0.2612,-0.1937906 -0.3616,-0.3259993 -0.1005,-0.13221372 -0.1762,-0.28672158 -0.2271,-0.46351991 -0.051,-0.17680702 -0.067,-0.3769333 -0.048,-0.60037014 l -2.5101,0.83937587 0.2059,-0.7740838 m 3.5589,0.84106069 c 0.1501,0.039923 0.2871,0.0487505 0.4111,0.0264727 0.124,-0.0222914 0.2354,-0.0730215 0.3343,-0.15219521 0.1013,-0.0785608 0.1883,-0.18353002 0.2609,-0.31490881 0.075,-0.13076595 0.1361,-0.28528845 0.1836,-0.46355881 l 0.4239,-1.59391441 -1.8297,-0.4866397 -0.4314,1.62206527 c -0.051,0.19234763 -0.072,0.36513136 -0.062,0.51835988 0.012,0.15383639 0.048,0.28655936 0.1088,0.39816021 0.06,0.11394251 0.1421,0.20730846 0.2458,0.28010903 0.103,0.0751335 0.2214,0.13048388 0.3552,0.16604982 m -0.5926,4.65580149 c 0.1064,-0.2711259 0.1557,-0.529492 0.1478,-0.7750923 -0.01,-0.2433491 -0.069,-0.4690162 -0.1801,-0.6769963 -0.1122,-0.2057277 -0.2716,-0.3908684 -0.4781,-0.5554246 -0.2066,-0.1645661 -0.4534,-0.3031735 -0.7403,-0.4158333 -0.287,-0.1126623 -0.5653,-0.1776027 -0.8349,-0.1948186 -0.2683,-0.014065 -0.5167,0.017486 -0.7452,0.094669 -0.2293,0.079439 -0.4327,0.2055888 -0.6101,0.3784496 -0.1783,0.1751219 -0.3193,0.3948555 -0.4231,0.6592009 -0.073,0.1852639 -0.1151,0.3629043 -0.1271,0.5329089 -0.011,0.1731518 0,0.3380325 0.044,0.4946334 0.039,0.1588619 0.1,0.3103755 0.1814,0.4545483 0.084,0.1450492 0.1845,0.2836903 0.3021,0.4159135 l -0.4719,0.4249013 c -0.1448,-0.1559425 -0.2692,-0.3273357 -0.3731,-0.5141785 -0.104,-0.1868514 -0.1787,-0.3883052 -0.2243,-0.6043687 -0.046,-0.2138111 -0.06,-0.442025 -0.04,-0.6846491 0.021,-0.239478 0.084,-0.4925227 0.1886,-0.7591253 0.1517,-0.3863511 0.3457,-0.7012999 0.5822,-0.9448541 0.2378,-0.2404069 0.5049,-0.415868 0.8012,-0.5263857 0.2977,-0.1073667 0.617,-0.1501904 0.9579,-0.1284749 0.3409,0.021719 0.691,0.1031068 1.0502,0.2441565 0.3728,0.1463713 0.6895,0.3293827 0.9501,0.5490442 0.2597,0.2219139 0.456,0.4723996 0.5889,0.7514719 0.1343,0.2822048 0.2012,0.5900888 0.2006,0.9236446 0,0.3344359 -0.07,0.6869234 -0.2157,1.0574636 -0.1996,0.5083517 -0.4658,0.8940807 -0.7985,1.1571782 -0.3328,0.2630964 -0.7261,0.3981164 -1.18,0.4050676 l 0.037,-0.6932513 c 0.1307,-8.407e-4 0.262,-0.019705 0.3938,-0.056602 0.1341,-0.036016 0.2633,-0.096108 0.3876,-0.1802839 0.1244,-0.084185 0.2409,-0.1949069 0.3495,-0.3321657 0.1078,-0.1350152 0.2007,-0.3019302 0.2788,-0.5007477 m -5.5301,1.1779811 4.5401,2.3885327 -1.8122,3.4445262 -0.5026,-0.26445 1.4883,-2.8290914 -1.4564,-0.7662287 -1.3867,2.6357581 -0.4962,-0.261062 1.3867,-2.6357524 -1.5821,-0.8323468 -1.5579,2.9611982 -0.5027,-0.264446 1.8817,-3.5766379 m -18.0565,19.9216229 0.6377,-0.415122 1.9143,1.786268 c 0.052,0.04433 0.1137,0.101226 0.1849,0.170681 0.069,0.07077 0.1372,0.139515 0.2038,0.206231 0.079,0.07626 0.1582,0.156244 0.2387,0.23994 -0.041,-0.103464 -0.081,-0.206569 -0.1188,-0.309314 -0.034,-0.0879 -0.068,-0.180171 -0.102,-0.276813 -0.036,-0.09533 -0.066,-0.179816 -0.091,-0.25347 l -0.8353,-2.471227 0.6347,-0.413137 3.0737,2.699801 -0.5432,0.353548 -2.0183,-1.879306 c -0.045,-0.03753 -0.097,-0.08623 -0.1559,-0.146126 -0.058,-0.05786 -0.1152,-0.114705 -0.1718,-0.170534 -0.063,-0.066 -0.1288,-0.133369 -0.1967,-0.202116 0.034,0.0879 0.066,0.174422 0.095,0.259571 0.025,0.07366 0.05,0.148332 0.076,0.224022 0.026,0.07569 0.047,0.138866 0.062,0.18953 l 0.8777,2.656503 -0.5889,0.383345 -2.0525,-1.891805 c -0.049,-0.04362 -0.103,-0.09371 -0.1629,-0.150241 -0.06,-0.05654 -0.1163,-0.109669 -0.169,-0.159394 -0.061,-0.05857 -0.1232,-0.118166 -0.1858,-0.178769 0.034,0.08789 0.067,0.173753 0.098,0.257586 0.027,0.07232 0.055,0.146693 0.084,0.223096 0.029,0.07976 0.053,0.150716 0.073,0.21288 l 0.8771,2.62216 -0.5371,0.349576 -1.2031,-3.917364 m -4.7624,2.521612 0.6807,-0.340218 1.6996,1.991605 c 0.047,0.04994 0.1015,0.113447 0.1644,0.190531 0.061,0.07816 0.1205,0.154151 0.1791,0.22798 0.07,0.08467 0.1395,0.173152 0.21,0.265436 -0.029,-0.107473 -0.057,-0.214401 -0.083,-0.32078 -0.024,-0.09119 -0.047,-0.186718 -0.07,-0.286581 -0.025,-0.09879 -0.046,-0.186175 -0.062,-0.262161 l -0.55,-2.549938 0.6774,-0.338588 2.7481,3.030582 -0.5797,0.289753 -1.7924,-2.095827 c -0.04,-0.04235 -0.086,-0.09662 -0.1384,-0.162848 -0.051,-0.06405 -0.1015,-0.127018 -0.1514,-0.188897 -0.055,-0.07274 -0.1129,-0.147104 -0.1726,-0.223095 0.024,0.09119 0.046,0.180739 0.065,0.268674 0.016,0.07599 0.033,0.153061 0.051,0.231221 0.017,0.07815 0.031,0.14329 0.041,0.195394 l 0.5712,2.738823 -0.6286,0.314166 -1.825,-2.11211 c -0.043,-0.04886 -0.092,-0.104767 -0.1448,-0.167729 -0.053,-0.06297 -0.1032,-0.122137 -0.1498,-0.177504 -0.054,-0.06514 -0.1091,-0.131362 -0.1645,-0.198671 0.024,0.09118 0.047,0.180202 0.068,0.267044 0.018,0.0749 0.038,0.151972 0.059,0.231225 0.019,0.0825 0.036,0.155769 0.049,0.219823 l 0.5744,2.704625 -0.5732,0.286495 -0.7517,-4.02843 m -5.0161,1.96952 0.714,-0.263241 1.4701,2.166545 c 0.041,0.05477 0.088,0.123928 0.1425,0.207468 0.052,0.08438 0.1028,0.166477 0.1529,0.246307 0.06,0.0918 0.1195,0.187449 0.1795,0.286937 -0.017,-0.110046 -0.033,-0.21937 -0.047,-0.327966 -0.014,-0.09327 -0.026,-0.190781 -0.038,-0.292548 -0.014,-0.100936 -0.025,-0.190057 -0.033,-0.267373 l -0.2661,-2.594977 0.7106,-0.261983 2.3979,3.314596 -0.6081,0.224201 -1.5509,-2.280353 c -0.035,-0.0465 -0.075,-0.105532 -0.1196,-0.177081 -0.044,-0.06928 -0.087,-0.137416 -0.1297,-0.204416 -0.047,-0.07839 -0.096,-0.158633 -0.147,-0.24073 0.014,0.09326 0.025,0.184658 0.035,0.274202 0.01,0.07732 0.016,0.15577 0.025,0.23537 0.01,0.07959 0.015,0.14582 0.019,0.198684 l 0.2663,2.785041 -0.6593,0.243091 -1.5815,-2.300125 c -0.038,-0.05334 -0.08,-0.114218 -0.1256,-0.182657 -0.046,-0.06844 -0.089,-0.132738 -0.1293,-0.192905 -0.047,-0.07071 -0.094,-0.142568 -0.1416,-0.215556 0.014,0.09326 0.027,0.184235 0.039,0.27294 0.01,0.07648 0.021,0.155231 0.033,0.236265 0.01,0.08414 0.018,0.158769 0.024,0.223863 l 0.2733,2.751412 -0.6013,0.221677 -0.3038,-4.086688 m -1.3361,0.379331 0.2186,0.766823 -0.6828,0.194602 -0.2186,-0.766819 0.6828,-0.194606 m -4.1172,1.659204 c 0.066,-0.27224 0.1859,-0.482844 0.36,-0.631806 0.1718,-0.148455 0.4025,-0.253663 0.6921,-0.315619 0.4866,-0.104112 0.88,-0.01703 1.1803,0.261257 0.298,0.278795 0.518,0.75049 0.6602,1.415086 0.2875,1.343425 -0.041,2.116199 -0.9858,2.318337 -0.2919,0.06247 -0.5466,0.06112 -0.7641,-0.004 -0.2175,-0.06517 -0.4105,-0.20136 -0.5789,-0.408574 l -0.01,0.0015 c 0.01,0.02374 0.014,0.06027 0.027,0.109613 0.011,0.05221 0.024,0.105363 0.038,0.159454 0.012,0.05696 0.024,0.110363 0.034,0.160208 0.011,0.04985 0.018,0.08545 0.023,0.106814 l 0.3192,1.491777 -0.6409,0.13712 -0.9606,-4.489567 c -0.02,-0.09257 -0.039,-0.181579 -0.057,-0.267021 -0.021,-0.08494 -0.04,-0.162763 -0.057,-0.233458 -0.018,-0.0707 -0.033,-0.131905 -0.047,-0.183613 -0.013,-0.04934 -0.023,-0.08443 -0.03,-0.105284 l 0.6123,-0.13103 c 0.01,0.02271 0.022,0.05493 0.036,0.09664 0.012,0.04459 0.026,0.09486 0.043,0.150807 0.015,0.05646 0.03,0.115288 0.045,0.176494 0.016,0.06358 0.031,0.126226 0.044,0.187936 l 0.014,-0.0031 m 2.2243,0.894259 c -0.057,-0.265841 -0.1222,-0.490146 -0.1961,-0.672917 -0.074,-0.182774 -0.1608,-0.328003 -0.2608,-0.435681 -0.099,-0.105311 -0.2122,-0.174257 -0.3384,-0.206842 -0.1261,-0.03259 -0.271,-0.03136 -0.4348,0.0037 -0.1685,0.03606 -0.311,0.0951 -0.4275,0.177118 -0.1189,0.08252 -0.2081,0.193449 -0.2676,0.332783 -0.062,0.142215 -0.094,0.316651 -0.097,0.523307 -0,0.206652 0.026,0.452389 0.087,0.737217 0.058,0.272959 0.1302,0.498364 0.2155,0.676231 0.086,0.180231 0.1849,0.319102 0.2976,0.41662 0.1127,0.09751 0.2385,0.157475 0.3773,0.179902 0.137,0.02529 0.2886,0.02017 0.4547,-0.01538 0.1567,-0.03352 0.2861,-0.08977 0.3884,-0.168736 0.1022,-0.07897 0.1784,-0.187106 0.2284,-0.324401 0.05,-0.137309 0.073,-0.307339 0.07,-0.510094 -0.01,-0.199875 -0.038,-0.437479 -0.097,-0.712809 m -3.2879,3.489314 0.093,0.619362 -0.6482,0.09685 -0.092,-0.619362 0.6481,-0.09685 m -0.7059,-4.724428 0.5822,3.896209 -0.6482,0.09685 -0.5822,-3.896212 0.6482,-0.09685 m -3.2659,-1.160099 c 0.225,-0.01938 0.4264,-0.01361 0.6045,0.01733 0.1781,0.03094 0.3326,0.08463 0.4634,0.161053 0.1306,0.07401 0.2397,0.166934 0.3273,0.278764 0.088,0.111825 0.1546,0.238831 0.201,0.38101 l -0.6485,0.150898 c -0.059,-0.177619 -0.1666,-0.308438 -0.3225,-0.392458 -0.1585,-0.08623 -0.3586,-0.11892 -0.6005,-0.09808 -0.1475,0.01272 -0.2799,0.04484 -0.3973,0.09637 -0.1174,0.05154 -0.2144,0.126892 -0.2911,0.226083 -0.077,0.09677 -0.1321,0.219691 -0.1656,0.368746 -0.033,0.14906 -0.041,0.327577 -0.023,0.535553 l 0.054,0.631177 0.01,-6.22e-4 c 0.04,-0.103322 0.092,-0.204057 0.1567,-0.302201 0.062,-0.09552 0.1426,-0.182834 0.2405,-0.261925 0.095,-0.07888 0.2091,-0.14593 0.3408,-0.20113 0.1319,-0.05278 0.2849,-0.08668 0.459,-0.101683 0.2491,-0.02147 0.4667,0.0012 0.6527,0.068 0.1838,0.06942 0.3398,0.182672 0.4678,0.339737 0.1256,0.157273 0.2257,0.356952 0.3001,0.59904 0.072,0.244707 0.1225,0.530294 0.1506,0.856768 0.027,0.314382 0.026,0.59951 -0,0.855393 -0.032,0.256083 -0.098,0.476189 -0.1989,0.660316 -0.1033,0.186751 -0.2441,0.334095 -0.4224,0.442044 -0.1805,0.110564 -0.4049,0.177422 -0.6734,0.200558 -0.2781,0.02397 -0.5242,-0.01938 -0.7384,-0.130036 -0.2164,-0.108045 -0.3903,-0.274555 -0.5218,-0.499542 l -0.01,6.28e-4 c 0.01,0.06045 0.01,0.12827 0.014,0.20345 0,0.07538 0,0.145824 0.01,0.21133 0,0.06813 0,0.126583 5e-4,0.175369 -7e-4,0.04878 -0,0.07701 -0.01,0.08469 l -0.6203,0.05346 c 5e-4,-0.02197 -3e-4,-0.05967 -0,-0.113075 -0,-0.051 -0,-0.112875 -0.01,-0.185629 -0,-0.07276 -0.01,-0.153984 -0.014,-0.243665 -0.01,-0.08706 -0.015,-0.17775 -0.023,-0.272056 l -0.2585,-2.999916 c -0.047,-0.548954 0.053,-0.972946 0.2996,-1.27198 0.2445,-0.301243 0.6448,-0.475832 1.201,-0.523766 m -0.6919,3.589794 c 0.024,0.273264 0.074,0.504022 0.1511,0.692282 0.075,0.190875 0.166,0.343819 0.2734,0.458817 0.1073,0.114991 0.2264,0.196092 0.3572,0.243295 0.1283,0.04741 0.2578,0.06548 0.3883,0.05423 0.1669,-0.01438 0.3083,-0.0558 0.4242,-0.124263 0.1135,-0.06825 0.2047,-0.168698 0.2737,-0.301325 0.067,-0.130008 0.111,-0.294612 0.1329,-0.493828 0.02,-0.196593 0.018,-0.430316 -0.01,-0.701163 -0.024,-0.282946 -0.063,-0.519587 -0.116,-0.70992 -0.055,-0.187715 -0.1265,-0.337484 -0.2141,-0.44931 -0.088,-0.11183 -0.1928,-0.18803 -0.3157,-0.228599 -0.1229,-0.04057 -0.2665,-0.05377 -0.431,-0.0396 -0.1306,0.01126 -0.2551,0.05001 -0.3737,0.116261 -0.1209,0.06646 -0.2258,0.16442 -0.3145,0.293878 -0.089,0.129462 -0.1551,0.292321 -0.1991,0.488582 -0.044,0.196255 -0.054,0.429807 -0.031,0.700662 m -1.7109,2.885647 0.015,0.626061 -0.6552,0.01556 -0.015,-0.626055 0.6552,-0.01557 m -0.1135,-4.775527 0.094,3.938353 -0.6552,0.01557 -0.094,-3.938357 0.6552,-0.01557 m -4.1313,-0.04301 1.2711,1.842556 0.4938,-0.380418 0.047,-1.40095 0.655,0.02211 -0.1824,5.400036 -0.655,-0.02211 0.1139,-3.3732 -1.7929,1.852026 -0.7678,-0.02592 1.6546,-1.638126 -1.6054,-2.301924 0.7678,0.02592 m -2.2482,-0.266187 c 0.3929,0.04641 0.6759,0.184949 0.8491,0.415603 0.1732,0.230655 0.2384,0.526763 0.1957,0.888346 -0.03,0.257922 -0.1036,0.463146 -0.2194,0.615674 -0.1184,0.154647 -0.2616,0.269723 -0.4294,0.345229 -0.1702,0.07522 -0.3586,0.118938 -0.5654,0.131181 -0.2067,0.01224 -0.4153,0.0084 -0.6256,-0.01157 l -0.8803,-0.08933 -0.025,0.21333 c -0.019,0.1615 -0.018,0.300892 0,0.41818 0.02,0.11728 0.061,0.214997 0.123,0.293161 0.062,0.07816 0.1437,0.13918 0.2461,0.183045 0.1,0.04599 0.2206,0.07739 0.3628,0.09419 0.1253,0.0148 0.2398,0.01854 0.3433,0.01122 0.1032,-0.0049 0.1951,-0.02707 0.2755,-0.06645 0.08,-0.03698 0.1479,-0.09374 0.2034,-0.170282 0.055,-0.07414 0.097,-0.171817 0.1263,-0.293046 l 0.6725,0.14177 c -0.042,0.151426 -0.1048,0.287025 -0.1874,0.406817 -0.083,0.122189 -0.1913,0.223031 -0.3254,0.30252 -0.1364,0.07921 -0.3004,0.133149 -0.492,0.161848 -0.1943,0.03082 -0.424,0.03057 -0.6892,-7.54e-4 -0.4917,-0.05809 -0.8484,-0.215095 -1.0699,-0.471007 -0.2218,-0.253515 -0.3075,-0.593595 -0.2571,-1.020254 l 0.1991,-1.68495 c 0.023,-0.192842 0.015,-0.341669 -0.024,-0.446478 -0.039,-0.102399 -0.1299,-0.161998 -0.2722,-0.1788 -0.036,-0.0043 -0.073,-0.0061 -0.1093,-0.0056 -0.037,5.45e-4 -0.072,0.0024 -0.107,0.0057 l 0.048,-0.40497 c 0.084,-0.0096 0.1679,-0.01438 0.251,-0.01434 0.081,-2.41e-4 0.1668,0.005 0.2584,0.01587 0.1229,0.01452 0.2271,0.04272 0.3126,0.08459 0.083,0.044 0.1481,0.101812 0.1958,0.173444 0.048,0.07404 0.08,0.160985 0.098,0.260823 0.017,0.102249 0.022,0.218888 0.014,0.349905 l 0.022,0.0026 c 0.085,-0.117093 0.1752,-0.221273 0.2716,-0.312546 0.094,-0.09156 0.2005,-0.166949 0.32,-0.226169 0.1191,-0.0568 0.2521,-0.09609 0.3988,-0.11786 0.1444,-0.02205 0.3082,-0.02226 0.4914,-6.15e-4 m -0.2059,0.470617 c -0.2073,-0.02449 -0.3925,-0.0085 -0.5556,0.04802 -0.1658,0.05863 -0.3063,0.141024 -0.4215,0.247177 -0.1176,0.105872 -0.21,0.225719 -0.2771,0.359551 -0.067,0.133829 -0.1083,0.264625 -0.1234,0.392381 l -0.038,0.321803 0.714,0.06968 c 0.1594,0.01638 0.3127,0.02227 0.4599,0.01766 0.1445,-0.0025 0.2745,-0.02745 0.3901,-0.0749 0.1156,-0.04746 0.2124,-0.121573 0.2903,-0.222354 0.075,-0.101071 0.1236,-0.239588 0.1444,-0.415557 0.025,-0.212122 -0.012,-0.38273 -0.1119,-0.511815 -0.102,-0.129374 -0.2591,-0.206592 -0.4712,-0.231648 m -5.1668,-1.284297 -0.5634,2.433285 c -0.043,0.186807 -0.068,0.345613 -0.073,0.476425 -0.01,0.1308 0.012,0.240609 0.051,0.329424 0.036,0.09063 0.096,0.161717 0.1786,0.213264 0.082,0.05391 0.1883,0.09593 0.3184,0.126045 0.1348,0.03121 0.2629,0.03221 0.3842,0.003 0.1209,-0.02684 0.2321,-0.08206 0.3336,-0.165673 0.099,-0.0818 0.1866,-0.192253 0.2636,-0.33137 0.074,-0.137304 0.1334,-0.301729 0.1778,-0.493267 l 0.515,-2.224002 0.6349,0.147022 -0.699,3.018544 c -0.019,0.0804 -0.037,0.164616 -0.055,0.252663 -0.021,0.08985 -0.039,0.174077 -0.055,0.25266 -0.016,0.08095 -0.03,0.150067 -0.041,0.207374 -0.011,0.0573 -0.017,0.0945 -0.018,0.1116 l -0.603,-0.139628 c 4e-4,-0.01237 0.01,-0.04485 0.015,-0.09742 0.01,-0.05257 0.021,-0.113419 0.035,-0.18254 0.011,-0.06731 0.023,-0.13671 0.037,-0.20819 0.014,-0.06913 0.026,-0.127343 0.037,-0.17463 l -0.011,-0.0025 c -0.082,0.09799 -0.1672,0.184252 -0.2543,0.258787 -0.087,0.07452 -0.1813,0.132393 -0.2831,0.173623 -0.1046,0.04303 -0.2175,0.06796 -0.3387,0.07479 -0.1241,0.0086 -0.2618,-0.0046 -0.4131,-0.03961 -0.2909,-0.06736 -0.5069,-0.178405 -0.6479,-0.333149 -0.1434,-0.155296 -0.219,-0.367121 -0.2266,-0.635476 l -0.011,-0.0025 c -0.082,0.098 -0.1696,0.183712 -0.2614,0.257147 -0.092,0.07343 -0.192,0.129932 -0.3009,0.169519 -0.1093,0.04194 -0.227,0.06577 -0.3529,0.07151 -0.1264,0.0081 -0.2653,-0.0054 -0.4166,-0.04043 -0.194,-0.0449 -0.3546,-0.10952 -0.4821,-0.193849 -0.1298,-0.08488 -0.2271,-0.192108 -0.2918,-0.321692 -0.065,-0.129588 -0.098,-0.28562 -0.1009,-0.468097 -0,-0.180116 0.023,-0.388406 0.077,-0.624874 l 0.5922,-2.557431 0.6313,0.146202 -0.5634,2.43328 c -0.043,0.186812 -0.068,0.345618 -0.073,0.476425 -0.01,0.130805 0.012,0.240614 0.051,0.329423 0.036,0.09063 0.096,0.161723 0.1786,0.213273 0.082,0.05391 0.1883,0.09592 0.3184,0.126042 0.1348,0.03121 0.2626,0.0334 0.3834,0.0066 0.1203,-0.02447 0.2309,-0.07733 0.332,-0.158578 0.099,-0.0818 0.1865,-0.192258 0.2636,-0.331372 0.075,-0.13967 0.1347,-0.30764 0.1802,-0.503908 l 0.515,-2.224002 0.6313,0.146197 m -3.9596,-1.071682 -0.2473,0.758044 -0.675,-0.220175 0.2473,-0.758049 0.675,0.22018 m -5.6245,0.0069 c 0.2565,-0.639859 0.5883,-1.059927 0.9955,-1.260201 0.4072,-0.200282 0.8788,-0.192951 1.415,0.02198 0.2546,0.102056 0.4668,0.231569 0.6367,0.388547 0.1698,0.156977 0.2929,0.342322 0.3694,0.556025 0.074,0.2128 0.1011,0.452386 0.081,0.718751 -0.024,0.267717 -0.1,0.562669 -0.2292,0.884851 -0.5057,1.261681 -1.3049,1.673519 -2.3977,1.235518 -0.2838,-0.113796 -0.5125,-0.251208 -0.6859,-0.412245 -0.1757,-0.161947 -0.2972,-0.347959 -0.3647,-0.55805 -0.07,-0.210995 -0.089,-0.44742 -0.057,-0.70927 0.032,-0.261858 0.1108,-0.550492 0.2372,-0.86591 m 0.6388,0.256028 c -0.1138,0.283879 -0.1852,0.527221 -0.2142,0.730034 -0.031,0.201903 -0.026,0.375214 0.015,0.519928 0.039,0.143814 0.111,0.261508 0.2155,0.353087 0.1036,0.09382 0.232,0.171443 0.3852,0.232859 0.1554,0.06231 0.3057,0.0951 0.4509,0.09836 0.1419,0.0046 0.2794,-0.0318 0.4125,-0.109226 0.1321,-0.07518 0.2588,-0.195656 0.3802,-0.361436 0.1191,-0.16669 0.2342,-0.38859 0.3453,-0.665709 0.1138,-0.283879 0.1834,-0.529253 0.2088,-0.736122 0.024,-0.204613 0.016,-0.37928 -0.025,-0.523995 -0.044,-0.145617 -0.115,-0.264441 -0.2141,-0.356463 -0.1014,-0.09292 -0.2219,-0.167383 -0.3616,-0.223378 -0.1554,-0.06231 -0.3048,-0.09735 -0.4481,-0.10512 -0.1443,-0.0055 -0.2824,0.02932 -0.4146,0.104491 -0.1321,0.07518 -0.2593,0.196783 -0.3815,0.364816 -0.1223,0.168038 -0.2403,0.393995 -0.3541,0.677874 m -0.6532,-2.458536 -1.3192,2.718811 c -0.036,0.07425 -0.072,0.150118 -0.1064,0.22761 -0.038,0.07861 -0.074,0.154486 -0.1064,0.227609 -0.033,0.07312 -0.063,0.141881 -0.092,0.206275 -0.029,0.06439 -0.054,0.12222 -0.076,0.173517 l -0.5569,-0.270198 c 0.022,-0.05129 0.048,-0.110223 0.078,-0.176792 0.026,-0.06546 0.055,-0.132556 0.086,-0.201313 0.028,-0.06981 0.058,-0.136387 0.089,-0.199716 0.028,-0.06221 0.052,-0.115149 0.073,-0.158826 l -0.013,-0.0064 c -0.1071,0.11526 -0.2075,0.210902 -0.301,0.286923 -0.097,0.07714 -0.1923,0.132016 -0.2863,0.164616 -0.095,0.03478 -0.1938,0.04627 -0.296,0.03447 -0.1032,-0.0096 -0.2171,-0.04464 -0.3416,-0.105041 -0.048,-0.02331 -0.092,-0.04993 -0.1312,-0.07985 -0.04,-0.02775 -0.071,-0.05072 -0.092,-0.06892 l 0.2623,-0.540489 c 0.034,0.02999 0.076,0.05989 0.1264,0.08969 0.049,0.03198 0.1066,0.06387 0.1721,0.09566 0.1354,0.06569 0.266,0.09127 0.3918,0.07676 0.1235,-0.01558 0.2424,-0.06314 0.3565,-0.142656 0.1109,-0.0784 0.2171,-0.18605 0.3186,-0.322953 0.1004,-0.134722 0.1936,-0.290528 0.2794,-0.467413 l 0.8964,-1.847486 0.5896,0.286095 m -2.7472,-3.1727 c 0.1956,0.11265 0.3576,0.23256 0.486,0.359738 0.1285,0.127181 0.2245,0.259516 0.2882,0.397013 0.065,0.135397 0.1013,0.274012 0.1093,0.415839 0.01,0.141835 -0.01,0.284328 -0.053,0.427494 l -0.6183,-0.24683 c 0.053,-0.179559 0.04,-0.348351 -0.04,-0.506381 -0.081,-0.161334 -0.2263,-0.302572 -0.4366,-0.423699 -0.1283,-0.07389 -0.2554,-0.123236 -0.3811,-0.148044 -0.1258,-0.0248 -0.2485,-0.01843 -0.3682,0.0191 -0.1184,0.03544 -0.2339,0.104751 -0.3466,0.207939 -0.1126,0.103193 -0.221,0.245236 -0.3252,0.426135 l -0.3161,0.548996 0.01,0.0036 c 0.092,-0.06201 0.1921,-0.114815 0.3013,-0.15841 0.1058,-0.0427 0.2215,-0.0685 0.347,-0.07742 0.1235,-0.01013 0.2551,-2.03e-4 0.3946,0.02976 0.1384,0.03208 0.2833,0.09172 0.4348,0.178928 0.2167,0.124765 0.3822,0.267721 0.4967,0.428872 0.1111,0.162042 0.1744,0.344101 0.1896,0.546167 0.013,0.200852 -0.019,0.421885 -0.096,0.663084 -0.081,0.242091 -0.2026,0.505119 -0.3662,0.78908 -0.1574,0.273448 -0.3212,0.506832 -0.4914,0.700159 -0.1722,0.192105 -0.3524,0.334815 -0.5406,0.428122 -0.1915,0.0942 -0.3913,0.134624 -0.5992,0.121292 -0.2113,-0.01245 -0.4337,-0.0859 -0.6672,-0.220346 -0.2419,-0.139298 -0.4191,-0.315562 -0.5316,-0.52879 -0.1158,-0.21234 -0.1634,-0.448383 -0.1426,-0.708134 l -0.01,-0.0036 c -0.03,0.05258 -0.065,0.110874 -0.1049,0.17487 -0.042,0.06279 -0.08,0.121967 -0.1149,0.17755 -0.038,0.05647 -0.071,0.10453 -0.1,0.144179 -0.028,0.03965 -0.047,0.06141 -0.054,0.0653 l -0.5396,-0.3107 c 0.013,-0.01771 0.034,-0.04911 0.063,-0.09417 0.028,-0.04296 0.061,-0.09539 0.099,-0.157283 0.038,-0.06189 0.081,-0.131144 0.128,-0.207763 0.044,-0.07572 0.089,-0.154601 0.1363,-0.236634 l 1.5026,-2.609321 c 0.2749,-0.477476 0.5992,-0.768282 0.9729,-0.872414 0.3728,-0.10744 0.8011,-0.02187 1.2849,0.256722 m -2.6197,2.550052 c -0.1369,0.23769 -0.2275,0.455813 -0.2718,0.654373 -0.048,0.199446 -0.06,0.377032 -0.038,0.532764 0.022,0.155724 0.074,0.29032 0.154,0.403792 0.078,0.112255 0.1741,0.201087 0.2877,0.266501 0.1452,0.08357 0.2848,0.130406 0.4191,0.140484 0.1321,0.0089 0.2644,-0.0214 0.3968,-0.0908 0.1291,-0.06851 0.2595,-0.178272 0.3913,-0.32927 0.1284,-0.150111 0.2605,-0.342954 0.3961,-0.578538 0.1418,-0.246102 0.2453,-0.462375 0.3106,-0.648823 0.062,-0.185554 0.089,-0.349239 0.081,-0.491071 -0.01,-0.141827 -0.051,-0.264506 -0.1284,-0.368029 -0.078,-0.103527 -0.188,-0.196474 -0.331,-0.278837 -0.1136,-0.06541 -0.238,-0.104811 -0.3731,-0.118212 -0.1372,-0.0146 -0.2793,0.0058 -0.4261,0.06136 -0.1468,0.05551 -0.2943,0.151211 -0.4426,0.287098 -0.1483,0.135887 -0.2902,0.321629 -0.4259,0.557213"
         id="text4113"
         style="font-size:12px;font-style:normal;font-weight:normal;fill:#ffffff;fill-opacity:1;stroke:none;font-family:Liberation Sans" />
      <path
         d="m 4056.7725,1480.6669 c 0,579.9083 -470.6503,1050.5586 -1050.5586,1050.5586 -579.9084,0 -1050.5586,-470.6503 -1050.5586,-1050.5586 0,-579.90837 470.6502,-1050.55862 1050.5586,-1050.55862 579.9083,0 1050.5586,470.65025 1050.5586,1050.55862 z"
         transform="matrix(0.05674937,0,0,0.056649,-2291.1082,-96.892916)"
         id="path5014"
         style="opacity:0.3;fill:none;stroke:#ffffff;stroke-width:9.77464581;stroke-linecap:round;stroke-linejoin:round;stroke-miterlimit:4;stroke-opacity:1;filter:url(#filter5016)" />
      <path
         d="m 587.9088,485.6666 c 0,80.85261 -65.61951,146.47212 -146.47212,146.47212 -80.85262,0 -146.47213,-65.61951 -146.47213,-146.47212 0,-80.85262 65.61951,-146.47213 146.47213,-146.47213 80.85261,0 146.47212,65.61951 146.47212,146.47213 z"
         transform="matrix(0.2879784,-0.01682102,-0.01682102,-0.2879784,-2238.8955,133.27137)"
         id="path5077"
         style="opacity:0.6;fill:url(#radialGradient9833);fill-opacity:1;fill-rule:evenodd;stroke:none" />
    </g>
  </g>
  <g
     transform="translate(53.74013,3.6856623e-6)"
     id="layer6" />
</svg>
