<?xml version="1.0" encoding="UTF-8" standalone="no"?>
<!-- Created with Inkscape (http://www.inkscape.org/) -->
<svg
   xmlns:dc="http://purl.org/dc/elements/1.1/"
   xmlns:cc="http://creativecommons.org/ns#"
   xmlns:rdf="http://www.w3.org/1999/02/22-rdf-syntax-ns#"
   xmlns:svg="http://www.w3.org/2000/svg"
   xmlns="http://www.w3.org/2000/svg"
   xmlns:inkscape="http://www.inkscape.org/namespaces/inkscape"
   version="1.1"
   width="545.5"
   height="561.41278"
   id="svg2">
  <defs
     id="defs4">
    <filter
       x="-0.066670969"
       y="-0.11350103"
       width="1.1333419"
       height="1.2270021"
       color-interpolation-filters="sRGB"
       id="filter3809">
      <feGaussianBlur
         id="feGaussianBlur3811"
         stdDeviation="13.577266" />
    </filter>
    <filter
       x="-0.12549394"
       y="-0.11496687"
       width="1.2509879"
       height="1.2299337"
       color-interpolation-filters="sRGB"
       id="filter3874">
      <feGaussianBlur
         id="feGaussianBlur3876"
         stdDeviation="10.91093" />
    </filter>
    <filter
       color-interpolation-filters="sRGB"
       id="filter3970">
      <feGaussianBlur
         id="feGaussianBlur3972"
         stdDeviation="7.6376526" />
    </filter>
    <filter
       color-interpolation-filters="sRGB"
       id="filter4060">
      <feGaussianBlur
         id="feGaussianBlur4062"
         stdDeviation="7.6376526" />
    </filter>
  </defs>
  <g
     transform="translate(-5.271718,-44.949453)"
     id="layer1"
     style="display:inline">
    <path
       d="m 325.39672,198.07445 25.90625,84.75 -65.125,-8.34375 -29.15625,41.75 -23.125,-48.28125 -77.9375,-10.5625 31,67.5625 -48.09375,24.46875 -50.28125,-121.6875 -1.5,2 -62.375002,29.1875 77.437502,179 111.375,-55.03125 1.25,2.71875 -12.5625,88 72.90625,11.5625 17.59375,-98.03125 4.40625,-6.3125 -2.875,4.28125 62.84375,18.09375 35.1875,-50.28125 15.59375,59.84375 80.4375,6.03125 -40.21875,-110.09375 65.375,-75.9375 -74.9375,-14.09375 -29.15625,34.71875 -15.59375,-43.75 -68.375,-11.5625 z"
       inkscape:connector-curvature="0"
       id="path3037"
       style="fill:#ffffff;fill-opacity:1;fill-rule:evenodd;stroke:none;filter:url(#filter3809)" />
    <path
       d="m 116.15587,415.90634 -77.432434,-178.99963 62.348184,-29.16286 1.50843,-2.01123 50.28079,121.67952 60.33696,-30.67128 27.15162,57.82291 -124.19355,61.34257 z"
       inkscape:connector-curvature="0"
       id="path1388"
       style="fill:#007fff;fill-opacity:1;fill-rule:evenodd;stroke:#0059b2;stroke-width:1;stroke-linecap:butt;stroke-linejoin:miter;stroke-miterlimit:4;stroke-opacity:1;stroke-dasharray:none" />
    <path
       d="m 339.40259,176.06695 68.38188,11.56458 15.58705,43.74429 29.16286,-34.69374 74.91838,14.07862 -65.36503,75.924 40.22463,110.11494 -80.44927,-6.0337 -15.58704,-59.83414 -35.19656,50.28079 -62.85099,-18.10109 60.83976,-90.00262 -29.66567,-97.04193 z"
       inkscape:connector-curvature="0"
       id="path1392"
       style="fill:#cb3300;fill-opacity:1;fill-rule:evenodd;stroke:#992700;stroke-width:1px;stroke-linecap:butt;stroke-linejoin:miter;stroke-opacity:1" />
    <path
       d="m 169.95631,235.39829 77.93523,10.55896 23.12917,48.26957 29.16286,-41.73306 78.43804,10.05616 -71.90154,102.57282 -17.59828,98.04754 -72.90715,-11.56458 12.5702,-87.99139 -58.82853,-128.21602 z"
       inkscape:connector-curvature="0"
       id="path1390"
       style="fill:#ffc000;fill-opacity:1;fill-rule:evenodd;stroke:#b28400;stroke-width:2;stroke-miterlimit:4;stroke-opacity:1;stroke-dasharray:none" />
  </g>
</svg>
