<?xml version="1.0" encoding="UTF-8" standalone="no"?>
<!-- Created with Inkscape (http://www.inkscape.org/) -->

<svg
   xmlns:dc="http://purl.org/dc/elements/1.1/"
   xmlns:cc="http://creativecommons.org/ns#"
   xmlns:rdf="http://www.w3.org/1999/02/22-rdf-syntax-ns#"
   xmlns:svg="http://www.w3.org/2000/svg"
   xmlns="http://www.w3.org/2000/svg"
   xmlns:xlink="http://www.w3.org/1999/xlink"
   xmlns:sodipodi="http://sodipodi.sourceforge.net/DTD/sodipodi-0.dtd"
   xmlns:inkscape="http://www.inkscape.org/namespaces/inkscape"
   width="179.82086"
   height="119.41221"
   id="svg2399"
   sodipodi:version="0.32"
   inkscape:version="0.47pre4 r22446"
   version="1.0"
   sodipodi:docname="MariaDB-seal-flat.svg"
   inkscape:output_extension="org.inkscape.output.svg.inkscape"
   inkscape:export-filename="/mnt/files/documents/monty-program-ab/mp-presentation-pack/2009-10-16-Seal-flat.png"
   inkscape:export-xdpi="52.919998"
   inkscape:export-ydpi="52.919998">
  <defs
     id="defs2401">
    <inkscape:perspective
       sodipodi:type="inkscape:persp3d"
       inkscape:vp_x="0 : 59.706104 : 1"
       inkscape:vp_y="0 : 1000 : 0"
       inkscape:vp_z="179.82086 : 59.706104 : 1"
       inkscape:persp3d-origin="89.910431 : 39.80407 : 1"
       id="perspective2491" />
    <linearGradient
       id="linearGradient4093">
      <stop
         style="stop-color:#ffffff;stop-opacity:1;"
         offset="0"
         id="stop4095" />
      <stop
         style="stop-color:#ffffff;stop-opacity:0;"
         offset="1"
         id="stop4097" />
    </linearGradient>
    <linearGradient
       inkscape:collect="always"
       id="linearGradient4080">
      <stop
         style="stop-color:#c49a6c;stop-opacity:1;"
         offset="0"
         id="stop4082" />
      <stop
         style="stop-color:#c49a6c;stop-opacity:0;"
         offset="1"
         id="stop4084" />
    </linearGradient>
    <linearGradient
       id="linearGradient4054">
      <stop
         style="stop-color:#543824;stop-opacity:1;"
         offset="0"
         id="stop4056" />
      <stop
         style="stop-color:#8b5e3c;stop-opacity:0;"
         offset="1"
         id="stop4058" />
    </linearGradient>
    <linearGradient
       inkscape:collect="always"
       id="linearGradient4033">
      <stop
         style="stop-color:#ffffff;stop-opacity:1;"
         offset="0"
         id="stop4035" />
      <stop
         style="stop-color:#ffffff;stop-opacity:0;"
         offset="1"
         id="stop4037" />
    </linearGradient>
    <linearGradient
       inkscape:collect="always"
       id="linearGradient4020">
      <stop
         style="stop-color:#ffffff;stop-opacity:1;"
         offset="0"
         id="stop4022" />
      <stop
         style="stop-color:#ffffff;stop-opacity:0;"
         offset="1"
         id="stop4024" />
    </linearGradient>
    <linearGradient
       id="linearGradient4005">
      <stop
         style="stop-color:#543824;stop-opacity:1;"
         offset="0"
         id="stop4007" />
      <stop
         style="stop-color:#8b5e3c;stop-opacity:0;"
         offset="1"
         id="stop4009" />
    </linearGradient>
    <linearGradient
       id="linearGradient3957">
      <stop
         style="stop-color:#ffffff;stop-opacity:1;"
         offset="0"
         id="stop3959" />
      <stop
         style="stop-color:#ffffff;stop-opacity:0;"
         offset="1"
         id="stop3961" />
    </linearGradient>
    <linearGradient
       inkscape:collect="always"
       id="linearGradient3913">
      <stop
         style="stop-color:#8b5e3c;stop-opacity:1;"
         offset="0"
         id="stop3915" />
      <stop
         style="stop-color:#8b5e3c;stop-opacity:0;"
         offset="1"
         id="stop3917" />
    </linearGradient>
    <linearGradient
       inkscape:collect="always"
       id="linearGradient3898">
      <stop
         style="stop-color:#8b5e3c;stop-opacity:1;"
         offset="0"
         id="stop3900" />
      <stop
         style="stop-color:#8b5e3c;stop-opacity:0;"
         offset="1"
         id="stop3902" />
    </linearGradient>
    <radialGradient
       inkscape:collect="always"
       xlink:href="#linearGradient4033"
       id="radialGradient4120"
       gradientUnits="userSpaceOnUse"
       gradientTransform="matrix(7.9568309e-2,0.4088013,-1.4272087,0.2777886,327.69313,-137.74915)"
       cx="348.86285"
       cy="4.6431723"
       fx="348.86285"
       fy="4.6431723"
       r="19.3125" />
    <linearGradient
       inkscape:collect="always"
       xlink:href="#linearGradient3898"
       id="linearGradient4122"
       gradientUnits="userSpaceOnUse"
       gradientTransform="translate(252.91929,292.93467)"
       x1="304.5"
       y1="111.74571"
       x2="309.95688"
       y2="84.313332" />
    <linearGradient
       inkscape:collect="always"
       xlink:href="#linearGradient3913"
       id="linearGradient4124"
       gradientUnits="userSpaceOnUse"
       gradientTransform="translate(252.93034,292.93467)"
       x1="332.70831"
       y1="90.097427"
       x2="335.42188"
       y2="66.260406" />
    <linearGradient
       inkscape:collect="always"
       xlink:href="#linearGradient3957"
       id="linearGradient4126"
       gradientUnits="userSpaceOnUse"
       x1="253.8125"
       y1="63.15625"
       x2="261.3125"
       y2="76.328125" />
    <linearGradient
       inkscape:collect="always"
       xlink:href="#linearGradient4005"
       id="linearGradient4128"
       gradientUnits="userSpaceOnUse"
       x1="267.73993"
       y1="101.21025"
       x2="265.2366"
       y2="85.653893" />
    <radialGradient
       inkscape:collect="always"
       xlink:href="#linearGradient4054"
       id="radialGradient4130"
       gradientUnits="userSpaceOnUse"
       gradientTransform="matrix(0.2940946,-1.3265453,0.3720518,8.2483786e-2,472.69311,815.54837)"
       cx="343.73807"
       cy="56.988503"
       fx="343.73807"
       fy="56.988503"
       r="34.53125" />
    <linearGradient
       inkscape:collect="always"
       xlink:href="#linearGradient4080"
       id="linearGradient4132"
       gradientUnits="userSpaceOnUse"
       gradientTransform="translate(252.93034,292.93467)"
       x1="195.59375"
       y1="96.763786"
       x2="248.625"
       y2="96.763786" />
    <radialGradient
       inkscape:collect="always"
       xlink:href="#linearGradient4020"
       id="radialGradient4134"
       gradientUnits="userSpaceOnUse"
       gradientTransform="matrix(0.3695622,0.8004946,-1.8857318,0.8705819,290.86055,-138.061)"
       cx="197.6301"
       cy="91.405624"
       fx="197.6301"
       fy="91.405624"
       r="18.125" />
    <radialGradient
       inkscape:collect="always"
       xlink:href="#linearGradient4093"
       id="radialGradient4136"
       gradientUnits="userSpaceOnUse"
       gradientTransform="matrix(0.155495,0.2729061,-0.5361557,0.3054864,265.31514,-23.793628)"
       cx="246.81799"
       cy="20.586987"
       fx="246.81799"
       fy="20.586987"
       r="49.28125" />
    <radialGradient
       inkscape:collect="always"
       xlink:href="#linearGradient4093"
       id="radialGradient4257"
       gradientUnits="userSpaceOnUse"
       gradientTransform="matrix(0.155495,0.2729061,-0.5361557,0.3054864,325.59971,269.41964)"
       cx="246.81799"
       cy="20.586987"
       fx="246.81799"
       fy="20.586987"
       r="49.28125" />
    <radialGradient
       inkscape:collect="always"
       xlink:href="#linearGradient4020"
       id="radialGradient4260"
       gradientUnits="userSpaceOnUse"
       gradientTransform="matrix(0.3695622,0.8004946,-1.8857318,0.8705819,351.14512,155.15227)"
       cx="197.6301"
       cy="91.405624"
       fx="197.6301"
       fy="91.405624"
       r="18.125" />
    <linearGradient
       inkscape:collect="always"
       xlink:href="#linearGradient4080"
       id="linearGradient4263"
       gradientUnits="userSpaceOnUse"
       gradientTransform="translate(60.28457,293.21327)"
       x1="195.59375"
       y1="96.763786"
       x2="248.625"
       y2="96.763786" />
    <radialGradient
       inkscape:collect="always"
       xlink:href="#linearGradient4054"
       id="radialGradient4266"
       gradientUnits="userSpaceOnUse"
       gradientTransform="matrix(0.2940946,-1.3265453,0.3720518,8.2483786e-2,280.04734,815.82697)"
       cx="343.73807"
       cy="56.988503"
       fx="343.73807"
       fy="56.988503"
       r="34.53125" />
    <linearGradient
       inkscape:collect="always"
       xlink:href="#linearGradient4005"
       id="linearGradient4269"
       gradientUnits="userSpaceOnUse"
       x1="267.73993"
       y1="101.21025"
       x2="265.2366"
       y2="85.653893"
       gradientTransform="translate(60.28457,293.21327)" />
    <linearGradient
       inkscape:collect="always"
       xlink:href="#linearGradient3957"
       id="linearGradient4272"
       gradientUnits="userSpaceOnUse"
       x1="253.8125"
       y1="63.15625"
       x2="261.3125"
       y2="76.328125"
       gradientTransform="translate(60.28457,293.21327)" />
    <linearGradient
       inkscape:collect="always"
       xlink:href="#linearGradient3913"
       id="linearGradient4275"
       gradientUnits="userSpaceOnUse"
       gradientTransform="translate(60.28457,293.21327)"
       x1="332.70831"
       y1="90.097427"
       x2="335.42188"
       y2="66.260406" />
    <linearGradient
       inkscape:collect="always"
       xlink:href="#linearGradient3898"
       id="linearGradient4278"
       gradientUnits="userSpaceOnUse"
       gradientTransform="translate(60.27352,293.21327)"
       x1="304.5"
       y1="111.74571"
       x2="309.95688"
       y2="84.313332" />
    <radialGradient
       inkscape:collect="always"
       xlink:href="#linearGradient4033"
       id="radialGradient4286"
       gradientUnits="userSpaceOnUse"
       gradientTransform="matrix(7.9568309e-2,0.4088013,-1.4272087,0.2777886,387.9777,155.46412)"
       cx="348.86285"
       cy="4.6431723"
       fx="348.86285"
       fy="4.6431723"
       r="19.3125" />
  </defs>
  <sodipodi:namedview
     id="base"
     pagecolor="#ffffff"
     bordercolor="#666666"
     borderopacity="1.0"
     gridtolerance="10000"
     guidetolerance="10"
     objecttolerance="10"
     inkscape:pageopacity="0.0"
     inkscape:pageshadow="2"
     inkscape:zoom="2.8284271"
     inkscape:cx="156.98062"
     inkscape:cy="96.253683"
     inkscape:document-units="px"
     inkscape:current-layer="layer1"
     showgrid="false"
     inkscape:window-width="1674"
     inkscape:window-height="974"
     inkscape:window-x="0"
     inkscape:window-y="25"
     inkscape:window-maximized="0" />
  <metadata
     id="metadata2404">
    <rdf:RDF>
      <cc:Work
         rdf:about="">
        <dc:format>image/svg+xml</dc:format>
        <dc:type
           rdf:resource="http://purl.org/dc/dcmitype/StillImage" />
        <dc:title>MariaDB Seal</dc:title>
        <dc:date>16 Oct 2009</dc:date>
        <dc:rights>
          <cc:Agent>
            <dc:title>Monty Program Ab</dc:title>
          </cc:Agent>
        </dc:rights>
        <dc:creator>
          <cc:Agent>
            <dc:title>Mike Zinner</dc:title>
          </cc:Agent>
        </dc:creator>
        <dc:contributor>
          <cc:Agent>
            <dc:title> Daniel Bartholomew</dc:title>
          </cc:Agent>
        </dc:contributor>
        <dc:description>The MariaDB Seal Logo</dc:description>
        <dc:publisher>
          <cc:Agent>
            <dc:title>Monty Program Ab</dc:title>
          </cc:Agent>
        </dc:publisher>
        <dc:subject>
          <rdf:Bag>
            <rdf:li>seal</rdf:li>
            <rdf:li>mammal</rdf:li>
            <rdf:li>aquatic</rdf:li>
          </rdf:Bag>
        </dc:subject>
      </cc:Work>
    </rdf:RDF>
  </metadata>
  <g
     inkscape:label="Layer 1"
     inkscape:groupmode="layer"
     id="layer1"
     transform="translate(-252.94671,-292.65607)">
    <g
       id="g3392"
       inkscape:export-filename="/mnt/files/documents/monty-program-ab/logos-dbart/MariaDB-seal-flat.png"
       inkscape:export-xdpi="90"
       inkscape:export-ydpi="90">
      <path
         inkscape:export-ydpi="90"
         inkscape:export-xdpi="90"
         inkscape:export-filename="/mnt/files/documents/monty-program-ab/logos/seal-flat.png"
         sodipodi:nodetypes="czssccsccssccccsccsssssz"
         id="path9"
         d="M 428.82171,292.65922 C 426.04264,292.74803 426.92153,293.54877 420.91654,295.02655 C 414.8526,296.51884 407.44539,296.06125 400.91546,298.79984 C 381.42246,306.97484 377.51145,334.91583 359.79046,344.92484 C 346.54446,352.40684 333.18047,353.00359 321.16546,356.76859 C 313.26946,359.24459 304.63196,364.32235 297.47796,370.48734 C 291.92496,375.27434 291.77997,379.48335 285.97796,385.48734 C 279.77196,391.90934 261.31271,385.59586 252.94671,395.42484 C 255.64171,398.14984 256.82322,398.9131 262.13421,398.20609 C 261.03464,400.29018 254.5529,402.0465 255.82171,405.11234 C 257.15677,408.33826 272.8269,410.52508 287.07171,401.92484 C 293.70571,397.91959 298.98972,392.1466 309.32171,390.76859 C 322.69171,388.98659 338.09372,391.9116 353.57171,394.14359 C 351.27671,400.98659 346.66897,405.53734 342.97796,410.98734 C 341.83496,412.21834 345.2737,412.35633 349.19671,411.61234 C 356.25371,409.86734 361.33947,408.46234 366.66546,405.36234 C 373.20846,401.55334 374.19997,391.78785 382.22796,389.67484 C 386.70096,396.54984 398.86649,398.17385 406.41546,392.67484 C 399.79146,390.79984 397.96073,376.70034 400.19671,370.48734 C 402.31471,364.60634 404.40749,355.19884 406.54046,347.42484 C 408.83046,339.07584 409.67529,328.55269 412.44671,324.29984 C 416.61636,317.90135 421.22366,315.70409 425.22363,312.09604 C 429.22359,308.48799 432.88484,304.97584 432.76469,296.71988 C 432.72599,294.06068 431.35105,292.57839 428.82171,292.65922 z"
         style="fill:#002b64;fill-opacity:1;fill-rule:evenodd;stroke:none;stroke-width:0.2;stroke-miterlimit:4;stroke-dasharray:none;stroke-opacity:1" />
      <path
         inkscape:export-ydpi="90"
         inkscape:export-xdpi="90"
         inkscape:export-filename="/mnt/files/documents/monty-program-ab/logos/seal-flat.png"
         d="M 258.70071,404.52409 C 268.84471,405.97709 275.01371,404.52409 283.15971,400.99109 C 290.09071,397.98509 296.78471,391.78809 304.96971,389.16109 C 316.99071,385.30409 330.17271,389.16609 343.02271,389.93609 C 346.15171,390.12409 349.26071,390.12609 352.32971,389.79209 C 357.11671,386.85009 357.01771,375.84509 361.67671,374.83709 C 361.53971,390.27709 355.20971,399.52809 348.58971,408.48609 C 362.54171,406.02209 370.89071,397.95209 376.52971,387.17409 C 378.24071,383.90609 379.70171,380.39009 380.99371,376.70509 C 382.99071,378.23809 381.85871,382.90209 382.86271,385.42909 C 392.47271,380.07609 397.97571,367.85909 401.61971,355.50309 C 405.83571,341.20309 407.56171,326.72309 410.28071,322.49209 C 412.93471,318.36209 417.06471,315.81609 420.83471,313.17209 C 425.11871,310.16609 428.93971,307.03309 429.59971,301.30509 C 425.08171,300.88709 424.03671,299.84209 423.36871,297.56509 C 421.10671,298.84009 419.02671,299.11309 416.67671,299.18309 C 414.63771,299.24509 412.39771,299.15409 409.66171,299.43509 C 387.03471,301.75909 384.15971,326.69809 369.65671,340.83609 C 368.60171,341.86409 367.46071,342.82309 366.25471,343.72309 C 361.17571,347.50809 354.94471,350.21309 349.21471,352.40309 C 339.93971,355.94709 331.12171,356.19909 322.41971,359.25809 C 316.03171,361.50309 309.54071,364.76009 304.29371,368.35109 C 302.98171,369.24809 301.74571,370.16709 300.60871,371.09709 C 297.52971,373.61609 295.50871,376.41109 293.55371,379.28609 C 291.53771,382.24909 289.59071,385.29709 286.62271,388.20909 C 281.81471,392.93009 263.84871,389.58609 257.52371,393.96409 C 256.81871,394.45109 256.25871,395.03609 255.87771,395.73809 C 259.32871,397.30609 261.63371,396.34409 265.60371,396.78309 C 266.12471,400.55009 257.41271,402.78909 258.70071,404.52409 z"
         id="path3352"
         style="fill:#c49a6c;stroke:none;stroke-width:0.25" />
      <path
         inkscape:export-ydpi="90"
         inkscape:export-xdpi="90"
         inkscape:export-filename="/mnt/files/documents/monty-program-ab/logos/seal-flat.png"
         style="fill:#c49a6c;fill-rule:evenodd;fill-opacity:1"
         id="path3873"
         d="M 395.78457,377.38405 C 396.05457,381.70605 398.56357,390.28105 400.77857,392.36505 C 396.44057,393.42005 388.96757,391.67705 387.05057,388.61705 C 388.03557,384.19905 393.16157,380.16005 395.78457,377.38405 z"
         clip-rule="evenodd" />
      <path
         inkscape:export-ydpi="90"
         inkscape:export-xdpi="90"
         inkscape:export-filename="/mnt/files/documents/monty-program-ab/logos/seal-flat.png"
         style="fill:#002b64;fill-rule:evenodd"
         id="path3880"
         d="M 402.13957,308.79227 C 405.34257,311.57327 412.06357,309.34127 410.86257,303.80827 C 405.88557,303.39627 403.00257,305.08527 402.13957,308.79227 z"
         clip-rule="evenodd" />
      <path
         inkscape:export-ydpi="90"
         inkscape:export-xdpi="90"
         inkscape:export-filename="/mnt/files/documents/monty-program-ab/logos/seal-flat.png"
         style="fill:#002b64"
         id="path3882"
         d="M 424.47057,302.32627 C 423.61857,304.11327 421.98757,306.41727 421.98757,310.96627 C 421.98057,311.74727 421.39457,312.28227 421.38457,311.07827 C 421.42857,306.63227 422.60557,304.71027 423.85557,302.18427 C 424.43657,301.14927 424.78657,301.57627 424.47057,302.32627 z" />
      <path
         inkscape:export-ydpi="90"
         inkscape:export-xdpi="90"
         inkscape:export-filename="/mnt/files/documents/monty-program-ab/logos/seal-flat.png"
         style="fill:#002b64"
         id="path3884"
         d="M 423.61257,301.65327 C 422.60757,303.35827 420.18757,306.46827 419.78757,311.00027 C 419.71357,311.77727 419.08157,312.25827 419.17757,311.05727 C 419.61357,306.63327 421.54757,303.86427 423.01557,301.45727 C 423.68157,300.47827 423.99457,300.93427 423.61257,301.65327 z" />
      <path
         inkscape:export-ydpi="90"
         inkscape:export-xdpi="90"
         inkscape:export-filename="/mnt/files/documents/monty-program-ab/logos/seal-flat.png"
         style="fill:#002b64"
         id="path3886"
         d="M 422.83057,300.76127 C 421.68557,302.37527 417.96057,306.11027 417.18157,310.59327 C 417.04157,311.36027 416.37157,311.78827 416.56857,310.59927 C 417.37457,306.22627 420.58557,302.78927 422.25057,300.51627 C 422.99657,299.59527 423.26957,300.07627 422.83057,300.76127 z" />
      <path
         inkscape:export-ydpi="90"
         inkscape:export-xdpi="90"
         inkscape:export-filename="/mnt/files/documents/monty-program-ab/logos/seal-flat.png"
         style="fill:#002b64"
         id="path3888"
         d="M 422.13257,299.76627 C 420.77257,301.20327 416.33157,305.96627 414.93157,310.29427 C 414.68357,311.03427 413.96057,311.36427 414.32357,310.21427 C 415.73557,305.99827 419.62457,301.45727 421.59257,299.44127 C 422.46157,298.63427 422.66357,299.14927 422.13257,299.76627 z" />
    </g>
  </g>
</svg>
