<?xml version="1.0" encoding="UTF-8" standalone="no"?>
<!-- Created with Inkscape (http://www.inkscape.org/) -->

<svg
   xmlns:dc="http://purl.org/dc/elements/1.1/"
   xmlns:cc="http://creativecommons.org/ns#"
   xmlns:rdf="http://www.w3.org/1999/02/22-rdf-syntax-ns#"
   xmlns:svg="http://www.w3.org/2000/svg"
   xmlns="http://www.w3.org/2000/svg"
   version="1.1"
   width="512"
   height="512"
   id="svg2"
   style="display:inline">
  <defs
     id="defs4" />
  <metadata
     id="metadata7">
    <rdf:RDF>
      <cc:Work
         rdf:about="">
        <dc:format>image/svg+xml</dc:format>
        <dc:type
           rdf:resource="http://purl.org/dc/dcmitype/StillImage" />
        <dc:title></dc:title>
        <dc:date>2010-06-05</dc:date>
        <dc:creator>
          <cc:Agent>
            <dc:title>Jerome Martinez</dc:title>
          </cc:Agent>
        </dc:creator>
        <dc:contributor>
          <cc:Agent>
            <dc:title>drawing by Kevin Redon</dc:title>
          </cc:Agent>
        </dc:contributor>
      </cc:Work>
    </rdf:RDF>
  </metadata>
  <g
     transform="translate(0,-258)"
     id="layer2"
     style="display:inline" />
  <g
     transform="translate(0,-288)"
     id="layer4" />
  <g
     transform="translate(0,-288)"
     id="layer3">
    <g
       transform="matrix(11.373654,0,0,11.375826,0.01403043,-8300.7622)"
       id="g3007">
      <path
         d="m 1.0888174,725.00179 c -0.60922238,0.0358 -1.09005099,0.62066 -1.09005099,1.33978 l 0,42.32753 c 0,0.74234 0.5126896,1.3398 1.14970499,1.3398 l 1.3919386,0 0,-45.00711 -1.3919386,0 c -0.019903,0 -0.040004,-10e-4 -0.059658,0 z"
         transform="translate(0,30)"
         id="path3018"
         style="fill:#ff0302;fill-opacity:1;stroke:none;display:inline" />
      <path
         d="m 5.0278219,725.00125 0,45.00763 1.4877478,0 c 0.6370144,0 1.1497037,-0.59745 1.1497037,-1.3398 l 0,-42.32801 c 0,-0.74232 -0.5126893,-1.33982 -1.1497037,-1.33982 l -1.4877478,0 z"
         transform="translate(0,30)"
         id="rect3006"
         style="fill:#120ffe;fill-opacity:1;stroke:none;display:inline" />
      <rect
         width="2.4874117"
         height="45.007618"
         rx="0"
         ry="0"
         x="2.5400574"
         y="725.00128"
         transform="translate(0,30)"
         id="rect3010"
         style="fill:#01d318;fill-opacity:1;stroke:none;display:inline" />
      <path
         d="m 508.10671,395.2334 a 122.22845,122.22845 0 1 1 -244.45689,0 122.22845,122.22845 0 1 1 244.45689,0 z"
         transform="matrix(0.05253065,0,0,0.05483809,-1.7883735,756.04911)"
         id="path3792"
         style="fill:#000000;fill-opacity:1;stroke:none;display:inline" />
      <g
         transform="scale(1.0008229,0.99917779)"
         id="text3794"
         style="fill:#ffffff;fill-opacity:1;stroke:#000000;stroke-width:0.05799887;display:inline">
        <path
           d="m 19.038029,780.10284 -1.223916,0 c -0.0032,-0.17599 -0.0048,-0.28318 -0.0048,-0.32158 -2e-6,-0.39677 0.06559,-0.72315 0.196787,-0.97913 0.131188,-0.25598 0.39357,-0.54396 0.787146,-0.86394 0.39357,-0.31998 0.628753,-0.52956 0.705552,-0.62876 0.118388,-0.15679 0.177584,-0.32957 0.177588,-0.51837 -4e-6,-0.26237 -0.104797,-0.48716 -0.314379,-0.67435 -0.209589,-0.18718 -0.49197,-0.28078 -0.847142,-0.28078 -0.342379,0 -0.62876,0.0976 -0.859141,0.29278 -0.230387,0.19519 -0.388776,0.49277 -0.475168,0.89274 l -1.238316,-0.15359 c 0.0352,-0.57276 0.279181,-1.05912 0.731951,-1.4591 0.452767,-0.39997 1.047126,-0.59995 1.783078,-0.59996 0.774343,10e-6 1.390301,0.20239 1.847874,0.60716 0.457564,0.40478 0.686348,0.87594 0.686353,1.4135 -5e-6,0.29759 -0.084,0.57917 -0.251983,0.84474 -0.167993,0.26559 -0.527168,0.62716 -1.077526,1.08473 -0.284785,0.23679 -0.461572,0.42717 -0.530364,0.57116 -0.0688,0.14399 -0.1,0.40158 -0.09359,0.77275 z m -1.223916,1.81427 0,-1.3487 1.348708,0 0,1.3487 z"
           id="path2999" />
      </g>
      <path
         d="m 21.591439,764.20901 c -0.304594,0 -0.60532,0.01 -0.904981,0.0299 5.910992,0.45243 10.586479,6.21491 10.586479,13.2594 0,7.04448 -4.675487,12.80897 -10.586479,13.26141 0.299661,0.0189 0.600387,0.0299 0.904981,0.0299 7.585654,0 13.735815,-5.9517 13.735815,-13.29151 0,-7.33976 -6.150161,-13.28947 -13.735815,-13.28947 z"
         id="path3813"
         style="fill:#000000;stroke:none;display:inline" />
      <path
         d="m 18.768803,755.00118 c 11.75023,0.15573 21.229063,10.16875 21.229063,22.49823 0,12.32948 -9.478833,22.34251 -21.229063,22.49822 14.521031,-0.12644 26.246281,-10.15035 26.246281,-22.49822 0,-12.34787 -11.72525,-22.37176 -26.246281,-22.49823 z"
         id="path3042"
         style="fill:#000000;stroke:none" />
    </g>
  </g>
</svg>
