<?xml version="1.0" encoding="UTF-8" standalone="no"?>
<svg width="254px" height="235px" viewBox="0 0 254 235" version="1.1" xmlns="http://www.w3.org/2000/svg" xmlns:xlink="http://www.w3.org/1999/xlink" xmlns:sketch="http://www.bohemiancoding.com/sketch/ns">
    <!-- Generator: Sketch 3.1 (8751) - http://www.bohemiancoding.com/sketch -->
    <title>pulse-logo-large</title>
    <desc>Created with Sketch.</desc>
    <defs/>
    <g id="Page-1" stroke="none" stroke-width="1" fill="none" fill-rule="evenodd" sketch:type="MSPage">
        <g id="pulse-logo" sketch:type="MSArtboardGroup" transform="translate(2.000000, -234.000000)">
            <g id="logo-mark-5" sketch:type="MSLayerGroup" transform="translate(-3.000000, 221.000000)">
                <g id="Group" transform="translate(139.869238, 134.591414) rotate(-80.000000) translate(-139.869238, -134.591414) translate(24.369238, 13.091414)" sketch:type="MSShapeGroup">
                    <path d="M59.6475607,211.342015 C114.248254,242.617305 184.06589,224.057159 215.589615,169.886767 C247.11334,115.716375 228.405761,46.4489642 173.805067,15.173674 C119.204374,-16.1016162 49.3867382,2.45853068 17.8630132,56.6289223 C-13.6607118,110.799314 5.04686732,180.066725 59.6475607,211.342015 Z M170.95113,20.0778825 C222.821788,49.7894082 240.593988,115.593449 210.64645,167.055321 C180.698911,218.517193 114.372157,236.149332 62.5014983,206.437807 C10.6308397,176.726281 -7.14136051,110.92224 22.8061782,59.4603684 C52.753717,7.99849638 119.080471,-9.63364315 170.95113,20.0778825 Z" id="Oval-1" fill="#4A4A4A"/>
                    <ellipse id="Oval-2" fill="#C41515" transform="translate(212.047832, 58.327790) rotate(-240.000000) translate(-212.047832, -58.327790) " cx="212.047832" cy="58.32779" rx="14.2696883" ry="14.1572306"/>
                    <ellipse id="Oval-3" fill="#C41515" transform="translate(19.570521, 56.250110) rotate(-240.000000) translate(-19.570521, -56.250110) " cx="19.5705209" cy="56.2501104" rx="14.2696883" ry="14.1572306"/>
                    <ellipse id="Oval-4" fill="#C41515" transform="translate(117.297101, 223.684243) rotate(-240.000000) translate(-117.297101, -223.684243) " cx="117.297101" cy="223.684243" rx="14.2696883" ry="14.1572306"/>
                </g>
                <path d="M132.705204,201.505026 C170.533674,201.505026 201.199708,171.080668 201.199708,133.550319 C201.199708,96.0199712 170.533674,65.5956126 132.705204,65.5956126 C94.8767336,65.5956126 64.2106996,96.0199712 64.2106996,133.550319 C64.2106996,171.080668 94.8767336,201.505026 132.705204,201.505026 Z M133.275991,149.406418 C142.417871,149.406418 149.82883,142.053864 149.82883,132.98403 C149.82883,123.914196 142.417871,116.561643 133.275991,116.561643 C124.134111,116.561643 116.723153,123.914196 116.723153,132.98403 C116.723153,142.053864 124.134111,149.406418 133.275991,149.406418 Z" id="Oval-6" fill="#B2B2B2" sketch:type="MSShapeGroup"/>
            </g>
        </g>
    </g>
</svg>