<?xml version="1.0" encoding="UTF-8" standalone="no"?>
<!-- Created with Inkscape (http://www.inkscape.org/) -->
<svg xmlns:dc="http://purl.org/dc/elements/1.1/" xmlns:cc="http://creativecommons.org/ns#" xmlns:rdf="http://www.w3.org/1999/02/22-rdf-syntax-ns#" xmlns:svg="http://www.w3.org/2000/svg" xmlns="http://www.w3.org/2000/svg" xmlns:xlink="http://www.w3.org/1999/xlink" xmlns:sodipodi="http://sodipodi.sourceforge.net/DTD/sodipodi-0.dtd" xmlns:inkscape="http://www.inkscape.org/namespaces/inkscape" width="80" height="80" id="svg2" sodipodi:version="0.32" inkscape:version="0.48.4 r9939" sodipodi:docname="thg_logo.svg" inkscape:output_extension="org.inkscape.output.svg.inkscape" version="1.0">
  <defs id="defs4">
    <inkscape:perspective sodipodi:type="inkscape:persp3d" inkscape:vp_x="0 : 50 : 1" inkscape:vp_y="0 : 1000 : 0" inkscape:vp_z="100 : 50 : 1" inkscape:persp3d-origin="50 : 33.333333 : 1" id="perspective105"/>
    <linearGradient id="linearGradient3366">
      <stop style="stop-color:#1f252d;stop-opacity:1;" offset="0" id="stop3368"/>
      <stop style="stop-color:#8c9bb0;stop-opacity:1;" offset="1" id="stop3370"/>
    </linearGradient>
    <linearGradient id="linearGradient3893">
      <stop style="stop-color:#729fcf;stop-opacity:1;" offset="0" id="stop3895"/>
      <stop style="stop-color:#b9cfe7;stop-opacity:1;" offset="1" id="stop3897"/>
    </linearGradient>
    <linearGradient id="linearGradient3873">
      <stop style="stop-color:#4f9a05;stop-opacity:1;" offset="0" id="stop3875"/>
      <stop style="stop-color:#b5ea81;stop-opacity:1;" offset="1" id="stop3877"/>
    </linearGradient>
    <linearGradient id="linearGradient3801" inkscape:collect="always">
      <stop id="stop3803" offset="0" style="stop-color:#000000;stop-opacity:1"/>
      <stop id="stop3805" offset="1" style="stop-color:#000000;stop-opacity:0;"/>
    </linearGradient>
    <linearGradient inkscape:collect="always" id="linearGradient3563">
      <stop style="stop-color:#000000;stop-opacity:1;" offset="0" id="stop3565"/>
      <stop style="stop-color:#000000;stop-opacity:0" offset="1" id="stop3567"/>
    </linearGradient>
    <linearGradient inkscape:collect="always" id="linearGradient3263">
      <stop style="stop-color:#000000;stop-opacity:1;" offset="0" id="stop3265"/>
      <stop style="stop-color:#000000;stop-opacity:0;" offset="1" id="stop3267"/>
    </linearGradient>
    <linearGradient id="linearGradient3207">
      <stop style="stop-color:#1c2f52;stop-opacity:1;" offset="0" id="stop3209"/>
      <stop style="stop-color:#000000;stop-opacity:0" offset="1" id="stop3211"/>
    </linearGradient>
    <radialGradient inkscape:collect="always" xlink:href="#linearGradient3207" id="radialGradient3215" cx="135.25655" cy="237.94363" fx="135.25655" fy="237.94363" r="17.294315" gradientTransform="matrix(1.9206889,-0.5952514,0.4482225,1.4462734,-221.70779,-22.119769)" gradientUnits="userSpaceOnUse"/>
    <filter inkscape:collect="always" x="-0.073921852" width="1.1478437" y="-0.13688254" height="1.2737651" id="filter3245" color-interpolation-filters="sRGB">
      <feGaussianBlur inkscape:collect="always" stdDeviation="1.0345558" id="feGaussianBlur3247"/>
    </filter>
    <linearGradient inkscape:collect="always" xlink:href="#linearGradient3263" id="linearGradient3269" x1="138.77478" y1="240.89607" x2="120.65009" y2="239.44398" gradientUnits="userSpaceOnUse" gradientTransform="translate(6.2119643,5.4456821)"/>
    <filter inkscape:collect="always" x="-0.090638652" width="1.1812773" y="-0.29311559" height="1.5862312" id="filter3551" color-interpolation-filters="sRGB">
      <feGaussianBlur inkscape:collect="always" stdDeviation="0.70848038" id="feGaussianBlur3553"/>
    </filter>
    <linearGradient inkscape:collect="always" xlink:href="#linearGradient3563" id="linearGradient3569" x1="145.21049" y1="239.79642" x2="147.4772" y2="230.32625" gradientUnits="userSpaceOnUse" gradientTransform="translate(6.2119643,5.4456821)"/>
    <filter inkscape:collect="always" x="-0.17634664" width="1.3526933" y="-0.090942018" height="1.1818841" id="filter3675" color-interpolation-filters="sRGB">
      <feGaussianBlur inkscape:collect="always" stdDeviation="0.56643104" id="feGaussianBlur3677"/>
    </filter>
    <radialGradient inkscape:collect="always" xlink:href="#linearGradient3801" id="radialGradient3799" cx="116.58452" cy="238.6376" fx="116.58452" fy="238.6376" r="6.2167935" gradientTransform="matrix(0.7474576,0.4827389,-0.3525983,0.545952,118.97347,57.564603)" gradientUnits="userSpaceOnUse"/>
    <filter inkscape:collect="always" x="-0.12314623" width="1.2462925" y="-0.17335643" height="1.3467129" id="filter3861" color-interpolation-filters="sRGB">
      <feGaussianBlur inkscape:collect="always" stdDeviation="0.58690859" id="feGaussianBlur3863"/>
    </filter>
    <linearGradient inkscape:collect="always" xlink:href="#linearGradient3873" id="linearGradient3871" x1="110.73299" y1="246.05139" x2="103.46745" y2="241.88451" gradientUnits="userSpaceOnUse" gradientTransform="translate(6.2119643,5.4456821)"/>
    <linearGradient inkscape:collect="always" xlink:href="#linearGradient3873" id="linearGradient3887" x1="150.33246" y1="245.59206" x2="153.4617" y2="244.32936" gradientUnits="userSpaceOnUse" gradientTransform="translate(6.2119643,5.4456821)"/>
    <linearGradient inkscape:collect="always" xlink:href="#linearGradient3893" id="linearGradient3899" x1="150.52632" y1="252.26941" x2="150.24753" y2="251.15334" gradientUnits="userSpaceOnUse" gradientTransform="translate(6.2119643,5.4456821)"/>
    <linearGradient inkscape:collect="always" xlink:href="#linearGradient3893" id="linearGradient3915" x1="152.88489" y1="252.0074" x2="152.50584" y2="250.62347" gradientUnits="userSpaceOnUse" gradientTransform="translate(6.2119643,5.4456821)"/>
    <linearGradient inkscape:collect="always" xlink:href="#linearGradient3893" id="linearGradient3923" x1="154.80414" y1="250.36142" x2="154.42509" y2="249.24535" gradientUnits="userSpaceOnUse" gradientTransform="translate(6.2119643,5.4456821)"/>
    <linearGradient inkscape:collect="always" xlink:href="#linearGradient3893" id="linearGradient3931" x1="140.32919" y1="254.67867" x2="140.03812" y2="253.11617" gradientUnits="userSpaceOnUse" gradientTransform="translate(6.2119643,5.4456821)"/>
    <linearGradient inkscape:collect="always" xlink:href="#linearGradient3893" id="linearGradient3939" x1="137.93027" y1="255.21292" x2="137.58832" y2="253.78435" gradientUnits="userSpaceOnUse" gradientTransform="translate(6.2119643,5.4456821)"/>
    <linearGradient inkscape:collect="always" xlink:href="#linearGradient3893" id="linearGradient3947" x1="134.15059" y1="256.17233" x2="134.27011" y2="254.96698" gradientUnits="userSpaceOnUse" gradientTransform="translate(6.2119643,5.4456821)"/>
    <linearGradient inkscape:collect="always" xlink:href="#linearGradient3893" id="linearGradient3955" x1="109.05109" y1="254.29736" x2="109.05109" y2="252.8688" gradientUnits="userSpaceOnUse" gradientTransform="translate(6.2119643,5.4456821)"/>
    <linearGradient inkscape:collect="always" xlink:href="#linearGradient3893" id="linearGradient3963" x1="112.18076" y1="254.03375" x2="111.75079" y2="252.42661" gradientUnits="userSpaceOnUse" gradientTransform="translate(6.2119643,5.4456821)"/>
    <linearGradient inkscape:collect="always" xlink:href="#linearGradient3893" id="linearGradient3971" x1="114.79793" y1="253.71906" x2="114.23315" y2="252.2905" gradientUnits="userSpaceOnUse" gradientTransform="translate(6.2119643,5.4456821)"/>
    <filter inkscape:collect="always" x="-0.14466302" width="1.289326" y="-0.5060032" height="2.0120063" id="filter4911" color-interpolation-filters="sRGB">
      <feGaussianBlur inkscape:collect="always" stdDeviation="0.93716196" id="feGaussianBlur4913"/>
    </filter>
    <filter inkscape:collect="always" x="-0.13995127" width="1.2799026" y="-0.1497658" height="1.2995316" id="filter5023" color-interpolation-filters="sRGB">
      <feGaussianBlur inkscape:collect="always" stdDeviation="0.52462254" id="feGaussianBlur5025"/>
    </filter>
    <filter inkscape:collect="always" x="-0.091351531" width="1.1827031" y="-0.17482693" height="1.349654" id="filter5063" color-interpolation-filters="sRGB">
      <feGaussianBlur inkscape:collect="always" stdDeviation="0.40405715" id="feGaussianBlur5065"/>
    </filter>
    <linearGradient inkscape:collect="always" xlink:href="#linearGradient3873" id="linearGradient5079" x1="103.49712" y1="235.01828" x2="103.91125" y2="233.75017" gradientUnits="userSpaceOnUse" gradientTransform="translate(6.2119643,5.4456821)"/>
    <filter inkscape:collect="always" x="-0.14084633" width="1.2816926" y="-0.17480762" height="1.3496153" id="filter3308" color-interpolation-filters="sRGB">
      <feGaussianBlur inkscape:collect="always" stdDeviation="1.3380205" id="feGaussianBlur3310"/>
    </filter>
    <filter inkscape:collect="always" id="filter3328" color-interpolation-filters="sRGB">
      <feGaussianBlur inkscape:collect="always" stdDeviation="0.34360318" id="feGaussianBlur3330"/>
    </filter>
    <linearGradient inkscape:collect="always" xlink:href="#linearGradient3873" id="linearGradient3346" x1="133.64865" y1="250.63817" x2="126.16358" y2="248.6237" gradientUnits="userSpaceOnUse" gradientTransform="translate(6.2119643,5.4456821)"/>
    <linearGradient inkscape:collect="always" xlink:href="#linearGradient3366" id="linearGradient3372" x1="164.19093" y1="209.0542" x2="153.48773" y2="197.25838" gradientUnits="userSpaceOnUse" gradientTransform="translate(7.1523902,4.6662679)"/>
    <filter inkscape:collect="always" x="-0.081502736" width="1.1630055" y="-0.19747992" height="1.3949598" id="filter3443" color-interpolation-filters="sRGB">
      <feGaussianBlur inkscape:collect="always" stdDeviation="1.5398498" id="feGaussianBlur3445"/>
    </filter>
  </defs>
  <sodipodi:namedview id="base" pagecolor="#ffffff" bordercolor="#666666" borderopacity="1.0" gridtolerance="10000" guidetolerance="10" objecttolerance="10" inkscape:pageopacity="0.0" inkscape:pageshadow="2" inkscape:zoom="9.3110315" inkscape:cx="41.049575" inkscape:cy="36.814494" inkscape:document-units="px" inkscape:current-layer="layer1" inkscape:window-width="1366" inkscape:window-height="706" inkscape:window-x="-8" inkscape:window-y="-8" showguides="false" height="200px" width="100px" showgrid="false" inkscape:window-maximized="1"/>
  <metadata id="metadata7">
    <rdf:RDF>
      <cc:Work rdf:about="">
        <dc:format>image/svg+xml</dc:format>
        <dc:type rdf:resource="http://purl.org/dc/dcmitype/StillImage"/>
        <dc:title>TortoiseHg</dc:title>
        <dc:date>2007-dec-11</dc:date>
        <dc:creator>
          <cc:Agent>
            <dc:title>Peer Sommerlund</dc:title>
          </cc:Agent>
        </dc:creator>
        <dc:rights>
          <cc:Agent>
            <dc:title/>
          </cc:Agent>
        </dc:rights>
        <dc:source/>
        <dc:description>Closely resembles TortoiseSVN logo</dc:description>
        <cc:license rdf:resource="http://artlibre.org/licence.php/lalgb.html"/>
      </cc:Work>
      <cc:License rdf:about="http://artlibre.org/licence.php/lalgb.html">
        <cc:permits rdf:resource="http://creativecommons.org/ns#Reproduction"/>
        <cc:permits rdf:resource="http://creativecommons.org/ns#Distribution"/>
        <cc:permits rdf:resource="http://creativecommons.org/ns#DerivativeWorks"/>
        <cc:requires rdf:resource="http://creativecommons.org/ns#ShareAlike"/>
        <cc:requires rdf:resource="http://creativecommons.org/ns#Notice"/>
        <cc:requires rdf:resource="http://creativecommons.org/ns#Attribution"/>
      </cc:License>
    </rdf:RDF>
  </metadata>
  <g inkscape:label="Vector tortoise" inkscape:groupmode="layer" id="layer1" style="display:inline" transform="translate(-101.69768,-201.71886)">
    <path style="fill:url(#linearGradient3887);fill-opacity:1;fill-rule:evenodd;stroke:#000000;stroke-width:1px;stroke-linecap:butt;stroke-linejoin:miter;stroke-opacity:1" d="m 150.88638,250.80119 c -0.75895,0.98107 -3.03536,5.52339 -0.0424,7.20057 1.12834,0.6323 3.78675,0.5979 6.56026,0.28317 4.08398,-0.46343 3.5293,-2.36718 3.15207,-5.0198 -0.3189,-2.24247 -3.08916,-5.58251 -3.47223,-6.58996 l -5.33642,-0.83158 -0.86129,4.9576 z" id="leg-left-front" sodipodi:nodetypes="csssccc" inkscape:export-filename="E:\Documents and Settings\Peer\Dokumenter\Billeder\THG\thg_logo1.png" inkscape:export-xdpi="211.42252" inkscape:export-ydpi="211.42252" inkscape:connector-curvature="0"/>
    <path style="fill:#376274;fill-opacity:1;fill-rule:evenodd;stroke:#000000;stroke-width:1px;stroke-linecap:butt;stroke-linejoin:miter;stroke-opacity:1" d="m 158.4441,244.95073 c -1.77343,3.0603 -4.33804,8.09535 -8.83573,7.22859 l 1.5143,-6.60359 7.32143,-0.625 z" id="bottom" sodipodi:nodetypes="cccc" inkscape:export-filename="E:\Documents and Settings\Peer\Dokumenter\Billeder\THG\thg_logo1.png" inkscape:export-xdpi="211.42252" inkscape:export-ydpi="211.42252" inkscape:connector-curvature="0"/>
    <path inkscape:connector-curvature="0" inkscape:export-ydpi="211.42252" inkscape:export-xdpi="211.42252" inkscape:export-filename="E:\Documents and Settings\Peer\Dokumenter\Billeder\THG\thg_logo1.png" sodipodi:nodetypes="cscssccccccccc" id="neck-highlight" d="m 157.55124,235.04002 c 0,0 5.72027,0.84362 7.16902,-5.33472 0.77716,-3.31433 1.67527,-5.40637 4.42281,-6.9389 3.61515,-0.2744 5.22396,5.66791 9.12695,8.6454 1.17088,0.89323 2.13815,2.22659 2.10113,3.05449 -0.0398,0.88946 -0.99809,1.49445 -1.56542,1.96531 -0.83263,0.31632 -7.29271,1.93428 -8.81389,-0.2055 0.18049,-0.96212 0.46207,-1.72187 0.50769,-1.6876 -0.55604,0.8611 -0.89925,1.52647 -2.05325,1.84858 0.95402,-0.0757 -0.5675,0.007 1.06457,-0.30966 1.53848,1.9231 4.57112,1.633 5.46518,1.70854 -0.33128,1.92411 -2.40132,3.05276 -7.3355,1.9862 -3.36268,5.3098 -11.69069,5.50049 -15.17857,6.96428 -0.0944,-5.01 -0.59642,-9.47731 5.08928,-11.69642 z" style="fill:#ffffff;fill-opacity:1;fill-rule:evenodd;stroke:none"/>
    <path style="fill:#447444;fill-opacity:1;fill-rule:evenodd;stroke:none;display:inline;filter:url(#filter3328)" d="m 175.99321,228.60194 c -6.9231,1.02403 -7.50251,4.1919 -9.66709,6.58688 -2.94982,3.26382 -5.68065,5.25793 -12.16582,6.05492 -0.0119,1.04726 -1.50072,4.14379 -1.47959,5.26445 3.48788,-1.46379 11.82481,-1.65895 15.1875,-6.96875 4.93418,1.06656 7.01247,-0.0446 7.34375,-1.96875 -0.89406,-0.0755 -3.93027,0.20434 -5.46875,-1.71875 -0.37047,0.072 -0.54493,0.11898 -0.65625,0.15625 0.81753,-0.35698 1.14599,-0.94569 1.625,-1.6875 -0.0456,-0.0343 -0.31951,0.72539 -0.5,1.6875 1.52118,2.13978 7.97987,0.53507 8.8125,0.21875 0.56733,-0.47086 1.52274,-1.0793 1.5625,-1.96875 0.037,-0.8279 -0.92287,-2.16926 -2.09375,-3.0625 -0.9524,-0.72656 -1.75833,-1.64751 -2.5,-2.59375 z m -7.0625,7.5 c 0.0571,0.0283 0.22701,0.0247 -0.25,0.0625 0.0938,-0.0262 0.16639,-0.0319 0.25,-0.0625 z" id="neck-shadow" sodipodi:nodetypes="cscccccscccssccsc" inkscape:export-filename="E:\Documents and Settings\Peer\Dokumenter\Billeder\THG\thg_logo1.png" inkscape:export-xdpi="211.42252" inkscape:export-ydpi="211.42252" inkscape:connector-curvature="0"/>
    <path style="fill:#76b676;fill-opacity:1;fill-rule:evenodd;stroke:none;display:inline;filter:url(#filter3308)" d="m 169.93071,225.22694 c -3.55401,3.08054 -2.36405,10.07799 -8,11.40625 -1.69714,0.0392 -6.1647,0.76764 -6.375,4.25 -1.74671,5.02735 4.51779,1.63211 7.09375,0.8125 1.93711,-0.57051 6.32896,-4.46295 1.875,-3.65625 -0.37833,-1.70318 4.55833,-3.1985 6.24857,-5.75702 5.521,-6.27998 -1.2544,5.49889 4.72018,2.88202 2.63956,0.26249 3.64799,-1.45191 1.03125,-2.71875 -3.69563,-1.78638 0.16759,-4.24189 -2.65177,-5.19506 -0.10133,4.58581 -1.85169,-2.46049 -3.94198,-2.02369 z" id="neck-midlight" inkscape:export-filename="E:\Documents and Settings\Peer\Dokumenter\Billeder\THG\thg_logo1.png" inkscape:export-xdpi="211.42252" inkscape:export-ydpi="211.42252" inkscape:connector-curvature="0"/>
    <path style="fill:none;fill-opacity:1;fill-rule:evenodd;stroke:#000000;stroke-width:1px;stroke-linecap:butt;stroke-linejoin:miter;stroke-opacity:1" d="m 157.55124,235.04002 c 0,0 5.72027,0.84362 7.16902,-5.33472 0.77716,-3.31433 1.67527,-5.40637 4.42281,-6.9389 3.61515,-0.2744 5.22396,5.66791 9.12695,8.6454 1.17088,0.89323 2.13815,2.22659 2.10113,3.05449 -0.0398,0.88946 -0.99809,1.49445 -1.56542,1.96531 -0.83263,0.31632 -7.29271,1.93428 -8.81389,-0.2055 0.18049,-0.96212 0.46207,-1.72187 0.50769,-1.6876 -0.55604,0.8611 -0.89925,1.52647 -2.05325,1.84858 0.95402,-0.0757 -0.5675,0.007 1.06457,-0.30966 1.53848,1.9231 4.57112,1.633 5.46518,1.70854 -0.33128,1.92411 -2.40132,3.05276 -7.3355,1.9862 -3.36268,5.3098 -11.69069,5.50049 -15.17857,6.96428 -0.0944,-5.01 -0.59642,-9.47731 5.08928,-11.69642 z" id="neck-outline" sodipodi:nodetypes="cscssccccccccc" inkscape:export-filename="E:\Documents and Settings\Peer\Dokumenter\Billeder\THG\thg_logo1.png" inkscape:export-xdpi="211.42252" inkscape:export-ydpi="211.42252" inkscape:connector-curvature="0"/>
    <path sodipodi:type="arc" style="fill:#a7d2d0;fill-opacity:1;stroke:#000000;stroke-opacity:1" id="eye-left" sodipodi:cx="170.71428" sodipodi:cy="219.86218" sodipodi:rx="3.2142856" sodipodi:ry="5.3571429" d="m 173.92856,219.86218 a 3.2142856,5.3571429 0 1 1 -6.42857,0 3.2142856,5.3571429 0 1 1 6.42857,0 z" transform="matrix(1.0318461,0,0,0.9191076,-0.0390154,23.929822)" inkscape:export-filename="E:\Documents and Settings\Peer\Dokumenter\Billeder\THG\thg_logo1.png" inkscape:export-xdpi="211.42252" inkscape:export-ydpi="211.42252"/>
    <path sodipodi:type="arc" style="fill:#000606;fill-opacity:1;stroke:#000000;stroke-opacity:1" id="pupil-left" sodipodi:cx="170.71428" sodipodi:cy="220.66576" sodipodi:rx="0.53571427" sodipodi:ry="1.875" d="m 171.24999,220.66576 a 0.53571427,1.875 0 1 1 -1.07143,0 0.53571427,1.875 0 1 1 1.07143,0 z" inkscape:export-filename="E:\Documents and Settings\Peer\Dokumenter\Billeder\THG\thg_logo1.png" inkscape:export-xdpi="211.42252" inkscape:export-ydpi="211.42252" transform="translate(6.2119643,5.4456821)"/>
    <path sodipodi:type="arc" style="fill:#a7d2d0;fill-opacity:1;stroke:#000000;stroke-opacity:1" id="eye-right" sodipodi:cx="166.69643" sodipodi:cy="220.13004" sodipodi:rx="3.6607144" sodipodi:ry="5.5921354" d="m 170.35714,220.13004 a 3.6607144,5.5921354 0 1 1 -7.32143,0 3.6607144,5.5921354 0 1 1 7.32143,0 z" transform="matrix(0.9694601,0,0,0.9726581,10.860918,12.263557)" inkscape:export-filename="E:\Documents and Settings\Peer\Dokumenter\Billeder\THG\thg_logo1.png" inkscape:export-xdpi="211.42252" inkscape:export-ydpi="211.42252"/>
    <path style="fill:url(#linearGradient5079);fill-opacity:1;fill-rule:evenodd;stroke:#000000;stroke-width:1px;stroke-linecap:butt;stroke-linejoin:miter;stroke-opacity:1" d="m 112.99767,245.66502 c -0.5016,-0.50283 -1.4301,-1.49671 -2.14285,-2.05358 -1.74163,-1.36072 -2.96794,-2.26117 -4.64286,-3.30357 -1.78136,-1.10864 -3.09229,-2.32663 -3.21428,-4.46428 3.24428,1.65189 6.58633,1.91408 10.17857,3.57143 0.92258,0.42565 2.5,0.53395 2.5,1.42857 0,1.05545 0.0767,1.98955 -0.35715,2.85714 -0.25129,0.50258 -1.78203,1.53277 -2.32143,1.96429 z" id="tail-path3170" sodipodi:nodetypes="csscsssc" inkscape:export-filename="E:\Documents and Settings\Peer\Dokumenter\Billeder\THG\thg_logo1.png" inkscape:export-xdpi="211.42252" inkscape:export-ydpi="211.42252" inkscape:connector-curvature="0"/>
    <path style="fill:#ffffff;stroke:#000000;stroke-width:1px;stroke-linecap:butt;stroke-linejoin:miter;stroke-opacity:1;fill-opacity:1" d="m 115.14053,241.02216 c 4.52889,-16.10675 27.86006,-24.30836 39.82143,-8.21429 1.16478,3.22741 -5.33501,12.53821 -3.92857,15.89286 -5.07186,1.47543 -12.97917,-0.52889 -19.10714,1.78572 0,0 -7.68562,-2.74877 -9.64286,-4.10715 -1.79841,-1.24814 -7.51083,-3.87441 -7.14286,-5.35714 z" id="shell-path2229" sodipodi:nodetypes="ccccsc" inkscape:export-filename="E:\Documents and Settings\Peer\Dokumenter\Billeder\THG\thg_logo1.png" inkscape:export-xdpi="211.42252" inkscape:export-ydpi="211.42252" inkscape:connector-curvature="0"/>
    <path style="fill:#000000;fill-opacity:1;fill-rule:evenodd;stroke:#000000;stroke-width:1px;stroke-linecap:butt;stroke-linejoin:miter;stroke-opacity:1" d="m 126.61375,251.73644 c 0,0 -0.94995,2.63317 -0.58036,2.99108 0.74315,0.71965 2.65625,1.51785 4.82143,2.14285 2.16518,0.625 2.26562,0.625 3.39285,0.26786 1.04641,-0.33153 0.75893,-5.44643 0.75893,-5.44643 l -8.39285,0.0446 z" id="leg-left-hind" sodipodi:nodetypes="cszzcc" inkscape:export-filename="E:\Documents and Settings\Peer\Dokumenter\Billeder\THG\thg_logo1.png" inkscape:export-xdpi="211.42252" inkscape:export-ydpi="211.42252" inkscape:connector-curvature="0"/>
    <path style="fill:url(#linearGradient3346);fill-opacity:1;fill-rule:evenodd;stroke:#000000;stroke-width:0.94999015px;stroke-linecap:butt;stroke-linejoin:miter;stroke-opacity:1" d="m 133.99177,249.98885 c -1.65076,2.80459 -3.60734,5.13162 -3.46975,6.94943 0.15173,2.00474 1.79731,3.38937 2.48234,3.73021 0.95855,0.47693 4.11947,1.24248 8.42123,1.49541 3.57489,0.21019 5.11024,-1.7615 5.07926,-8.0738 -0.0173,-3.53486 -0.9312,-3.73944 -0.9312,-3.73944 l -11.58188,-0.36181 z" id="leg-right-front" sodipodi:nodetypes="csssscc" inkscape:export-filename="E:\Documents and Settings\Peer\Dokumenter\Billeder\THG\thg_logo1.png" inkscape:export-xdpi="211.42252" inkscape:export-ydpi="211.42252" inkscape:connector-curvature="0"/>
    <path style="fill:url(#radialGradient3215);fill-opacity:1;fill-rule:evenodd;stroke:none;filter:url(#filter3245)" d="m 117.32874,241.60461 c 0,0 5.55584,-11.11167 12.37437,-13.25824 6.81853,-2.14658 11.93065,-2.53588 19.06663,1.38895 2.52537,1.38897 3.81964,2.90418 3.78807,4.16688 -0.0729,2.91714 -3.15673,3.91434 -4.04061,6.81853 -0.88389,2.90419 -1.76777,4.9245 -1.76777,4.9245 -5.71387,1.30329 -12.16704,2.22883 -16.54126,2.14657 -3.90593,-0.0714 -6.31343,-4.79822 -12.87943,-6.18719 z" id="shell-fill" sodipodi:nodetypes="csssscsc" inkscape:export-filename="E:\Documents and Settings\Peer\Dokumenter\Billeder\THG\thg_logo1.png" inkscape:export-xdpi="211.42252" inkscape:export-ydpi="211.42252" inkscape:connector-curvature="0"/>
    <path style="fill:url(#linearGradient3871);fill-opacity:1;fill-rule:evenodd;stroke:#000000;stroke-width:1px;stroke-linecap:butt;stroke-linejoin:miter;stroke-opacity:1" d="m 114.29233,244.99537 c -1.94803,1.34076 -3.96375,3.54394 -4.61892,5.3263 -0.73666,2.00403 -1.19235,6.1069 0.28855,7.44156 4.05374,3.65343 7.34864,2.26973 9.34962,2.16684 1.39253,-0.0716 1.62458,-3.79879 1.67716,-5.24719 l 0.3125,-7.23215 -7.00891,-2.45536 z" id="leg-right-hind" sodipodi:nodetypes="csssccc" inkscape:export-filename="E:\Documents and Settings\Peer\Dokumenter\Billeder\THG\thg_logo1.png" inkscape:export-xdpi="211.42252" inkscape:export-ydpi="211.42252" inkscape:connector-curvature="0"/>
    <path style="opacity:0.78000004;fill:url(#radialGradient3799);fill-opacity:1;fill-rule:evenodd;stroke:none;filter:url(#filter3861)" d="m 115.93978,241.22581 c 0,0 0.46043,0.0446 5.25866,2.44375 4.79822,2.39911 5.4742,3.74343 5.97928,2.85954 0.50507,-0.88388 0.22098,-4.07217 -2.80948,-6.09248 -3.52388,-2.34926 -5.14546,-1.98873 -6.53442,-0.97858 -1.38896,1.01016 -1.89404,1.6415 -1.89404,1.76777 z" id="shell-shadow-right-hind" sodipodi:nodetypes="cssssc" inkscape:export-filename="E:\Documents and Settings\Peer\Dokumenter\Billeder\THG\thg_logo1.png" inkscape:export-xdpi="211.42252" inkscape:export-ydpi="211.42252" inkscape:connector-curvature="0"/>
    <path style="fill:#add5d5;fill-opacity:1;fill-rule:evenodd;stroke:#000000;stroke-width:1px;stroke-linecap:butt;stroke-linejoin:miter;stroke-opacity:1" d="m 113.4523,241.82386 c 6.42901,-1.45674 11.32801,4.33539 14.82855,5.69 1.46952,0.60361 3.83455,0.97681 6.13642,-0.15877 3.7681,-1.85889 9.05798,-0.57891 12.08684,0.44195 1.81138,0.61051 4.11932,-2.25169 4.74753,-6.13441 0.5222,-3.22754 2.02533,-6.47582 2.79198,-7.55695 0.97737,-1.3783 1.88488,-2.25962 3.29207,-2.0644 1.32676,0.18406 1.78485,1.82793 2.00127,2.21748 -0.49319,0.22428 -1.61622,-0.29031 -2.32592,1.23851 -0.86481,1.86294 -2.94262,7.3511 -3.48663,10.37138 -0.28923,1.60582 -2.32392,5.70863 -3.48848,6.25557 -2.00034,0.93948 -3.94761,0.77084 -5.60968,0.14794 -6.1071,-2.28879 -10.15025,-0.11211 -12.05806,0.69262 -1.85601,0.78288 -9.70467,-2.52913 -10.82076,-3.77166 -2.57831,-2.87042 -7.56944,-3.99753 -9.35333,-4.33167 -1.11523,-0.20889 -0.96924,-2.53287 1.2582,-3.03759 z" id="shell-brim" sodipodi:nodetypes="ccssssscssssssss" inkscape:export-filename="E:\Documents and Settings\Peer\Dokumenter\Billeder\THG\thg_logo1.png" inkscape:export-xdpi="211.42252" inkscape:export-ydpi="211.42252" inkscape:connector-curvature="0"/>
    <path sodipodi:type="arc" style="fill:#000606;fill-opacity:1;stroke:#000000;stroke-width:0.99995869;stroke-miterlimit:4;stroke-opacity:1;stroke-dasharray:none" id="pupil-right" sodipodi:cx="166.60715" sodipodi:cy="220.57646" sodipodi:rx="0.71428573" sodipodi:ry="2.5" d="m 167.32143,220.57646 a 0.71428573,2.5 0 1 1 -1.42857,0 0.71428573,2.5 0 1 1 1.42857,0 z" transform="matrix(0.9422741,0,0,0.7309687,16.165001,65.040186)" inkscape:export-filename="E:\Documents and Settings\Peer\Dokumenter\Billeder\THG\thg_logo1.png" inkscape:export-xdpi="211.42252" inkscape:export-ydpi="211.42252"/>
    <path style="fill:url(#linearGradient3923);fill-opacity:1;fill-rule:evenodd;stroke:#000000;stroke-width:1px;stroke-linecap:butt;stroke-linejoin:miter;stroke-opacity:1" d="m 159.89316,251.56591 c 0.57472,-6.1e-4 0.90809,1.08026 1.19981,1.70587 0.60193,1.29087 0.71423,2.85136 0.36601,3.26231 -0.34899,0.41184 -1.85499,0.29116 -2.6783,0.25669 -0.73071,-0.0306 -0.88818,-1.18379 -0.9253,-1.81966 0.0354,-1.6702 1.21387,-3.40438 2.03778,-3.40521 z" id="toe-LF1" sodipodi:nodetypes="cssscs" inkscape:export-filename="E:\Documents and Settings\Peer\Dokumenter\Billeder\THG\thg_logo1.png" inkscape:export-xdpi="211.42252" inkscape:export-ydpi="211.42252" inkscape:connector-curvature="0"/>
    <path style="fill:url(#linearGradient3915);fill-opacity:1;fill-rule:evenodd;stroke:#000000;stroke-width:1px;stroke-linecap:butt;stroke-linejoin:miter;stroke-opacity:1" d="m 158.5989,252.76547 c 0.57472,-6.1e-4 0.90809,1.08026 1.19981,1.70587 0.60193,1.29087 0.71423,2.85136 0.36601,3.26231 -0.34899,0.41184 -1.85499,0.29116 -2.6783,0.25669 -0.73071,-0.0306 -0.88818,-1.18379 -0.9253,-1.81966 0.0354,-1.6702 1.21387,-3.40438 2.03778,-3.40521 z" id="toe-LF2" sodipodi:nodetypes="cssscs" inkscape:export-filename="E:\Documents and Settings\Peer\Dokumenter\Billeder\THG\thg_logo1.png" inkscape:export-xdpi="211.42252" inkscape:export-ydpi="211.42252" inkscape:connector-curvature="0"/>
    <path style="fill:url(#linearGradient3899);fill-opacity:1;fill-rule:evenodd;stroke:#000000;stroke-width:1px;stroke-linecap:butt;stroke-linejoin:miter;stroke-opacity:1" d="m 156.06178,253.4739 c 0.57472,-6.1e-4 0.90809,1.08026 1.19981,1.70587 0.60193,1.29087 0.71423,2.85136 0.36601,3.26231 -0.34899,0.41184 -1.85499,0.29116 -2.6783,0.25669 -0.73071,-0.0306 -0.88818,-1.18379 -0.9253,-1.81966 0.0354,-1.6702 1.21387,-3.40438 2.03778,-3.40521 z" id="toe-LF3" sodipodi:nodetypes="cssscs" inkscape:export-filename="E:\Documents and Settings\Peer\Dokumenter\Billeder\THG\thg_logo1.png" inkscape:export-xdpi="211.42252" inkscape:export-ydpi="211.42252" inkscape:connector-curvature="0"/>
    <path style="fill:url(#linearGradient3931);fill-opacity:1;fill-rule:evenodd;stroke:#000000;stroke-width:1px;stroke-linecap:butt;stroke-linejoin:miter;stroke-opacity:1;marker-mid:none;marker-end:none" d="m 146.01024,254.8549 c 0.72272,0.14487 1.82862,1.65914 1.76777,5.27175 -0.0142,0.8676 -2.59666,1.42016 -2.84107,0.5682 -0.4246,-1.48007 -0.30582,-6.11638 1.0733,-5.83995 z" id="toe-RF1" sodipodi:nodetypes="csss" inkscape:export-filename="E:\Documents and Settings\Peer\Dokumenter\Billeder\THG\thg_logo1.png" inkscape:export-xdpi="211.42252" inkscape:export-ydpi="211.42252" inkscape:connector-curvature="0"/>
    <path style="fill:url(#linearGradient3939);fill-opacity:1;fill-rule:evenodd;stroke:#000000;stroke-width:1px;stroke-linecap:butt;stroke-linejoin:miter;stroke-opacity:1;marker-mid:none;marker-end:none" d="m 143.73741,255.54939 c 0.60313,-0.0573 1.79598,3.16536 2.2097,5.77682 0.0823,0.51956 -2.07398,1.00204 -4.10375,0.0947 -0.65747,-0.2939 0.47003,-5.73635 1.89405,-5.87151 z" id="toe-RF2" sodipodi:nodetypes="csss" inkscape:export-filename="E:\Documents and Settings\Peer\Dokumenter\Billeder\THG\thg_logo1.png" inkscape:export-xdpi="211.42252" inkscape:export-ydpi="211.42252" inkscape:connector-curvature="0"/>
    <path style="fill:url(#linearGradient3947);fill-opacity:1;fill-rule:evenodd;stroke:#000000;stroke-width:1px;stroke-linecap:butt;stroke-linejoin:miter;stroke-opacity:1;marker-mid:none;marker-end:none" d="m 140.94106,257.32511 c 0.57165,-0.0495 2.754,2.18974 2.74635,4.60883 -0.003,0.86771 -5.27271,0.72359 -5.52428,-0.12628 -0.43812,-1.48007 1.31431,-4.35593 2.77793,-4.48255 z" id="toe-RF3" sodipodi:nodetypes="csss" inkscape:export-filename="E:\Documents and Settings\Peer\Dokumenter\Billeder\THG\thg_logo1.png" inkscape:export-xdpi="211.42252" inkscape:export-ydpi="211.42252" inkscape:connector-curvature="0"/>
    <path style="fill:url(#linearGradient3971);fill-opacity:1;fill-rule:evenodd;stroke:#000000;stroke-width:1px;stroke-linecap:butt;stroke-linejoin:miter;stroke-opacity:1;display:inline" d="m 120.39064,254.08383 c 0.57472,-6.1e-4 1.2519,1.47371 1.37838,2.1523 0.24478,1.31342 0.53566,2.36029 0.18744,2.77124 -0.34898,0.41185 -1.87694,0.62724 -2.6783,0.43526 -0.73071,-0.17506 -0.44175,-1.05158 -0.47887,-1.59644 0.0354,-1.6702 0.76744,-3.76153 1.59135,-3.76236 z" id="toe-RH1" sodipodi:nodetypes="cssscs" inkscape:export-filename="E:\Documents and Settings\Peer\Dokumenter\Billeder\THG\thg_logo1.png" inkscape:export-xdpi="211.42252" inkscape:export-ydpi="211.42252" inkscape:connector-curvature="0"/>
    <path style="fill:url(#linearGradient3963);fill-opacity:1;fill-rule:evenodd;stroke:#000000;stroke-width:1px;stroke-linecap:butt;stroke-linejoin:miter;stroke-opacity:1;display:inline" d="m 118.45659,254.03918 c 0.57472,-6.1e-4 1.03454,1.46621 1.11053,2.15229 0.11085,1.00092 0.29524,3.1888 -0.0804,3.57482 -0.66148,0.6797 -1.96622,0.13617 -2.76758,-0.0558 -0.73071,-0.17506 -0.44175,-1.49801 -0.47887,-2.04287 0.0354,-1.6702 1.39244,-3.6276 2.21635,-3.62843 z" id="toe-RH2" sodipodi:nodetypes="cssscs" inkscape:export-filename="E:\Documents and Settings\Peer\Dokumenter\Billeder\THG\thg_logo1.png" inkscape:export-xdpi="211.42252" inkscape:export-ydpi="211.42252" inkscape:connector-curvature="0"/>
    <path style="fill:url(#linearGradient3955);fill-opacity:1;fill-rule:evenodd;stroke:#000000;stroke-width:1px;stroke-linecap:butt;stroke-linejoin:miter;stroke-opacity:1" d="m 116.49052,253.96594 c 0.5679,-0.0882 0.79796,5.80723 0.44974,6.21818 -0.34898,0.41185 -2.10015,-0.087 -2.90151,-0.27902 -0.73071,-0.17506 -0.64463,-1.09783 -0.56816,-2.62323 0.0787,-1.56992 1.45744,-3.07314 3.01993,-3.31593 z" id="toe-RH3" sodipodi:nodetypes="csszs" inkscape:export-filename="E:\Documents and Settings\Peer\Dokumenter\Billeder\THG\thg_logo1.png" inkscape:export-xdpi="211.42252" inkscape:export-ydpi="211.42252" inkscape:connector-curvature="0"/>
    <path style="opacity:0.87920006;fill:url(#linearGradient3569);fill-opacity:1;fill-rule:evenodd;stroke:none;filter:url(#filter3675)" d="m 154.32558,233.01832 c 0,0 -2.39912,-0.63134 -3.40927,0.50508 -1.01015,1.13642 -4.16688,6.81853 -4.29315,9.21764 -0.12627,2.39911 1.6415,5.05076 1.6415,5.05076 2.75017,-2.81642 3.49579,-6.95473 3.91434,-9.72272 0.30206,-1.99759 2.14658,-5.3033 2.14658,-5.05076 z" id="shell-shadow-neck" sodipodi:nodetypes="csscsc" inkscape:export-filename="E:\Documents and Settings\Peer\Dokumenter\Billeder\THG\thg_logo1.png" inkscape:export-xdpi="211.42252" inkscape:export-ydpi="211.42252" inkscape:connector-curvature="0"/>
    <path style="opacity:0.59999994;fill:url(#linearGradient3269);fill-opacity:1;fill-rule:evenodd;stroke:none;filter:url(#filter3551)" d="m 147.63332,245.51896 c -1.2627,-1.2627 -5.3033,-4.16688 -10.60661,-2.27284 -5.3033,1.89403 -10.16466,2.90418 -10.16466,2.90418 l 6.37659,2.27285 c 0,0 6.18719,-3.15673 10.98541,-1.26269 4.79823,1.89403 3.78807,0.3788 4.54569,-0.37881 0.75761,-0.75762 -0.88389,-1.13642 -1.13642,-1.26269 z" id="shell-shadow-right-front" sodipodi:nodetypes="csccssc" inkscape:export-filename="E:\Documents and Settings\Peer\Dokumenter\Billeder\THG\thg_logo1.png" inkscape:export-xdpi="211.42252" inkscape:export-ydpi="211.42252" inkscape:connector-curvature="0"/>
    <path style="fill:none;stroke:#000000;stroke-width:1px;stroke-linecap:butt;stroke-linejoin:miter;stroke-opacity:1" d="m 152.43154,248.92822 c 1.77036,-0.33499 3.47807,-0.71175 4.54569,-1.51523" id="bottom-1" sodipodi:nodetypes="cc" inkscape:export-filename="E:\Documents and Settings\Peer\Dokumenter\Billeder\THG\thg_logo1.png" inkscape:export-xdpi="211.42252" inkscape:export-ydpi="211.42252" inkscape:connector-curvature="0"/>
    <path style="fill:none;stroke:#000000;stroke-width:1px;stroke-linecap:butt;stroke-linejoin:miter;stroke-opacity:1" d="m 151.2798,250.77762 c 1.551,-3.5e-4 2.7237,-0.50511 3.92966,-0.96551" id="bottom-2" sodipodi:nodetypes="cc" inkscape:export-filename="E:\Documents and Settings\Peer\Dokumenter\Billeder\THG\thg_logo1.png" inkscape:export-xdpi="211.42252" inkscape:export-ydpi="211.42252" inkscape:connector-curvature="0"/>
    <path style="opacity:0.50961537;fill:#000000;fill-opacity:1;fill-rule:evenodd;stroke:none;filter:url(#filter4911)" d="m 145.67625,252.27216 c -0.74429,-0.009 -2.04966,-0.46777 -3.03572,-0.71429 -1.2414,-0.31035 -2.28147,-0.89285 -3.57143,-0.89285 -1.5269,0 -2.83485,-0.10043 -4.10714,0.53571 -1.05676,0.52838 -1.97381,0.9869 -2.85714,1.42857 -0.639,0.3195 -1.00076,1.21529 -1.42857,1.78572 -0.80182,1.06908 1.74883,0.58957 1.96428,0.53571 1.0245,-0.25612 1.93827,-0.48457 2.85714,-0.71429 1.03899,-0.25974 1.54547,-0.53571 2.85715,-0.53571 1.30952,0 2.61904,0 3.92857,0 0.90497,0 1.83086,0.14521 2.67857,0.35714 1.39953,0.34989 1.26855,-0.67718 0.71429,-1.78571 z" id="leg-shadow-RF" inkscape:export-filename="E:\Documents and Settings\Peer\Dokumenter\Billeder\THG\thg_logo1.png" inkscape:export-xdpi="211.42252" inkscape:export-ydpi="211.42252" inkscape:connector-curvature="0"/>
    <path style="opacity:0.53365383;fill:#000000;fill-opacity:1;fill-rule:evenodd;stroke:none;filter:url(#filter5063)" d="m 121.5691,248.52216 c 1.04104,0.26026 -1.71878,-1.30582 -2.67857,-1.78572 -1.13364,-0.56682 -2.01318,-1.12829 -3.21428,-1.42857 -1.31899,-0.32974 -2.99447,0.18954 -3.57143,0.53572 -1.38835,0.83301 -1.20237,1.25 0.53571,1.25 1.42474,0 2.44502,0.45329 3.75,0.71428 1.62173,0.32435 1.51633,0.26633 2.5,1.25 0.45548,0.45549 2.01468,1.47897 2.14286,1.60715 0.52062,0.52062 0.15691,-1.51152 0.53571,-2.14286 z" id="leg-shadow-RH" inkscape:export-filename="E:\Documents and Settings\Peer\Dokumenter\Billeder\THG\thg_logo1.png" inkscape:export-xdpi="211.42252" inkscape:export-ydpi="211.42252" inkscape:connector-curvature="0"/>
    <path style="opacity:0.4375;fill:#000000;fill-opacity:1;fill-rule:evenodd;stroke:none;filter:url(#filter5023)" d="m 157.46196,247.6293 c 0.60112,0.60112 2.09214,1.97697 0,2.5 -0.66406,0.16602 -1.75647,0.85386 -2.32143,1.60714 -0.62995,0.83994 -1.59463,1.90821 -2.39489,2.45302 -1.77533,1.20866 -3.52046,1.80454 -2.42654,1.8327 0.78854,0.0203 -0.874,-1.52285 -0.71428,-2.32143 0.27735,-1.38676 -0.14893,-2.11121 1.4636,-2.11121 1.97813,-0.59152 3.59774,-2.26437 5.43916,-3.33393 0.37965,-0.44115 0.65676,-0.32867 0.95438,-0.62629 z" id="leg-shadow-LF" sodipodi:nodetypes="csssssccc" inkscape:export-filename="E:\Documents and Settings\Peer\Dokumenter\Billeder\THG\thg_logo1.png" inkscape:export-xdpi="211.42252" inkscape:export-ydpi="211.42252" inkscape:connector-curvature="0"/>
    <path style="fill:none;stroke:#000000;stroke-width:0.5;stroke-linecap:butt;stroke-linejoin:miter;stroke-miterlimit:4;stroke-opacity:1;stroke-dasharray:none;display:inline" d="m 116.34384,248.87771 c 0.43392,0.45451 1.01308,1.20874 1.85616,1.28164 0.61688,0.0533 0.99094,0.0697 1.41421,-0.30936" id="knee-RH1" sodipodi:nodetypes="csc" inkscape:export-filename="E:\Documents and Settings\Peer\Dokumenter\Billeder\THG\thg_logo1.png" inkscape:export-xdpi="211.42252" inkscape:export-ydpi="211.42252" inkscape:connector-curvature="0"/>
    <path style="fill:none;stroke:#000000;stroke-width:0.5;stroke-linecap:butt;stroke-linejoin:miter;stroke-miterlimit:4;stroke-opacity:1;stroke-dasharray:none;display:inline" d="m 115.85771,250.33612 c 0.0258,-0.0258 0.84226,0.75259 1.4584,1.06066 0.47659,0.2383 1.08233,0.22185 1.72358,-0.0884" id="knee-RH2" sodipodi:nodetypes="csc" inkscape:export-filename="E:\Documents and Settings\Peer\Dokumenter\Billeder\THG\thg_logo1.png" inkscape:export-xdpi="211.42252" inkscape:export-ydpi="211.42252" inkscape:connector-curvature="0"/>
    <text xml:space="preserve" style="font-size:13.41817474px;font-style:normal;font-variant:normal;font-weight:normal;font-stretch:normal;text-align:start;line-height:125%;writing-mode:lr-tb;text-anchor:start;fill:url(#linearGradient3372);fill-opacity:1;stroke:#babdb6;stroke-width:0.30000001;stroke-linecap:butt;stroke-linejoin:miter;stroke-miterlimit:4;stroke-opacity:0.50555558;stroke-dasharray:none;font-family:Eras Demi ITC" x="161.77037" y="216.6044" id="logo-text" sodipodi:linespacing="125%" transform="matrix(0.94208789,0.07470188,-0.1127702,1.0525301,0,0)" inkscape:transform-center-y="40.093068" inkscape:transform-center-x="56.089936" inkscape:export-filename="E:\Documents and Settings\Peer\Dokumenter\Billeder\THG\thg_logo1.png" inkscape:export-xdpi="211.42252" inkscape:export-ydpi="211.42252"><tspan sodipodi:role="line" id="tspan3350" x="161.77037" y="216.6044" style="fill:url(#linearGradient3372);fill-opacity:1;stroke:#babdb6;stroke-width:0.30000001;stroke-miterlimit:4;stroke-opacity:0.50555558;stroke-dasharray:none">Hg</tspan></text>
    <path style="opacity:0.87019228;fill:#2e3436;fill-opacity:1;fill-rule:evenodd;stroke:none;display:inline;filter:url(#filter3443)" d="m 157.57615,234.22898 c -1.12977,0.0567 -1.92605,0.88774 -2.78125,2.09375 -0.76665,1.08113 -2.25906,4.3037 -2.78125,7.53125 -0.62821,3.88272 -2.93861,6.76676 -4.75,6.15625 -3.02886,-1.02086 -8.32564,-2.29638 -12.09375,-0.4375 -2.30187,1.13558 -4.65548,0.75986 -6.125,0.15625 -3.50054,-1.35461 -8.41474,-7.14424 -14.84375,-5.6875 -0.64967,0.14721 -1.09036,0.45338 -1.40625,0.8125 2.07932,0.42938 6.4084,1.54582 8.78125,4.1875 1.11609,1.24253 8.95649,4.56412 10.8125,3.78125 1.90781,-0.80473 5.9554,-2.97629 12.0625,-0.6875 1.66207,0.6229 3.59341,0.78323 5.59375,-0.15625 1.16456,-0.54694 3.21077,-4.64419 3.5,-6.25 0.54401,-3.02028 2.60394,-8.51207 3.46875,-10.375 0.31814,-0.68533 0.73471,-0.94779 1.125,-1.0625 -0.0229,-0.004 -0.0391,-0.028 -0.0625,-0.0312 -0.1759,-0.0244 -0.3386,-0.0394 -0.5,-0.0312 z" id="shell-brim-shadow" inkscape:export-filename="E:\Documents and Settings\Peer\Dokumenter\Billeder\THG\thg_logo1.png" inkscape:export-xdpi="211.42252" inkscape:export-ydpi="211.42252" inkscape:connector-curvature="0"/>
  </g>
</svg>